SplineFontDB: 3.2
FontName: TDAText
FullName: TDAText
FamilyName: TDAText
Weight: Condensed
Copyright: Copyright (c) 2024-2025 Dmitry Tretyakov\n\nBased on Philips SAA52XX/SAA55XX/TDA93XX IC character set:\nCopyright (c) 1993-2001 NXP Semiconductors N.V.

StartChar: exclam
Encoding: 33 33 4
Width: 420
Flags: HW
HStem: 0 100<172 248> 680 20G<172 248>
VStem: 172 75<0 100 200 700>
LayerCount: 2
Back
Fore
SplineSet
172 700 m 29
 248 700 l 25
 248 200 l 25
 172 200 l 25
 172 700 l 29
248 0 m 25
 172 0 l 1
 172 100 l 25
 248 100 l 1
 248 0 l 25
EndSplineSet
EndChar

StartChar: asterisk
Encoding: 42 42 5
Width: 420
Flags: HW
HStem: 0 21G<172 248> 100 100<22 60 360 398> 300 100<135 172 248 285> 500 100<22 60 360 398> 680 20G<172 248>
VStem: 22 75<100 200 500 600> 60 75<200 300 400 500> 172 75<0 300 400 700> 285 75<200 300 400 500> 322 75<100 200 500 600>
LayerCount: 2
Back
Fore
SplineSet
22 600 m 29xfd
 98 600 l 25
 98 500 l 25xfd
 134 500 l 25
 135 400 l 25
 172 400 l 25
 172 700 l 25
 248 700 l 25
 248 400 l 25
 285 400 l 25
 285 500 l 25xfb80
 322 500 l 25
 322 600 l 25
 398 600 l 25
 398 500 l 25xf940
 360 500 l 25
 360 400 l 25xf980
 322 400 l 25
 322 300 l 25xf940
 360 300 l 25
 360 200 l 25xf980
 398 200 l 25
 398 100 l 25
 322 100 l 25
 322 200 l 25xf940
 285 200 l 25
 285 300 l 25
 248 300 l 25
 248 0 l 25
 172 0 l 25
 172 300 l 25
 135 300 l 25
 135 200 l 25xfb80
 98 200 l 25
 98 100 l 25
 22 100 l 25
 22 200 l 25xfd
 60 200 l 25
 60 300 l 25xfb
 98 300 l 25
 98 400 l 25xfd
 60 400 l 25
 60 500 l 25xfb
 22 500 l 25
 22 600 l 29xfd
EndSplineSet
EndChar

StartChar: plus
Encoding: 43 43 6
Width: 420
Flags: HW
HStem: 250 100<60 172 248 360>
VStem: 172 75<50 250 350 550>
LayerCount: 2
Back
Fore
SplineSet
172 550 m 29
 248 550 l 25
 248 350 l 25
 360 350 l 25
 360 250 l 25
 248 250 l 25
 248 50 l 25
 172 50 l 25
 172 250 l 25
 60 250 l 25
 60 350 l 25
 172 350 l 25
 172 550 l 29
EndSplineSet
EndChar

StartChar: comma
Encoding: 44 44 7
Width: 420
Flags: HW
HStem: -200 100<154 191> 0 100<154 191>
VStem: 154 75<-200 -100> 191 75<-100 0>
LayerCount: 2
Back
Fore
SplineSet
154 -100 m 5xe0
 191 -100 l 29
 191 0 l 5xd0
 154 0 l 29
 154 100 l 29xe0
 266 100 l 29
 266 -100 l 29xd0
 229 -100 l 29
 229 -200 l 29
 154 -200 l 29
 154 -100 l 5xe0
EndSplineSet
EndChar

StartChar: hyphen
Encoding: 45 45 8
Width: 420
Flags: HW
HStem: 250 100<60 360>
LayerCount: 2
Back
Fore
SplineSet
60 250 m 29
 60 350 l 25
 360 350 l 25
 360 250 l 25
 60 250 l 29
EndSplineSet
EndChar

StartChar: period
Encoding: 46 46 9
Width: 420
Flags: HW
HStem: 0 100<172 248>
VStem: 172 75<0 100>
LayerCount: 2
Back
Fore
SplineSet
248 0 m 29
 172 0 l 29
 172 100 l 29
 248 100 l 29
 248 0 l 29
EndSplineSet
EndChar

StartChar: slash
Encoding: 47 47 10
Width: 420
Flags: HW
HStem: 0 100<60 98> 600 100<322 360>
VStem: 60 75<0 100> 98 75<100 200> 135 75<200 300> 172 75<300 400> 210 75<400 500> 248 75<500 600> 285 75<600 700>
LayerCount: 2
Back
Fore
SplineSet
285 700 m 29xc080
 360 700 l 25
 360 600 l 25xc080
 322 600 l 25
 322 500 l 25xc1
 285 500 l 25
 285 400 l 25xc2
 248 400 l 25
 248 300 l 25xc4
 210 300 l 25
 210 200 l 25xc8
 172 200 l 25
 172 100 l 25xd0
 135 100 l 25
 135 0 l 25
 60 0 l 25
 60 100 l 25xe0
 98 100 l 25
 98 200 l 25xd0
 135 200 l 25
 135 300 l 25xc8
 172 300 l 25
 172 400 l 25xc4
 210 400 l 25
 210 500 l 25xc2
 248 500 l 25
 248 600 l 25xc1
 285 600 l 25
 285 700 l 29xc080
EndSplineSet
EndChar

StartChar: zero
Encoding: 48 48 11
Width: 420
Flags: HW
HStem: 0 100<154 266> 600 100<154 266>
VStem: 41 112<100 600> 266 112<100 600>
LayerCount: 2
Back
Fore
SplineSet
266 600 m 29
 154 600 l 25
 154 100 l 25
 266 100 l 25
 266 600 l 29
79 700 m 25
 341 700 l 25
 341 600 l 25
 379 600 l 25
 379 100 l 25
 341 100 l 25
 341 0 l 25
 79 0 l 25
 79 100 l 25
 41 100 l 25
 41 600 l 25
 79 600 l 25
 79 700 l 25
EndSplineSet
EndChar

StartChar: one
Encoding: 49 49 12
Width: 420
Flags: HW
HStem: 0 21G<191 304> 500 100<116 191> 680 20G<191 304>
VStem: 191 112<0 500 600 700>
LayerCount: 2
Back
Fore
SplineSet
116 500 m 29
 116 600 l 29
 191 600 l 29
 191 700 l 29
 304 700 l 29
 304 0 l 29
 191 0 l 29
 191 500 l 29
 116 500 l 29
EndSplineSet
EndChar

StartChar: two
Encoding: 50 50 13
Width: 420
Flags: HW
HStem: 0 100<41 79 229 379> 500 100<41 79> 600 100<116 266>
VStem: 41 75<500 600> 229 112<300 400> 266 112<400 600>
LayerCount: 2
Back
Fore
SplineSet
116 500 m 29xd4
 41 500 l 1
 41 600 l 25
 79 600 l 25xd4
 79 700 l 25
 341 700 l 25
 341 600 l 25xb8
 379 600 l 25
 379 400 l 25xb4
 341 400 l 25
 341 300 l 25
 304 300 l 25
 304 200 l 25
 229 200 l 25
 229 100 l 25xb8
 379 100 l 25
 379 0 l 25xb4
 41 0 l 25
 41 100 l 25
 79 100 l 25
 79 200 l 25
 154 200 l 25
 154 300 l 25
 229 300 l 25
 229 400 l 25xb8
 266 400 l 25
 266 600 l 25
 116 600 l 1xb4
 116 500 l 29xd4
EndSplineSet
EndChar

StartChar: three
Encoding: 51 51 14
Width: 420
Flags: HW
HStem: 0 100<41 304> 300 100<154 229> 600 100<41 266 341 379>
VStem: 229 75<400 500> 266 75<500 600> 304 75<100 300>
CounterMasks: 1 e0
LayerCount: 2
Back
Fore
SplineSet
41 700 m 29xe8
 379 700 l 25
 379 600 l 25xe4
 341 600 l 25
 341 500 l 25xe8
 304 500 l 25
 304 400 l 25xf0
 379 400 l 25
 379 100 l 25xe4
 341 100 l 25
 341 0 l 25xe8
 41 0 l 25
 41 100 l 25
 304 100 l 25
 304 300 l 25xe4
 154 300 l 25
 154 400 l 25
 229 400 l 25
 229 500 l 25xf0
 266 500 l 25
 266 600 l 25
 41 601 l 25
 41 700 l 29xe8
EndSplineSet
EndChar

StartChar: four
Encoding: 52 52 15
Width: 420
Flags: HW
HStem: 0 21G<266 379> 100 100<154 266> 600 100<341 379>
VStem: 41 112<200 300> 79 112<300 400> 154 112<400 500> 266 112<0 100 200 300 600 700>
LayerCount: 2
Back
Fore
SplineSet
266 700 m 29xea
 379 700 l 25
 379 600 l 25xea
 341 600 l 25
 341 500 l 25
 266 500 l 25
 266 400 l 25xe4
 191 400 l 25
 191 300 l 25xe8
 154 300 l 25
 154 200 l 25
 266 200 l 25
 266 300 l 25
 379 300 l 25
 379 0 l 25
 266 0 l 25
 266 100 l 25
 41 100 l 25
 41 300 l 25xf2
 79 300 l 25
 79 400 l 25xe8
 154 400 l 25
 154 500 l 25xe4
 191 500 l 25
 191 600 l 25
 266 600 l 25
 266 700 l 29xea
EndSplineSet
EndChar

StartChar: five
Encoding: 53 53 16
Width: 420
Flags: HW
HStem: 0 100<116 266> 100 100<41 79> 300 100<116 266> 600 100<116 341>
VStem: 41 75<100 200 400 600> 266 112<100 300>
LayerCount: 2
Back
Fore
SplineSet
341 700 m 29xbc
 341 600 l 25
 116 600 l 25
 116 400 l 25
 341 400 l 25
 341 300 l 25
 379 300 l 25
 379 100 l 25
 341 100 l 25x7c
 341 0 l 25
 79 0 l 25xbc
 79 100 l 25
 41 100 l 25
 41 200 l 25
 116 200 l 25x7c
 116 100 l 25
 266 100 l 25
 266 300 l 25
 41 300 l 25
 41 700 l 25
 341 700 l 29xbc
EndSplineSet
EndChar

StartChar: six
Encoding: 54 54 17
Width: 420
Flags: HW
HStem: 0 100<153 304> 300 100<191 304> 600 100<229 266>
VStem: 41 112<100 300> 79 112<400 500> 116 112<500 600> 154 112<600 700> 304 75<100 300>
CounterMasks: 1 e0
LayerCount: 2
Back
Fore
SplineSet
304 300 m 29xf1
 153 300 l 25
 153 100 l 25
 304 100 l 25
 304 300 l 29xf1
266 700 m 25xe3
 266 600 l 25xe3
 229 600 l 25
 229 500 l 25xe5
 191 500 l 25
 191 400 l 25
 341 400 l 25
 341 300 l 25
 379 300 l 25
 379 100 l 25
 341 100 l 25
 341 0 l 25
 79 0 l 25
 79 100 l 25xe9
 41 100 l 25
 41 400 l 25xf1
 79 400 l 25
 79 500 l 25xe9
 116 500 l 25
 116 600 l 25xe5
 154 600 l 25
 154 700 l 25
 266 700 l 25xe3
EndSplineSet
EndChar

StartChar: seven
Encoding: 55 55 18
Width: 420
Flags: HW
HStem: 0 100<60 98> 600 100<22 248 360 398>
VStem: 60 112<0 100> 98 112<100 200> 135 112<200 300> 172 112<300 400> 210 112<400 500> 248 112<500 600>
LayerCount: 2
Back
Fore
SplineSet
22 700 m 1xc1
 398 700 l 25
 398 600 l 25
 360 600 l 25
 360 500 l 25xc1
 322 500 l 25
 322 400 l 25xc2
 285 400 l 25
 285 300 l 25xc4
 248 300 l 25
 248 200 l 25xc8
 210 200 l 25
 210 100 l 25xd0
 172 100 l 25
 172 0 l 25
 60 0 l 25
 60 100 l 25xe0
 98 100 l 25
 98 200 l 25xd0
 135 200 l 25
 135 300 l 25xc8
 172 300 l 25
 172 400 l 25xc4
 210 400 l 25
 210 500 l 25xc2
 248 500 l 25
 248 600 l 1
 22 600 l 25
 22 700 l 1xc1
EndSplineSet
EndChar

StartChar: eight
Encoding: 56 56 19
Width: 420
Flags: HW
HStem: 0 100<154 266> 300 100<154 266> 600 100<154 266>
VStem: 41 112<100 300 400 600> 266 112<100 300 400 600>
CounterMasks: 1 e0
LayerCount: 2
Back
Fore
SplineSet
154 100 m 29
 266 100 l 25
 266 300 l 25
 154 300 l 25
 154 100 l 29
154 600 m 25
 154 400 l 25
 266 400 l 25
 266 600 l 25
 154 600 l 25
79 700 m 25
 341 700 l 25
 341 600 l 25
 379 600 l 25
 379 400 l 25
 304 400 l 25
 304 300 l 25
 379 300 l 25
 379 100 l 25
 341 100 l 25
 341 0 l 25
 79 0 l 25
 79 100 l 25
 41 100 l 25
 41 300 l 25
 116 300 l 25
 116 400 l 25
 41 400 l 25
 41 600 l 25
 79 600 l 25
 79 700 l 25
EndSplineSet
EndChar

StartChar: nine
Encoding: 57 57 20
Width: 420
Flags: HW
HStem: 0 100<154 191> 300 100<116 229> 600 100<116 266>
VStem: 41 75<400 600> 154 112<0 100> 191 112<100 200> 229 112<200 300> 266 112<400 600>
CounterMasks: 1 e0
LayerCount: 2
Back
Fore
SplineSet
116 600 m 29xf1
 116 400 l 25
 266 400 l 25
 266 600 l 25
 116 600 l 29xf1
79 600 m 25
 79 700 l 25
 341 700 l 25
 341 600 l 25xf2
 379 600 l 25
 379 300 l 25xf1
 340 300 l 25
 341 200 l 25xf2
 304 200 l 25
 304 100 l 25xf4
 266 100 l 25
 266 0 l 25
 154 0 l 25
 154 100 l 25xf8
 191 100 l 25
 191 200 l 25xf4
 229 200 l 25
 229 300 l 25xf2
 79 300 l 25
 79 400 l 25
 41 400 l 25
 41 600 l 25
 79 600 l 25
EndSplineSet
EndChar

StartChar: colon
Encoding: 58 58 21
Width: 420
Flags: HW
HStem: 0 21G<172 248> 480 20G<172 247>
VStem: 172 75<0 200 300 500>
LayerCount: 2
Back
Fore
SplineSet
172 200 m 29
 248 200 l 25
 248 0 l 25
 172 0 l 25
 172 200 l 29
172 500 m 25
 247 500 l 25
 248 300 l 25
 172 300 l 25
 172 500 l 25
EndSplineSet
EndChar

StartChar: semicolon
Encoding: 59 59 22
Width: 420
Flags: HW
HStem: -200 100<154 191> 480 20G<191 266>
VStem: 154 75<-200 -100> 191 75<-100 100 300 500>
LayerCount: 2
Back
Fore
SplineSet
191 100 m 1xd0
 266 100 l 25
 266 -100 l 1xd0
 229 -100 l 25
 229 -200 l 25
 154 -200 l 25
 154 -100 l 25xe0
 191 -100 l 25
 191 100 l 1xd0
191 500 m 25
 266 500 l 25
 266 300 l 25
 191 300 l 25
 191 500 l 25
EndSplineSet
EndChar

StartChar: less
Encoding: 60 60 23
Width: 420
Flags: HW
HStem: 0 100<304 379> 100 100<229 266> 200 100<154 191> 300 100<41 116> 400 100<154 191> 500 100<229 266> 600 100<304 379>
VStem: 41 112<300 400> 116 112<200 300 400 500> 191 112<100 200 500 600> 266 112<0 100 600 700>
LayerCount: 2
Back
Fore
SplineSet
266 700 m 29x0220
 379 700 l 25
 379 600 l 25x0220
 304 600 l 25x0240
 304 500 l 25x0440
 229 500 l 25x0480
 229 400 l 25x0880
 154 400 l 25
 154 300 l 25x29
 229 300 l 25
 229 200 l 25x5080
 304 200 l 25
 304 100 l 25xa040
 379 100 l 25
 379 0 l 25
 266 0 l 25xa020
 266 100 l 25x4020
 191 100 l 25x4040
 191 200 l 25x2040
 116 200 l 25x2080
 116 300 l 25x1080
 41 300 l 25
 41 400 l 25x11
 116 400 l 25
 116 500 l 25x1480
 191 500 l 25
 191 600 l 25x0a40
 266 600 l 25x0420
 266 700 l 29x0220
EndSplineSet
EndChar

StartChar: equal
Encoding: 61 61 24
Width: 420
Flags: HW
HStem: 200 100<60 360> 400 100<60 360>
LayerCount: 2
Back
Fore
SplineSet
60 500 m 29
 360 500 l 25
 360 400 l 25
 60 400 l 25
 60 500 l 29
60 300 m 25
 360 300 l 25
 360 200 l 25
 60 200 l 25
 60 300 l 25
EndSplineSet
EndChar

StartChar: greater
Encoding: 62 62 25
Width: 420
Flags: HW
HStem: 0 100<41 116> 100 100<154 191> 200 100<229 266> 300 100<304 379> 400 100<229 266> 500 100<154 191> 600 100<41 116>
VStem: 41 112<0 100 600 700> 116 112<100 200 500 600> 191 112<200 300 400 500> 266 112<300 400>
LayerCount: 2
Back
Fore
SplineSet
41 600 m 29x03
 41 700 l 25
 154 700 l 25x03
 154 600 l 25x05
 229 600 l 25
 229 500 l 25x0a80
 304 500 l 25
 304 400 l 25x1440
 379 400 l 25
 379 300 l 25x1420
 304 300 l 25x1440
 304 200 l 25x2040
 229 200 l 25x2080
 229 100 l 25x4080
 154 100 l 25x41
 154 0 l 25
 41 0 l 25
 41 100 l 25x81
 116 100 l 25
 116 200 l 25xa080
 191 200 l 25
 191 300 l 25x5040
 266 300 l 25
 266 400 l 25x2820
 191 400 l 25x2840
 191 500 l 25x0440
 116 500 l 25x0480
 116 600 l 25x0280
 41 600 l 29x03
EndSplineSet
EndChar

StartChar: question
Encoding: 63 63 26
Width: 420
Flags: HW
HStem: 0 100<191 266> 200 100<191 266> 300 100<266 304> 600 100<116 304>
VStem: 41 75<400 600> 191 75<0 100 200 300> 266 75<300 400> 304 75<400 600>
LayerCount: 2
Back
Fore
SplineSet
191 300 m 1xdc
 266 300 l 1
 266 200 l 1
 191 200 l 1
 191 300 l 1xdc
266 0 m 25
 191 0 l 1
 191 100 l 25
 266 100 l 1
 266 0 l 25
41 600 m 25
 79 600 l 25
 79 700 l 25
 341 700 l 25
 341 600 l 25xba
 379 600 l 25
 379 400 l 25xb9
 340 400 l 25
 341 300 l 25xba
 266 300 l 25xdc
 266 400 l 25xba
 304 400 l 25
 304 600 l 25
 116 600 l 25
 116 400 l 25
 41 400 l 25xb9
 41 600 l 25
EndSplineSet
EndChar

StartChar: at
Encoding: 64 64 27
Width: 420
Flags: HW
HStem: -100 100<135 360> 100 100<248 322> 400 100<248 322> 600 100<135 322>
VStem: 22 75<100 500> 60 75<0 100 500 600> 172 75<200 400> 210 188<100 200 400 500> 322 75<200 400 500 600>
LayerCount: 2
Back
Fore
SplineSet
248 400 m 29xf280
 248 200 l 25
 322 200 l 25
 322 400 l 25
 248 400 l 29xf280
98 600 m 25xf8
 98 700 l 25
 360 700 l 25
 360 600 l 25
 398 600 l 25xf880
 398 100 l 25
 210 100 l 25
 210 200 l 25xf1
 172 200 l 25
 172 400 l 25xf2
 210 400 l 25
 210 500 l 25xf1
 322 500 l 25
 322 600 l 25
 135 600 l 25
 135 500 l 25xf480
 98 500 l 25
 98 100 l 25xf8
 135 100 l 25
 135 0 l 25xf4
 360 0 l 25
 360 -100 l 25
 98 -100 l 25
 98 0 l 25xf8
 60 0 l 25
 60 100 l 25xf4
 22 100 l 25
 22 500 l 25xf8
 60 500 l 25
 60 600 l 25xf4
 98 600 l 25xf8
EndSplineSet
EndChar

StartChar: A
Encoding: 65 65 28
Width: 420
Flags: HW
HStem: 0 21G<22 98 322 398> 200 100<98 322> 600 100<172 248>
VStem: 22 75<0 200 300 400> 60 75<400 500> 98 75<500 600> 248 75<500 600> 285 75<400 500> 322 75<0 200 300 400>
LayerCount: 2
Back
Fore
SplineSet
98 400 m 29xf0
 98 300 l 25
 322 300 l 25
 322 400 l 25xf080
 285 400 l 25
 285 500 l 25xe1
 248 500 l 25
 248 600 l 25
 172 600 l 25
 172 500 l 25xe6
 135 500 l 25
 135 400 l 25xe8
 98 400 l 29xf0
98 0 m 25
 22 0 l 25
 22 400 l 25xf080
 60 400 l 25
 60 500 l 25xe8
 98 500 l 25
 98 600 l 25xe4
 135 600 l 25
 135 700 l 25
 284 700 l 25
 285 600 l 25xe9
 322 600 l 25
 322 500 l 25xe2
 360 500 l 25
 360 400 l 25xe1
 398 400 l 25
 398 0 l 25
 322 0 l 25
 322 200 l 25
 98 200 l 25
 98 0 l 25
EndSplineSet
EndChar

StartChar: B
Encoding: 66 66 29
Width: 420
Flags: HW
HStem: 0 100<116 304> 300 100<116 304> 600 100<116 304>
VStem: 41 300<0 100 300 400 600 700> 41 75<100 300 400 600> 304 75<100 300 400 600>
CounterMasks: 1 e0
LayerCount: 2
Back
Fore
SplineSet
116 600 m 29xec
 116 400 l 25
 304 400 l 25
 304 600 l 25
 116 600 l 29xec
116 300 m 25
 116 100 l 25
 304 100 l 25
 304 300 l 25
 116 300 l 25
41 0 m 25xf0
 41 700 l 25
 341 700 l 25
 341 600 l 25xf0
 379 600 l 25
 379 400 l 25xe4
 341 400 l 25
 341 300 l 25xf0
 379 300 l 25
 379 100 l 25xe4
 341 100 l 25
 341 0 l 25
 41 0 l 25xf0
EndSplineSet
EndChar

StartChar: C
Encoding: 67 67 30
Width: 420
Flags: HW
HStem: 0 100<154 304> 100 100<341 379> 500 100<341 379> 600 100<154 304>
VStem: 41 75<200 500> 79 75<100 200 500 600> 116 225<0 100 600 700> 304 75<100 200 500 600>
LayerCount: 2
Back
Fore
SplineSet
116 700 m 29x12
 341 700 l 25x12
 341 600 l 25x22
 379 600 l 25
 379 500 l 25
 304 500 l 25x21
 304 600 l 25
 154 600 l 25x15
 154 500 l 25x25
 116 500 l 25
 116 200 l 25x68
 154 200 l 25x64
 154 100 l 25
 304 100 l 25x85
 304 200 l 25
 379 200 l 25
 379 100 l 25x45
 341 100 l 25x42
 341 0 l 25
 116 0 l 25x82
 116 100 l 25x42
 79 100 l 25
 79 200 l 25x44
 41 200 l 25
 41 500 l 25x68
 79 500 l 25x64
 79 600 l 25x14
 116 600 l 25
 116 700 l 29x12
EndSplineSet
EndChar

StartChar: D
Encoding: 68 68 31
Width: 420
Flags: HW
HStem: 0 100<116 266> 600 100<116 266>
VStem: 41 75<100 600> 266 75<100 200 500 600> 304 75<200 500>
LayerCount: 2
Back
Fore
SplineSet
116 600 m 29xf0
 116 100 l 25
 266 100 l 25
 266 200 l 25xf0
 304 200 l 25
 304 500 l 25xe8
 266 500 l 25
 266 600 l 25
 116 600 l 29xf0
41 700 m 25
 304 700 l 25
 304 600 l 25xe8
 341 600 l 25
 341 500 l 25xf0
 379 500 l 25
 379 200 l 25xe8
 341 200 l 25
 341 100 l 25xf0
 304 100 l 25
 304 0 l 25xe8
 41 0 l 25
 41 700 l 25
EndSplineSet
EndChar

StartChar: E
Encoding: 69 69 32
Width: 420
Flags: HW
HStem: 0 100<116 379> 300 100<116 304> 600 100<116 379>
VStem: 41 75<100 300 400 600>
CounterMasks: 1 e0
LayerCount: 2
Back
Fore
SplineSet
379 600 m 29
 116 600 l 25
 116 400 l 25
 304 400 l 25
 304 300 l 25
 116 300 l 25
 116 100 l 25
 379 100 l 25
 379 0 l 25
 41 0 l 25
 41 700 l 25
 379 700 l 25
 379 600 l 29
EndSplineSet
EndChar

StartChar: F
Encoding: 70 70 33
Width: 420
Flags: HW
HStem: 0 21G<41 116> 300 100<116 304> 600 100<116 379>
VStem: 41 75<0 300 400 600>
LayerCount: 2
Back
Fore
SplineSet
116 0 m 29
 41 0 l 25
 41 700 l 25
 379 700 l 25
 379 600 l 25
 116 600 l 25
 116 400 l 25
 304 400 l 25
 304 300 l 25
 116 300 l 25
 116 0 l 29
EndSplineSet
EndChar

StartChar: G
Encoding: 71 71 34
Width: 420
Flags: HW
HStem: 0 100<116 304> 200 100<191 304> 500 100<341 379> 600 100<116 304>
VStem: 41 75<100 600> 304 75<100 200 500 600>
LayerCount: 2
Back
Fore
SplineSet
304 600 m 29xdc
 116 600 l 25
 116 100 l 25
 304 100 l 25
 304 200 l 25
 191 200 l 25
 191 300 l 25
 379 300 l 25
 379 100 l 25
 341 100 l 25
 341 0 l 25
 79 0 l 25
 79 100 l 25
 41 100 l 25
 41 600 l 25
 79 600 l 25
 79 700 l 25
 341 700 l 25xdc
 341 600 l 25
 379 600 l 25
 379 500 l 25
 304 500 l 25xec
 304 600 l 29xdc
EndSplineSet
EndChar

StartChar: H
Encoding: 72 72 35
Width: 420
Flags: HW
HStem: 0 21G<41 116 304 379> 300 100<116 304> 680 20G<41 116 304 379>
VStem: 41 75<0 300 400 700> 304 75<0 300 400 700>
LayerCount: 2
Back
Fore
SplineSet
41 700 m 29
 116 700 l 25
 116 400 l 25
 304 400 l 25
 304 700 l 25
 379 700 l 25
 379 0 l 25
 304 0 l 25
 304 300 l 25
 116 300 l 25
 116 0 l 25
 41 0 l 25
 41 700 l 29
EndSplineSet
EndChar

StartChar: I
Encoding: 73 73 36
Width: 420
Flags: HW
HStem: 0 100<60 172 248 360> 600 100<60 172 248 360>
VStem: 172 75<100 600>
LayerCount: 2
Back
Fore
SplineSet
60 700 m 29
 360 700 l 25
 360 600 l 25
 248 600 l 25
 248 100 l 25
 360 100 l 25
 360 0 l 25
 60 0 l 25
 60 100 l 25
 172 100 l 25
 172 600 l 25
 60 600 l 25
 60 700 l 29
EndSplineSet
EndChar

StartChar: J
Encoding: 74 74 37
Width: 420
Flags: HW
HStem: 0 100<116 304> 100 100<41 79> 680 20G<304 379>
VStem: 41 75<100 200> 304 75<100 700>
LayerCount: 2
Back
Fore
SplineSet
304 700 m 29xb8
 379 700 l 25
 379 100 l 25
 341 100 l 25x78
 341 0 l 25
 79 0 l 25xb8
 79 100 l 25
 41 100 l 25
 41 200 l 25
 116 200 l 25x78
 116 100 l 25
 304 100 l 25
 304 700 l 29xb8
EndSplineSet
EndChar

StartChar: K
Encoding: 75 75 38
Width: 420
Flags: HW
HStem: 0 100<304 379> 200 100<191 229> 300 100<116 154> 400 100<191 229> 600 100<304 379>
VStem: 41 75<0 300 400 700> 154 112<200 300 400 500> 229 75<100 200 500 600> 266 112<0 100 600 700>
LayerCount: 2
Back
Fore
SplineSet
41 700 m 29xae
 116 700 l 25
 116 400 l 25
 154 400 l 25xae
 154 500 l 25x9e
 229 500 l 25
 229 600 l 25x9d
 266 600 l 25
 266 700 l 25
 379 700 l 25
 379 600 l 25x9c80
 304 600 l 25
 304 500 l 25x9d
 266 500 l 25
 266 400 l 25
 191 400 l 25
 191 300 l 25xde
 266 300 l 25xae
 266 200 l 25xce
 304 200 l 25
 304 100 l 25xcd
 379 100 l 25
 379 0 l 25
 266 0 l 25
 266 100 l 25xcc80
 229 100 l 25
 229 200 l 25xcd
 154 200 l 25xce
 154 300 l 25
 116 300 l 25
 116 0 l 25
 41 0 l 25
 41 700 l 29xae
EndSplineSet
EndChar

StartChar: L
Encoding: 76 76 39
Width: 420
Flags: HW
HStem: 0 100<116 379> 680 20G<41 116>
VStem: 41 75<100 700>
LayerCount: 2
Back
Fore
SplineSet
41 700 m 29
 116 700 l 25
 116 100 l 25
 379 100 l 25
 379 0 l 25
 41 0 l 25
 41 700 l 29
EndSplineSet
EndChar

StartChar: M
Encoding: 77 77 40
Width: 420
Flags: HW
HStem: 0 21G<22 98 322 398> 680 20G<22 135 285 398>
VStem: 22 112<600 700> 22 75<0 500> 172 75<300 400> 285 112<600 700> 322 75<0 500>
LayerCount: 2
Back
Fore
SplineSet
98 0 m 29xd8
 22 0 l 25xd8
 22 700 l 25
 135 700 l 25
 135 600 l 25
 172 600 l 25
 172 500 l 25
 248 500 l 25
 248 600 l 25
 285 600 l 25
 285 700 l 25
 398 700 l 25xec
 398 0 l 25
 322 0 l 25
 322 500 l 25xca
 285 500 l 25
 285 400 l 25
 248 400 l 25
 248 300 l 25
 172 300 l 25
 172 400 l 25
 135 400 l 25
 135 500 l 25xec
 98 500 l 25
 98 0 l 29xd8
EndSplineSet
EndChar

StartChar: N
Encoding: 78 78 41
Width: 420
Flags: HW
HStem: 0 21G<22 98 285 398> 680 20G<22 135 322 398>
VStem: 22 112<600 700> 22 75<0 500> 135 75<400 500> 172 75<300 400> 210 75<200 300> 285 112<0 100> 322 75<200 700>
LayerCount: 2
Back
Fore
SplineSet
22 700 m 29xe0
 135 700 l 25
 135 600 l 25
 172 600 l 25
 172 500 l 25xe4
 210 500 l 25
 210 400 l 25xc8
 248 400 l 25
 248 300 l 25xc4
 285 300 l 25
 285 200 l 25
 322 200 l 25
 322 700 l 25
 398 700 l 25xc280
 398 0 l 25
 285 0 l 25
 285 100 l 25
 248 100 l 25
 248 200 l 25xc5
 210 200 l 25
 210 300 l 25xc2
 172 300 l 25
 172 400 l 25xc4
 135 400 l 25
 135 500 l 25
 98 500 l 25
 98 0 l 25
 22 0 l 25xd8
 22 700 l 29xe0
EndSplineSet
EndChar

StartChar: O
Encoding: 79 79 42
Width: 420
Flags: HW
HStem: 0 100<135 285> 600 100<135 285>
VStem: 22 75<200 500> 60 75<100 200 500 600> 98 225<0 100 600 700> 285 75<100 200 500 600> 322 75<200 500>
LayerCount: 2
Back
Fore
SplineSet
285 100 m 29xd4
 285 200 l 25xd4
 322 200 l 25
 322 500 l 25xc2
 285 500 l 25
 285 600 l 25
 135 600 l 25
 135 500 l 25xd4
 98 500 l 25
 98 200 l 25xe0
 135 200 l 25
 135 100 l 25
 285 100 l 29xd4
322 0 m 25xc8
 98 0 l 25
 98 100 l 25xc8
 60 100 l 25
 60 200 l 25xd0
 22 200 l 25
 22 500 l 25xe0
 60 500 l 25
 60 600 l 25xd0
 98 600 l 25
 98 700 l 25
 322 700 l 25
 322 600 l 25xc8
 360 600 l 25
 360 500 l 25xc4
 398 500 l 25
 398 200 l 25xc2
 360 200 l 25
 360 100 l 25xc4
 322 100 l 25
 322 0 l 25xc8
EndSplineSet
EndChar

StartChar: P
Encoding: 80 80 43
Width: 420
Flags: HW
HStem: 0 21G<41 116> 300 100<116 304> 600 100<116 304>
VStem: 41 75<0 300 400 600> 304 75<400 600>
LayerCount: 2
Back
Fore
SplineSet
116 600 m 29
 116 400 l 25
 304 400 l 25
 304 600 l 25
 116 600 l 29
41 700 m 25
 341 700 l 25
 341 650 l 25
 379 650 l 25
 379 400 l 25
 341 400 l 25
 341 300 l 25
 116 300 l 25
 116 0 l 25
 41 0 l 25
 41 700 l 25
EndSplineSet
EndChar

StartChar: Q
Encoding: 81 81 44
Width: 420
Flags: HW
HStem: -200 100<322 398> 0 100<98 210> 600 100<98 322>
VStem: 22 75<100 600> 210 75<100 200> 248 75<-100 0> 285 112<-200 -100> 322 75<100 600>
LayerCount: 2
Back
Fore
SplineSet
98 600 m 29xf9
 98 100 l 25
 210 100 l 25
 210 200 l 25
 285 200 l 25
 285 100 l 25
 322 100 l 25
 322 600 l 25
 98 600 l 29xf9
60 700 m 25
 360 700 l 25
 360 600 l 25
 398 600 l 25
 398 100 l 25xf1
 360 100 l 25
 360 0 l 25
 322 0 l 25
 322 -100 l 25xf4
 398 -100 l 25
 398 -200 l 25
 285 -200 l 25
 285 -100 l 25xf2
 248 -100 l 25
 248 0 l 25xf4
 60 0 l 25
 60 100 l 25
 22 100 l 25
 22 600 l 25
 60 600 l 25
 60 700 l 25
EndSplineSet
EndChar

StartChar: R
Encoding: 82 82 45
Width: 420
Flags: HW
HStem: 0 100<304 379> 300 100<116 191 266 304> 600 100<116 304>
VStem: 41 75<0 300 400 600> 191 75<200 300> 229 75<100 200> 266 112<0 100> 304 75<400 600>
CounterMasks: 1 e0
LayerCount: 2
Back
Fore
SplineSet
116 600 m 29xf1
 116 400 l 25
 304 400 l 25
 304 600 l 25
 116 600 l 29xf1
41 700 m 25
 341 700 l 25
 341 650 l 25
 379 650 l 25
 379 400 l 25
 341 400 l 25
 341 300 l 25
 266 300 l 25
 266 200 l 25xf9
 304 200 l 25
 304 100 l 25xf4
 379 100 l 25
 379 0 l 25
 266 0 l 25
 266 100 l 25xf2
 229 100 l 25
 229 200 l 25xf4
 191 200 l 25
 191 300 l 25xf8
 116 300 l 25
 116 0 l 25
 41 0 l 25
 41 700 l 25
EndSplineSet
EndChar

StartChar: S
Encoding: 83 83 46
Width: 420
Flags: HW
HStem: 0 100<79 304> 300 100<116 304> 600 100<116 341>
VStem: 41 75<400 600> 79 262<0 100 300 400 600 700> 304 75<100 300>
CounterMasks: 1 e0
LayerCount: 2
Back
Fore
SplineSet
79 600 m 29xe8
 79 700 l 25
 341 700 l 25
 341 600 l 25xe8
 116 600 l 25
 116 400 l 25xf0
 341 400 l 25
 341 300 l 25xe8
 379 300 l 25
 379 100 l 25xe4
 341 100 l 25
 341 0 l 25
 79 0 l 25
 79 100 l 25xe8
 304 100 l 25
 304 300 l 25xe4
 79 300 l 25
 79 400 l 25xe8
 41 400 l 25
 41 600 l 25xf0
 79 600 l 29xe8
EndSplineSet
EndChar

StartChar: T
Encoding: 84 84 47
Width: 420
Flags: HW
HStem: 0 21G<172 248> 600 100<22 172 248 398>
VStem: 172 75<0 600>
LayerCount: 2
Back
Fore
SplineSet
22 700 m 1
 398 700 l 5
 398 600 l 1
 248 600 l 1
 248 0 l 25
 172 0 l 25
 172 600 l 1
 22 600 l 1
 22 700 l 1
EndSplineSet
EndChar

StartChar: U
Encoding: 85 85 48
Width: 420
Flags: HW
HStem: 0 100<116 304> 680 20G<41 116 304 379>
VStem: 41 75<100 700> 304 75<100 700>
LayerCount: 2
Back
Fore
SplineSet
41 700 m 29
 116 700 l 25
 116 100 l 25
 304 100 l 25
 304 700 l 25
 379 700 l 25
 379 100 l 25
 341 100 l 25
 341 0 l 25
 79 0 l 25
 79 100 l 25
 41 100 l 25
 41 700 l 29
EndSplineSet
EndChar

StartChar: V
Encoding: 86 86 49
Width: 420
Flags: HW
HStem: 0 21G<172 248> 680 20G<22 98 322 398>
VStem: 22 75<500 700> 60 75<300 500> 98 75<200 300> 172 75<0 100> 248 75<200 300> 285 75<300 500> 322 75<500 700>
LayerCount: 2
Back
Fore
SplineSet
22 700 m 29xe0
 98 700 l 25
 98 500 l 25xe0
 135 500 l 25
 135 300 l 25xd0
 172 300 l 25
 172 200 l 25
 248 200 l 25
 248 300 l 25xca
 285 300 l 25
 285 500 l 25xc1
 322 500 l 25
 322 700 l 25
 398 700 l 25
 398 500 l 25xc080
 360 500 l 25
 360 300 l 25xc1
 322 300 l 25
 322 200 l 25xc2
 285 200 l 25
 285 100 l 25
 248 100 l 25
 248 0 l 25
 172 0 l 25
 172 100 l 25
 135 100 l 25
 135 200 l 25xd5
 98 200 l 25
 98 300 l 25xc8
 60 300 l 25
 60 500 l 25xd0
 22 500 l 25
 22 700 l 29xe0
EndSplineSet
EndChar

StartChar: W
Encoding: 87 87 50
Width: 420
Flags: HW
HStem: 0 21G<60 135 285 360> 680 20G<22 98 322 398>
VStem: 22 75<200 700> 60 112<100 200> 60 75<0 100> 172 75<300 400> 248 112<100 200> 285 75<0 100> 322 75<200 700>
LayerCount: 2
Back
Fore
SplineSet
22 700 m 29xe0
 98 700 l 25
 98 200 l 25xe0
 135 200 l 25
 135 300 l 25
 172 300 l 25
 172 400 l 25
 248 400 l 25
 248 300 l 25
 285 300 l 25
 285 200 l 25xcd
 322 200 l 25
 322 700 l 25
 398 700 l 25
 398 200 l 25xc080
 360 200 l 25xc2
 360 0 l 25
 285 0 l 25
 285 100 l 25xc1
 248 100 l 25
 248 200 l 25
 172 200 l 25
 172 100 l 25xd2
 135 100 l 25
 135 0 l 25
 60 0 l 25xc8
 60 200 l 25xd0
 22 200 l 25
 22 700 l 29xe0
EndSplineSet
EndChar

StartChar: X
Encoding: 88 88 51
Width: 420
Flags: HW
HStem: 0 100<60 98 322 360> 600 100<60 98 322 360>
VStem: 60 75<0 100 600 700> 98 75<100 200 500 600> 135 150<200 300 400 500> 248 75<100 200 500 600> 285 75<0 100 600 700>
LayerCount: 2
Back
Fore
SplineSet
60 700 m 29xe0
 135 700 l 25
 135 600 l 25xe0
 172 600 l 25
 172 500 l 25
 248 500 l 25
 248 600 l 25xd4
 285 600 l 25
 285 700 l 25
 360 700 l 25
 360 600 l 25xc2
 322 600 l 25
 322 500 l 25xc4
 285 500 l 25
 285 400 l 25xc8
 248 400 l 25
 248 300 l 25xc4
 285 300 l 25
 285 200 l 25xc8
 322 200 l 25
 322 100 l 25xc4
 360 100 l 25
 360 0 l 25
 285 0 l 25
 285 100 l 25xc2
 248 100 l 25
 248 200 l 25
 172 200 l 25
 172 100 l 25xd4
 135 100 l 25
 135 0 l 25
 60 0 l 25
 60 100 l 25xe0
 98 100 l 25
 98 200 l 25xd0
 135 200 l 25
 135 300 l 25xc8
 172 300 l 25
 172 400 l 25xd0
 135 400 l 25
 135 500 l 25xc8
 98 500 l 25
 98 600 l 25xd0
 60 600 l 25
 60 700 l 29xe0
EndSplineSet
EndChar

StartChar: Y
Encoding: 89 89 52
Width: 420
Flags: HW
HStem: 0 21G<172 248> 600 100<22 60 360 398>
VStem: 22 75<600 700> 60 75<500 600> 98 75<400 500> 172 75<0 300> 248 75<400 500> 285 75<500 600> 322 75<600 700>
LayerCount: 2
Back
Fore
SplineSet
22 700 m 29xe0
 98 700 l 25
 98 600 l 25xe0
 135 600 l 25
 135 500 l 25xd0
 172 500 l 25
 172 400 l 25
 248 400 l 25
 248 500 l 25xca
 285 500 l 25
 285 600 l 25xc1
 322 600 l 25
 322 700 l 25
 398 700 l 25
 398 600 l 25xc080
 360 600 l 25
 360 500 l 25xc1
 322 500 l 25
 322 400 l 25xc2
 285 400 l 25
 285 300 l 25
 248 300 l 25
 248 0 l 25
 172 0 l 25
 172 300 l 25
 135 300 l 25
 135 400 l 25xd5
 98 400 l 25
 98 500 l 25xc8
 60 500 l 25
 60 600 l 25xd0
 22 600 l 25
 22 700 l 29xe0
EndSplineSet
EndChar

StartChar: Z
Encoding: 90 90 53
Width: 420
Flags: HW
HStem: 0 100<60 98 172 360> 600 100<60 248 322 360>
VStem: 98 75<100 200> 135 75<200 300> 172 75<300 400> 210 75<400 500> 248 75<500 600>
LayerCount: 2
Back
Fore
SplineSet
60 700 m 29xc2
 360 700 l 25
 360 600 l 25
 322 600 l 25
 322 500 l 25xc2
 285 500 l 25
 285 400 l 25xc4
 248 400 l 25
 248 300 l 25xc8
 210 300 l 25
 210 200 l 25xd0
 172 200 l 25
 172 100 l 25
 360 100 l 25
 360 0 l 25
 60 0 l 25
 60 100 l 25
 98 100 l 25
 98 200 l 25xe0
 135 200 l 25
 135 300 l 25xd0
 172 300 l 25
 172 400 l 25xc8
 210 400 l 25
 210 500 l 25xc4
 248 500 l 25
 248 600 l 25
 60 600 l 25
 60 700 l 29xc2
EndSplineSet
EndChar

StartChar: a
Encoding: 97 97 54
Width: 420
Flags: HW
HStem: 0 100<98 285 360 397> 100 100<22 60> 200 100<98 285> 400 100<60 285>
VStem: 22 75<100 200> 285 75<100 200 300 400>
LayerCount: 2
Back
Fore
SplineSet
98 200 m 29xbc
 98 100 l 25
 285 100 l 25
 285 200 l 25
 98 200 l 29xbc
60 500 m 25
 322 500 l 25
 322 400 l 25
 360 400 l 25
 360 100 l 25
 397 100 l 25
 398 0 l 25
 60 0 l 25xbc
 60 100 l 25
 22 100 l 25
 22 200 l 25
 60 200 l 25x5c
 60 300 l 25
 285 300 l 25
 285 400 l 25
 60 400 l 25
 60 500 l 25
EndSplineSet
EndChar

StartChar: b
Encoding: 98 98 55
Width: 420
Flags: HW
HStem: 0 100<116 304> 300 100<116 154> 400 100<154 304> 680 20G<41 116>
VStem: 41 112<300 400> 41 75<100 300 400 700> 304 75<100 400>
LayerCount: 2
Back
Fore
SplineSet
304 400 m 29xb6
 154 400 l 25
 154 300 l 25xda
 116 300 l 25xd6
 116 100 l 25
 304 100 l 25
 304 400 l 29xb6
41 700 m 25xb6
 116 700 l 25
 116 400 l 25xd6
 154 400 l 25xda
 154 500 l 25xba
 341 500 l 25
 341 400 l 25
 379 400 l 25
 379 100 l 25
 341 100 l 25
 341 0 l 25
 41 0 l 25
 41 700 l 25xb6
EndSplineSet
EndChar

StartChar: c
Encoding: 99 99 56
Width: 420
Flags: HW
HStem: 0 100<154 379> 200 100<41 79> 400 100<154 379>
VStem: 41 75<200 300> 79 75<100 200 300 400>
CounterMasks: 1 e0
LayerCount: 2
Back
Fore
SplineSet
116 500 m 29xf0
 379 500 l 25
 379 400 l 25
 154 400 l 25
 154 300 l 25xe8
 116 300 l 25
 116 200 l 25xf0
 154 200 l 25
 154 100 l 25xe8
 379 100 l 25
 379 0 l 25
 116 0 l 25
 116 100 l 25xf0
 79 100 l 25
 79 200 l 25xe8
 41 200 l 25
 41 300 l 25xf0
 79 300 l 25
 79 400 l 25xe8
 116 400 l 25
 116 500 l 29xf0
EndSplineSet
EndChar

StartChar: d
Encoding: 100 100 57
Width: 420
Flags: HW
HStem: 0 100<116 304> 300 100<266 304> 400 100<116 266> 680 20G<304 379>
VStem: 41 75<100 400> 266 112<300 400> 304 75<100 300 400 700>
LayerCount: 2
Back
Fore
SplineSet
116 100 m 29xbc
 304 100 l 25
 304 300 l 25xda
 266 300 l 25
 266 400 l 25xdc
 116 400 l 25
 116 100 l 29xbc
304 700 m 25
 379 700 l 25
 379 0 l 25xda
 79 0 l 25
 79 100 l 25
 41 100 l 25
 41 400 l 25
 79 400 l 25
 79 500 l 25
 266 500 l 25xbc
 266 400 l 25xdc
 304 400 l 25
 304 700 l 25
EndSplineSet
EndChar

StartChar: e
Encoding: 101 101 58
Width: 420
Flags: HW
HStem: 0 100<116 341> 200 100<116 304> 400 100<116 304>
VStem: 41 75<100 200 300 400> 304 75<300 400>
CounterMasks: 1 e0
LayerCount: 2
Back
Fore
SplineSet
116 400 m 1
 116 300 l 1
 304 300 l 1
 304 400 l 1
 116 400 l 1
79 400 m 1
 79 500 l 1
 340 500 l 1
 341 400 l 25
 379 400 l 25
 379 200 l 1
 116 200 l 1
 116 100 l 1
 341 100 l 1
 341 0 l 1
 79 0 l 1
 79 100 l 1
 41 100 l 1
 41 400 l 5
 79 400 l 1
EndSplineSet
EndChar

StartChar: f
Encoding: 102 102 59
Width: 420
Flags: HW
HStem: 0 21G<116 191> 300 100<41 116 191 304> 600 100<191 379>
VStem: 116 75<0 300 400 600>
LayerCount: 2
Back
Fore
SplineSet
154 600 m 29
 154 700 l 25
 379 700 l 25
 379 600 l 25
 191 600 l 25
 191 400 l 25
 304 400 l 25
 304 300 l 25
 191 300 l 25
 191 0 l 25
 116 0 l 25
 116 300 l 25
 41 300 l 25
 41 400 l 25
 116 400 l 25
 116 600 l 25
 154 600 l 29
EndSplineSet
EndChar

StartChar: g
Encoding: 103 103 60
Width: 420
Flags: HW
HStem: -200 100<79 304> 0 100<116 266> 100 100<266 304> 300 100<266 304> 400 100<116 266>
VStem: 41 75<100 400> 79 188<0 100 400 498> 266 112<100 200 300 400> 304 75<-100 100 200 300 400 500>
LayerCount: 2
Back
Fore
SplineSet
116 400 m 29x8c
 116 100 l 25xcc
 266 100 l 25xca
 266 200 l 25xa1
 304 200 l 25
 304 300 l 25xb080
 266 300 l 25xb1
 266 400 l 25xb2
 116 400 l 29x8c
79 400 m 25xaa
 79 498 l 25xaa
 266 500 l 25xa9
 266 400 l 25
 304 400 l 25x9280
 304 500 l 25
 379 500 l 25
 379 -100 l 25
 341 -100 l 25
 341 -200 l 25
 79 -200 l 25
 79 -100 l 25
 304 -100 l 25
 304 100 l 25xaa80
 266 100 l 25
 266 0 l 25
 79 0 l 25xc280
 79 100 l 25xa280
 41 100 l 25
 41 400 l 25xac
 79 400 l 25xaa
EndSplineSet
EndChar

StartChar: h
Encoding: 104 104 61
Width: 420
Flags: HW
HStem: 0 21G<41 116 304 379> 300 100<116 154> 400 100<154 304> 680 20G<41 116>
VStem: 41 112<300 400> 41 75<0 300 400 700> 304 75<0 400>
LayerCount: 2
Back
Fore
SplineSet
41 700 m 29xd6
 116 700 l 25
 116 400 l 25xd6
 154 400 l 25xda
 154 500 l 25
 341 500 l 25
 341 400 l 25
 379 400 l 25
 379 0 l 25
 304 0 l 25
 304 400 l 25xba
 154 400 l 25
 154 300 l 25xda
 116 300 l 25
 116 0 l 25
 41 0 l 25
 41 700 l 29xd6
EndSplineSet
EndChar

StartChar: i
Encoding: 105 105 62
Width: 420
Flags: HW
HStem: 0 100<98 172 247 322> 400 100<135 172> 600 100<135 248>
VStem: 135 112<400 500 600 700> 172 75<100 400>
LayerCount: 2
Back
Fore
SplineSet
135 500 m 1xf0
 248 500 l 25xf0
 247 100 l 25
 322 100 l 25
 322 0 l 25
 98 0 l 25
 98 100 l 25
 172 100 l 25
 172 400 l 1xe8
 135 400 l 29
 135 500 l 1xf0
135 700 m 25
 248 700 l 25
 248 600 l 25
 135 600 l 25
 135 700 l 25
EndSplineSet
EndChar

StartChar: j
Encoding: 106 106 63
Width: 420
Flags: HW
HStem: -200 100<116 304> -100 100<41 79> 400 100<266 304> 600 100<266 378>
VStem: 41 75<-100 0> 266 112<400 500 600 700> 304 75<-100 400>
LayerCount: 2
Back
Fore
SplineSet
266 400 m 29xbc
 266 500 l 25
 379 500 l 25xbc
 379 -100 l 25
 341 -100 l 25x7a
 341 -200 l 25
 79 -200 l 25xba
 79 -100 l 25
 41 -100 l 25
 41 0 l 25
 116 0 l 25x7a
 116 -100 l 25
 304 -100 l 25
 304 400 l 25xba
 266 400 l 29xbc
266 700 m 25
 378 700 l 25
 379 600 l 25
 266 600 l 25
 266 700 l 25
EndSplineSet
EndChar

StartChar: k
Encoding: 107 107 64
Width: 420
Flags: HW
HStem: 0 100<285 360> 200 100<135 210> 400 100<285 360> 680 20G<60 135>
VStem: 60 75<0 200 300 700> 210 75<100 200 300 400> 248 112<0 100 400 500>
LayerCount: 2
Back
Fore
SplineSet
60 700 m 29xfc
 135 700 l 25
 135 300 l 25
 210 300 l 25
 210 400 l 25xfc
 248 400 l 25
 248 500 l 25
 360 500 l 25
 360 400 l 25xfa
 285 400 l 25
 285 300 l 25xfc
 248 300 l 25
 248 200 l 25xfa
 285 200 l 25
 285 100 l 25xfc
 360 100 l 25
 360 0 l 25
 248 0 l 25
 248 100 l 25xfa
 210 100 l 25
 210 200 l 25
 135 200 l 25
 135 0 l 25
 60 0 l 25
 60 700 l 29xfc
EndSplineSet
EndChar

StartChar: l
Encoding: 108 108 65
Width: 420
Flags: HW
HStem: 0 100<60 172 248 360> 650 100<98 172>
VStem: 172 75<100 650>
LayerCount: 2
Back
Fore
SplineSet
98 750 m 29
 248 750 l 25
 248 100 l 25
 360 100 l 25
 360 0 l 25
 60 0 l 25
 60 100 l 25
 172 100 l 25
 172 650 l 25
 98 650 l 25
 98 750 l 29
EndSplineSet
EndChar

StartChar: m
Encoding: 109 109 66
Width: 420
Flags: HW
HStem: 0 21G<22 98 172 248 322 398> 400 100<98 172 248 322>
VStem: 22 75<0 400> 172 75<0 400> 322 75<0 400>
CounterMasks: 1 38
LayerCount: 2
Back
Fore
SplineSet
22 0 m 29
 22 500 l 25
 359 500 l 25
 360 400 l 25
 398 400 l 25
 398 0 l 25
 322 0 l 25
 322 400 l 25
 248 400 l 25
 248 0 l 25
 172 0 l 25
 172 400 l 25
 98 400 l 25
 98 0 l 25
 22 0 l 29
EndSplineSet
EndChar

StartChar: n
Encoding: 110 110 67
Width: 420
Flags: HW
HStem: 0 21G<41 116 304 379> 300 100<116 154> 400 100<154 304>
VStem: 41 112<300 400> 41 75<0 300 400 500> 304 75<0 400>
LayerCount: 2
Back
Fore
SplineSet
41 0 m 29xcc
 41 500 l 25
 116 500 l 25xac
 116 400 l 25xcc
 154 400 l 25xd4
 154 500 l 25
 341 500 l 25
 341 400 l 25
 379 400 l 25
 379 0 l 25
 304 0 l 25
 304 400 l 25xb4
 154 400 l 25
 154 300 l 25xd4
 116 300 l 25
 116 0 l 25
 41 0 l 29xcc
EndSplineSet
EndChar

StartChar: o
Encoding: 111 111 68
Width: 420
Flags: HW
HStem: 0 100<116 304> 400 100<116 304>
VStem: 41 75<100 400> 304 75<100 400>
LayerCount: 2
Back
Fore
SplineSet
116 400 m 29
 116 100 l 25
 304 100 l 25
 304 400 l 25
 116 400 l 29
79 500 m 25
 341 500 l 25
 341 400 l 25
 379 400 l 25
 379 100 l 25
 341 100 l 25
 341 0 l 25
 79 0 l 25
 79 100 l 25
 41 100 l 25
 41 400 l 25
 79 400 l 25
 79 500 l 25
EndSplineSet
EndChar

StartChar: p
Encoding: 112 112 69
Width: 420
Flags: HW
HStem: -200 21G<41 116> 0 100<154 304> 100 100<116 154> 300 100<116 154> 400 100<154 304>
VStem: 41 112<100 200 300 400> 41 75<-200 100 200 300 400 500> 154 188<0 100 400 500> 304 75<100 400>
LayerCount: 2
Back
Fore
SplineSet
154 300 m 29x9480
 116 300 l 25
 116 200 l 25xb2
 154 200 l 25xb4
 154 100 l 25
 304 100 l 25
 304 400 l 25xcc80
 154 400 l 25
 154 300 l 29x9480
41 500 m 25xaa
 116 500 l 25xaa
 116 400 l 25x92
 154 400 l 25x94
 154 500 l 25
 341 500 l 25
 341 400 l 25x89
 379 400 l 25
 379 100 l 25xa880
 341 100 l 25xa9
 341 0 l 25
 154 0 l 25xc1
 154 100 l 25xc4
 116 100 l 25
 116 -200 l 25
 41 -200 l 25
 41 500 l 25xaa
EndSplineSet
EndChar

StartChar: q
Encoding: 113 113 70
Width: 420
Flags: HW
HStem: -200 21G<304 379> 0 100<116 266> 100 100<266 304> 300 100<266 304> 400 100<116 266>
VStem: 41 75<100 400> 79 188<0 100 400 500> 266 112<100 200 300 400> 304 75<-200 100 200 300 400 500>
LayerCount: 2
Back
Fore
SplineSet
116 400 m 29x8c
 116 100 l 25xcc
 266 100 l 25xca
 266 200 l 25xa1
 304 200 l 25
 304 300 l 25xb080
 266 300 l 25xb1
 266 400 l 25xb2
 116 400 l 29x8c
79 500 m 25xaa
 266 500 l 25xaa
 266 400 l 25
 304 400 l 25x9280
 304 500 l 25
 379 500 l 25
 379 -200 l 25
 304 -200 l 25
 304 100 l 25xaa80
 266 100 l 25
 266 0 l 25
 79 0 l 25xc280
 79 100 l 25xa280
 41 100 l 25
 41 400 l 25xac
 79 400 l 25
 79 500 l 25xaa
EndSplineSet
EndChar

StartChar: r
Encoding: 114 114 71
Width: 420
Flags: HW
HStem: 0 21G<41 116> 300 100<116 191> 400 100<191 379>
VStem: 41 75<0 300 400 500>
LayerCount: 2
Back
Fore
SplineSet
41 0 m 29xd0
 41 500 l 25
 116 500 l 25xb0
 116 400 l 25
 191 400 l 25xd0
 191 500 l 25
 379 500 l 25
 379 400 l 25xb0
 191 400 l 25
 191 300 l 25
 116 300 l 25
 116 0 l 25
 41 0 l 29xd0
EndSplineSet
EndChar

StartChar: s
Encoding: 115 115 72
Width: 420
Flags: HW
HStem: 0 100<79 304> 100 100<341 379> 200 100<116 304> 300 100<41 79> 400 100<116 341>
VStem: 41 75<300 400> 79 262<0 100 200 300 400 500> 304 75<100 200>
LayerCount: 2
Back
Fore
SplineSet
341 400 m 1x0a
 116 400 l 1
 116 300 l 1x2c
 341 300 l 1
 341 200 l 25x52
 379 200 l 25
 379 100 l 25x51
 341 100 l 25x52
 341 0 l 1
 79 0 l 5
 79 100 l 1x82
 304 100 l 1
 304 200 l 1xa1
 79 200 l 1xa2
 79 300 l 1x12
 41 300 l 1
 41 400 l 1x14
 79 400 l 1x12
 79 500 l 1
 341 500 l 1
 341 400 l 1x0a
EndSplineSet
EndChar

StartChar: t
Encoding: 116 116 73
Width: 420
Flags: HW
HStem: 0 100<191 379> 400 100<41 116 191 304> 680 20G<116 191>
VStem: 116 75<100 400 500 700>
LayerCount: 2
Back
Fore
SplineSet
116 700 m 25
 191 700 l 25
 191 500 l 1
 304 500 l 5
 304 400 l 1
 191 400 l 1
 191 100 l 25
 379 100 l 25
 379 0 l 25
 154 0 l 25
 154 100 l 25
 116 100 l 25
 116 400 l 25
 41 400 l 25
 41 500 l 25
 116 500 l 25
 116 700 l 25
EndSplineSet
EndChar

StartChar: u
Encoding: 117 117 74
Width: 420
Flags: HW
HStem: 0 100<116 266> 100 100<266 304> 480 20G<41 116 304 379>
VStem: 41 75<100 500> 266 112<100 200> 304 75<0 100 200 500>
LayerCount: 2
Back
Fore
SplineSet
41 500 m 29x78
 116 500 l 25
 116 100 l 25
 266 100 l 25xb8
 266 200 l 25x78
 304 200 l 25x74
 304 500 l 25
 379 500 l 25
 379 0 l 25
 304 0 l 25xb4
 304 100 l 25x74
 266 100 l 25
 266 0 l 25
 79 0 l 25xb8
 79 100 l 25
 41 100 l 25
 41 500 l 29x78
EndSplineSet
EndChar

StartChar: v
Encoding: 118 118 75
Width: 420
Flags: HW
HStem: 0 21G<172 248> 400 100<22 60 360 398>
VStem: 22 75<400 500> 60 75<300 400> 98 75<200 300> 172 75<0 100> 248 75<200 300> 285 75<300 400> 322 75<400 500>
LayerCount: 2
Back
Fore
SplineSet
22 500 m 29xe0
 98 500 l 25
 98 400 l 25xe0
 135 400 l 25
 135 300 l 25xd0
 172 300 l 25
 172 200 l 25
 248 200 l 25
 248 300 l 25xca
 285 300 l 25
 285 400 l 25xc1
 322 400 l 25
 322 500 l 25
 398 500 l 25
 398 400 l 25xc080
 360 400 l 25
 360 300 l 25xc1
 322 300 l 25
 322 200 l 25xc2
 285 200 l 25
 285 100 l 25
 248 100 l 25
 248 0 l 25
 172 0 l 25
 172 100 l 25
 135 100 l 25
 135 200 l 25xd5
 98 200 l 25
 98 300 l 25xc8
 60 300 l 25
 60 400 l 25xd0
 22 400 l 25
 22 500 l 29xe0
EndSplineSet
EndChar

StartChar: w
Encoding: 119 119 76
Width: 420
Flags: HW
HStem: 0 100<135 172 248 285> 480 20G<22 98 322 398>
VStem: 22 75<200 500> 60 75<100 200> 172 75<100 400> 285 75<100 200> 322 75<200 500>
LayerCount: 2
Back
Fore
SplineSet
322 500 m 29xca
 398 500 l 25
 398 200 l 25xca
 360 200 l 25
 360 100 l 25xcc
 322 100 l 25
 322 0 l 25
 248 0 l 25
 248 100 l 25
 172 100 l 25
 172 0 l 25
 98 0 l 25
 98 100 l 25xea
 60 100 l 25
 60 200 l 25xd8
 22 200 l 25
 22 500 l 25
 98 500 l 25
 98 200 l 25xe8
 135 200 l 25
 135 100 l 25
 172 100 l 25
 172 400 l 25
 248 400 l 25
 248 100 l 25
 285 100 l 25
 285 200 l 25xdc
 322 200 l 25
 322 500 l 29xca
EndSplineSet
EndChar

StartChar: x
Encoding: 120 120 77
Width: 420
Flags: HW
HStem: 0 100<22 98 322 398> 200 100<172 248> 400 100<22 98 322 398>
VStem: 22 112<0 100 400 500> 98 75<100 200 300 400> 248 75<100 200 300 400> 285 112<0 100 400 500>
CounterMasks: 1 e0
LayerCount: 2
Back
Fore
SplineSet
22 500 m 29xf0
 135 500 l 25
 135 400 l 25xf0
 172 400 l 25
 172 300 l 25
 248 300 l 25
 248 400 l 25xec
 285 400 l 25
 285 500 l 25
 398 500 l 25
 398 400 l 25xe2
 322 400 l 25
 322 300 l 25xe4
 285 300 l 25
 285 200 l 25xe2
 322 200 l 25
 322 100 l 25xe4
 398 100 l 25
 398 0 l 25
 285 0 l 25
 285 100 l 25xe2
 248 100 l 25
 248 200 l 25
 172 200 l 25
 172 100 l 25xec
 135 100 l 25
 135 0 l 25
 22 0 l 25
 22 100 l 25xf0
 98 100 l 25
 98 200 l 25xe8
 135 200 l 25
 135 300 l 25xf0
 98 300 l 25
 98 400 l 25xe8
 22 400 l 25
 22 500 l 29xf0
EndSplineSet
EndChar

StartChar: y
Encoding: 121 121 78
Width: 420
Flags: HW
HStem: -200 100<41 116> 400 100<41 79 341 379>
VStem: 41 75<400 500> 79 75<300 400> 116 75<-100 0 200 300> 154 112<100 200> 154 75<0 100> 229 75<200 300> 266 75<300 400> 304 75<400 500>
LayerCount: 2
Back
Fore
SplineSet
41 500 m 29xe0
 116 500 l 25
 116 400 l 25xe0
 154 400 l 25
 154 300 l 25xd0
 191 300 l 25
 191 200 l 25
 229 200 l 25
 229 300 l 25xc9
 266 300 l 25
 266 400 l 25xc080
 304 400 l 25
 304 500 l 25
 379 500 l 25
 379 400 l 25xc040
 341 400 l 25
 341 300 l 25xc080
 304 300 l 25
 304 200 l 25xc1
 266 200 l 25
 266 100 l 25xc4
 229 100 l 25
 229 0 l 25xc2
 191 0 l 25
 191 -100 l 25xc8
 154 -100 l 25
 154 -200 l 25
 41 -200 l 25
 41 -100 l 25xe2
 116 -100 l 25
 116 0 l 25xc8
 154 0 l 25xc2
 154 200 l 25xc4
 116 200 l 25
 116 300 l 25xc8
 79 300 l 25
 79 400 l 25xd0
 41 400 l 25
 41 500 l 29xe0
EndSplineSet
EndChar

StartChar: z
Encoding: 122 122 79
Width: 420
Flags: HW
HStem: 0 100<60 135 210 360> 400 100<60 210 285 360>
VStem: 135 75<100 200> 172 75<200 300> 210 75<300 400>
LayerCount: 2
Back
Fore
SplineSet
60 500 m 29xc8
 360 500 l 25
 360 400 l 25
 285 400 l 25
 285 300 l 25xc8
 248 300 l 25
 248 200 l 25xd0
 210 200 l 25
 210 100 l 25
 360 100 l 25
 360 0 l 25
 60 0 l 25
 60 100 l 25
 135 100 l 25
 135 200 l 25xe0
 172 200 l 25
 172 300 l 25xd0
 210 300 l 25
 210 400 l 25
 60 400 l 25
 60 500 l 29xc8
EndSplineSet
EndChar

StartChar: edieresis
Encoding: 235 235 82
Width: 420
Flags: HW
HStem: 0 100<116 341> 200 100<116 304> 400 100<116 304> 600 100<79 154 266 341>
VStem: 41 75<100 200 300 400> 79 75<600 700> 266 75<600 700> 304 75<300 400>
LayerCount: 2
Back
Fore
SplineSet
266 700 m 25xf2
 341 700 l 25
 341 600 l 25
 266 600 l 25
 266 700 l 25xf2
79 700 m 25xf4
 154 700 l 25
 154 600 l 25
 79 600 l 25
 79 700 l 25xf4
116 400 m 1xf9
 116 300 l 1
 304 300 l 1
 304 400 l 1
 116 400 l 1xf9
79 400 m 1xf4
 80 500 l 1
 340 500 l 1
 341 400 l 25xf6
 379 400 l 25
 379 200 l 1
 116 200 l 1
 116 100 l 1xf9
 341 100 l 1
 341 0 l 1
 79 0 l 1
 79 100 l 1xf6
 41 100 l 1
 41 400 l 5xf8
 79 400 l 1xf4
EndSplineSet
EndChar

StartChar: uni0401
Encoding: 1025 1025 97
Width: 420
Flags: HW
HStem: 0 100<116 379> 300 100<116 304> 500 100<116 379> 700 100<79 154 266 341>
VStem: 41 75<100 300 400 500> 79 75<700 800> 266 75<700 800>
LayerCount: 2
Back
Fore
SplineSet
266 700 m 25xf2
 266 800 l 25
 341 800 l 25
 341 700 l 25
 266 700 l 25xf2
79 700 m 25xf6
 79 800 l 25
 154 800 l 25
 154 700 l 25
 79 700 l 25xf6
379 500 m 1
 116 500 l 1
 116 400 l 1
 304 400 l 25
 304 300 l 25
 116 300 l 25
 116 100 l 25
 379 100 l 25
 379 0 l 25
 41 0 l 1
 41 600 l 1xfa
 379 600 l 1
 379 500 l 1
EndSplineSet
EndChar

StartChar: uni0402
Encoding: 1026 1026 98
Width: 420
Flags: HW
HStem: 0 100<229 341> 300 100<191 341> 600 100<4 116 191 304>
VStem: 116 75<0 300 400 600> 341 75<100 300>
CounterMasks: 1 e0
LayerCount: 2
Back
Fore
SplineSet
116 0 m 29
 116 600 l 25
 4 600 l 25
 4 700 l 25
 304 700 l 25
 304 600 l 25
 191 600 l 25
 191 400 l 25
 379 400 l 25
 379 300 l 25
 416 300 l 25
 416 100 l 25
 379 100 l 25
 379 0 l 25
 229 0 l 25
 229 100 l 25
 341 100 l 25
 341 300 l 25
 191 300 l 25
 191 0 l 25
 116 0 l 29
EndSplineSet
EndChar

StartChar: uni0403
Encoding: 1027 1027 99
Width: 420
Flags: HW
HStem: 0 21G<41 116> 500 100<116 154 229 379> 700 100<229 266>
VStem: 41 75<0 500> 154 75<600 700> 191 75<700 800>
LayerCount: 2
Back
Fore
SplineSet
41 0 m 29xf8
 41 600 l 25
 154 600 l 25
 154 700 l 25xf8
 191 700 l 25
 191 800 l 25
 266 800 l 25
 266 700 l 25xf4
 229 700 l 25
 229 600 l 25
 379 600 l 25
 379 500 l 25
 116 500 l 25
 116 0 l 25
 41 0 l 29xf8
EndSplineSet
EndChar

StartChar: uni0404
Encoding: 1028 1028 100
Width: 420
Flags: HW
HStem: 0 100<154 304> 100 100<341 379> 300 100<116 266> 500 100<341 379> 600 100<154 304>
VStem: 41 75<200 300 400 500> 79 75<100 200 500 600> 116 225<0 100 600 700> 304 75<100 200 500 600>
LayerCount: 2
Back
Fore
SplineSet
154 500 m 29x3280
 116 500 l 25
 116 400 l 25
 266 400 l 25
 266 300 l 25
 116 300 l 25
 116 200 l 25x74
 154 200 l 25x72
 154 100 l 25
 304 100 l 25xa280
 304 200 l 25
 379 200 l 25
 379 100 l 25x6280
 341 100 l 25x61
 341 0 l 25
 116 0 l 25xa1
 116 100 l 25x61
 79 100 l 25
 79 200 l 25x62
 41 200 l 25
 41 500 l 25x74
 79 500 l 25x72
 79 600 l 25x2a
 116 600 l 25
 116 700 l 25
 341 700 l 25x29
 341 600 l 25x31
 379 600 l 25
 379 500 l 25
 304 500 l 25x3080
 304 600 l 25
 154 600 l 25x2a80
 154 500 l 29x3280
EndSplineSet
EndChar

StartChar: uni0405
Encoding: 1029 1029 101
Width: 420
Flags: HW
HStem: 0 100<79 304> 300 100<116 304> 600 100<116 341>
VStem: 41 75<400 600> 79 262<0 100 300 400 600 700> 304 75<100 300>
CounterMasks: 1 e0
LayerCount: 2
Back
Fore
SplineSet
79 600 m 29xe8
 79 700 l 25
 341 700 l 25
 341 600 l 25xe8
 116 600 l 25
 116 400 l 25xf0
 341 400 l 25
 341 300 l 25xe8
 379 300 l 25
 379 100 l 25xe4
 341 100 l 25
 341 0 l 25
 79 0 l 25
 79 100 l 25xe8
 304 100 l 25
 304 300 l 25xe4
 79 300 l 25
 79 400 l 25xe8
 41 400 l 25
 41 600 l 25xf0
 79 600 l 29xe8
EndSplineSet
EndChar

StartChar: uni0406
Encoding: 1030 1030 102
Width: 420
Flags: HW
HStem: 0 100<60 172 248 360> 600 100<60 172 248 360>
VStem: 172 75<100 600>
LayerCount: 2
Back
Fore
SplineSet
60 700 m 29
 360 700 l 25
 360 600 l 25
 248 600 l 25
 248 100 l 25
 360 100 l 25
 360 0 l 25
 60 0 l 25
 60 100 l 25
 172 100 l 25
 172 600 l 25
 60 600 l 25
 60 700 l 29
EndSplineSet
EndChar

StartChar: uni0407
Encoding: 1031 1031 103
Width: 420
Flags: HMW
LayerCount: 2
Back
Fore
SplineSet
248 650 m 29
 248 750 l 25
 322 750 l 25
 322 650 l 25
 248 650 l 29
98 650 m 25
 98 750 l 25
 172 750 l 25
 172 650 l 25
 98 650 l 25
60 500 m 25
 60 600 l 25
 360 600 l 25
 360 500 l 25
 248 500 l 25
 248 100 l 25
 360 100 l 25
 360 0 l 25
 60 0 l 25
 60 100 l 25
 172 100 l 25
 172 500 l 25
 60 500 l 25
EndSplineSet
EndChar

StartChar: uni0408
Encoding: 1032 1032 104
Width: 420
Flags: HW
HStem: 0 100<116 304> 100 100<41 79> 680 20G<304 379>
VStem: 41 75<100 200> 304 75<100 700>
LayerCount: 2
Back
Fore
SplineSet
304 700 m 29xb8
 379 700 l 25
 379 100 l 25
 341 100 l 25x78
 341 0 l 25
 79 0 l 25xb8
 79 100 l 25
 41 100 l 25
 41 200 l 25
 116 200 l 25x78
 116 100 l 25
 304 100 l 25
 304 700 l 29xb8
EndSplineSet
EndChar

StartChar: uni0409
Encoding: 1033 1033 105
Width: 420
Flags: HW
HStem: 0 100<4 41 266 341> 300 100<266 341> 600 100<116 191>
VStem: 4 75<0 100> 41 75<100 600> 191 188<0 50 300 400> 191 75<100 300 400 600> 341 75<100 300>
CounterMasks: 1 e0
LayerCount: 2
Back
Fore
SplineSet
266 100 m 29xe3
 341 100 l 25
 341 300 l 25
 266 300 l 25
 266 100 l 29xe3
4 0 m 25xf0
 4 100 l 25xf0
 41 100 l 25
 41 600 l 25xe8
 79 600 l 25
 79 700 l 25
 266 700 l 25
 266 400 l 25xf2
 379 400 l 25
 379 300 l 25xe4
 416 300 l 25
 416 50 l 25xe1
 379 50 l 25
 379 0 l 25
 191 0 l 25xe4
 191 600 l 25
 116 600 l 25
 116 100 l 25xea
 79 100 l 25
 79 0 l 25
 4 0 l 25xf0
EndSplineSet
EndChar

StartChar: uni040A
Encoding: 1034 1034 106
Width: 420
Flags: HW
HStem: 0 100<266 341> 300 100<79 191 266 341> 680 20G<4 79 191 266>
VStem: 4 75<0 300 400 700> 191 75<100 300 400 700> 341 75<100 300>
LayerCount: 2
Back
Fore
SplineSet
266 300 m 29
 266 100 l 25
 341 100 l 25
 341 300 l 25
 266 300 l 29
4 700 m 25
 79 700 l 25
 79 400 l 25
 191 400 l 25
 191 700 l 25
 266 700 l 25
 266 400 l 25
 379 400 l 25
 379 300 l 25
 416 300 l 25
 416 50 l 25
 379 50 l 25
 379 0 l 25
 191 0 l 25
 191 300 l 25
 79 300 l 25
 79 0 l 25
 4 0 l 25
 4 700 l 25
EndSplineSet
EndChar

StartChar: uni040B
Encoding: 1035 1035 107
Width: 420
Flags: HW
HStem: 0 21G<116 191 341 416> 300 100<191 341> 600 100<4 116 191 304>
VStem: 116 75<0 300 400 600> 341 75<0 300>
LayerCount: 2
Back
Fore
SplineSet
4 600 m 29
 4 700 l 25
 304 700 l 25
 304 600 l 25
 191 600 l 25
 191 400 l 25
 379 400 l 25
 379 300 l 25
 416 300 l 25
 416 0 l 25
 341 0 l 25
 341 300 l 25
 191 300 l 25
 191 0 l 25
 116 0 l 25
 116 600 l 25
 4 600 l 29
EndSplineSet
EndChar

StartChar: uni040C
Encoding: 1036 1036 108
Width: 420
Flags: HW
HStem: 0 100<285 360> 100 100<210 248> 400 100<210 248> 500 100<285 360> 600 100<172 210> 700 100<248 285>
VStem: 60 150<200 400> 60 75<0 200 400 600> 172 75<600 700> 210 75<700 800> 248 112<0 100 500 600>
LayerCount: 2
Back
Fore
SplineSet
60 0 m 29x8180
 60 600 l 25
 135 600 l 25
 135 400 l 25
 172 400 l 25xa980
 172 500 l 25x1180
 248 500 l 25x2020
 248 600 l 25x2880
 360 600 l 25
 360 500 l 25x1020
 285 500 l 25x1040
 285 400 l 25x2040
 210 400 l 25
 210 200 l 25x62
 285 200 l 25x6040
 285 100 l 25x8040
 360 100 l 25
 360 0 l 25
 248 0 l 25x8020
 248 100 l 25x4020
 172 100 l 25
 172 200 l 25
 135 200 l 25x4180
 135 0 l 25
 60 0 l 29x8180
172 600 m 25
 172 700 l 25x0880
 210 700 l 25x0840
 210 800 l 25
 285 800 l 25
 285 700 l 25x0440
 248 700 l 25x0480
 248 600 l 25
 172 600 l 25
EndSplineSet
EndChar

StartChar: uni040E
Encoding: 1038 1038 109
Width: 420
Flags: HW
HStem: 0 100<116 304> 100 100<41 79> 300 100<116 304> 680 20G<41 116 304 379> 700 100<191 229>
VStem: 41 75<100 200 400 700> 191 38<700 800> 304 75<100 300 400 700>
CounterMasks: 1 07
LayerCount: 2
Back
Fore
SplineSet
191 700 m 29x2f
 191 800 l 25
 229 800 l 25
 229 700 l 25
 191 700 l 29x2f
41 700 m 25xb7
 116 700 l 25
 116 400 l 25
 304 400 l 25
 304 700 l 25
 379 700 l 25
 379 100 l 25
 341 100 l 25x77
 341 0 l 25
 79 0 l 25xa7
 79 100 l 25
 41 100 l 25
 41 200 l 25
 116 200 l 25x67
 116 100 l 25
 304 100 l 25
 304 300 l 25
 79 300 l 25
 79 400 l 25
 41 400 l 25
 41 700 l 25xb7
EndSplineSet
EndChar

StartChar: uni040F
Encoding: 1039 1039 110
Width: 420
Flags: HW
HStem: -200 21G<172 248> 0 100<98 172 248 322> 680 20G<22 98 322 398>
VStem: 22 75<100 700> 172 75<-200 0> 322 75<100 700>
CounterMasks: 1 1c
LayerCount: 2
Back
Fore
SplineSet
22 0 m 29
 22 700 l 25
 98 700 l 25
 98 100 l 25
 322 100 l 25
 322 700 l 25
 398 700 l 25
 398 0 l 25
 248 0 l 25
 248 -200 l 25
 172 -200 l 25
 172 0 l 25
 22 0 l 29
EndSplineSet
EndChar

StartChar: uni0410
Encoding: 1040 1040 111
Width: 420
Flags: HW
HStem: 0 21G<22 98 322 398> 200 100<98 322> 600 100<172 248>
VStem: 22 75<0 200 300 400> 60 75<400 500> 98 75<500 600> 248 75<500 600> 285 75<400 500> 322 75<0 200 300 400>
LayerCount: 2
Back
Fore
SplineSet
98 400 m 29xf0
 98 300 l 25
 322 300 l 25
 322 400 l 25xf080
 285 400 l 25
 285 500 l 25xe1
 248 500 l 25
 248 600 l 25
 172 600 l 25
 172 500 l 25xe6
 135 500 l 25
 135 400 l 25xe8
 98 400 l 29xf0
98 0 m 25
 22 0 l 25
 22 400 l 25xf080
 60 400 l 25
 60 500 l 25xe8
 98 500 l 25
 98 600 l 25xe4
 135 600 l 25
 135 700 l 25
 284 700 l 25
 285 600 l 25xe9
 322 600 l 25
 322 500 l 25xe2
 360 500 l 25
 360 400 l 25xe1
 398 400 l 25
 398 0 l 25
 322 0 l 25
 322 200 l 25
 98 200 l 25
 98 0 l 25
EndSplineSet
EndChar

StartChar: uni0411
Encoding: 1041 1041 112
Width: 420
Flags: HW
HStem: 0 100<116 304> 300 100<116 304> 600 100<116 341>
VStem: 41 300<0 100 300 400 600 700> 41 75<100 300 400 600> 304 75<100 300>
CounterMasks: 1 e0
LayerCount: 2
Back
Fore
SplineSet
116 100 m 29xec
 304 100 l 25
 304 300 l 25
 116 300 l 25
 116 100 l 29xec
41 700 m 25xf0
 341 700 l 25
 341 600 l 25xf0
 116 600 l 25
 116 400 l 25xe8
 341 400 l 25
 341 300 l 25xf0
 379 300 l 25
 379 100 l 25xe4
 341 100 l 25
 341 0 l 25
 41 0 l 25
 41 700 l 25xf0
EndSplineSet
EndChar

StartChar: uni0412
Encoding: 1042 1042 113
Width: 420
Flags: HW
HStem: 0 100<116 304> 300 100<116 304> 600 100<116 304>
VStem: 41 300<0 100 300 400 600 700> 41 75<100 300 400 600> 304 75<100 300 400 600>
CounterMasks: 1 e0
LayerCount: 2
Back
Fore
SplineSet
116 600 m 29xec
 116 400 l 25
 304 400 l 25
 304 600 l 25
 116 600 l 29xec
116 300 m 25
 116 100 l 25
 304 100 l 25
 304 300 l 25
 116 300 l 25
41 0 m 25xf0
 41 700 l 25
 341 700 l 25
 341 600 l 25xf0
 379 600 l 25
 379 400 l 25xe4
 341 400 l 25
 341 300 l 25xf0
 379 300 l 25
 379 100 l 25xe4
 341 100 l 25
 341 0 l 25
 41 0 l 25xf0
EndSplineSet
EndChar

StartChar: uni0413
Encoding: 1043 1043 114
Width: 420
Flags: HW
HStem: 0 21G<41 116> 600 100<116 379>
VStem: 41 75<0 600>
LayerCount: 2
Back
Fore
SplineSet
41 700 m 29
 379 700 l 25
 379 600 l 25
 116 600 l 25
 116 0 l 25
 41 0 l 25
 41 700 l 29
EndSplineSet
EndChar

StartChar: uni0414
Encoding: 1044 1044 115
Width: 420
Flags: HW
HStem: 0 100<154 266> 600 100<191 266>
VStem: 41 75<-100 0> 79 75<100 500> 116 75<500 600> 266 75<100 600> 304 75<-100 0>
LayerCount: 2
Back
Fore
SplineSet
191 600 m 29xcc
 191 500 l 25xcc
 154 500 l 25
 154 100 l 25xd0
 266 100 l 25
 266 600 l 25
 191 600 l 29xcc
116 500 m 25
 116 600 l 25xc8
 154 600 l 25
 154 700 l 25
 341 700 l 25
 341 100 l 25xd4
 379 100 l 25
 379 -100 l 25
 304 -100 l 25
 304 0 l 25
 116 0 l 25
 116 -100 l 25
 41 -100 l 25
 41 100 l 25xe2
 79 100 l 25
 79 500 l 25xd0
 116 500 l 25
EndSplineSet
EndChar

StartChar: uni0415
Encoding: 1045 1045 116
Width: 420
Flags: HW
HStem: 0 100<116 379> 300 100<116 304> 600 100<116 379>
VStem: 41 75<100 300 400 600>
CounterMasks: 1 e0
LayerCount: 2
Back
Fore
SplineSet
379 600 m 29
 116 600 l 29
 116 400 l 29
 304 400 l 29
 304 300 l 29
 116 300 l 29
 116 100 l 29
 379 100 l 29
 379 0 l 29
 41 0 l 29
 41 700 l 29
 379 700 l 29
 379 600 l 29
EndSplineSet
EndChar

StartChar: uni0416
Encoding: 1046 1046 117
Width: 420
Flags: HW
HStem: 0 21G<22 98 172 248 322 398> 300 100<135 172 248 285> 680 20G<22 97 172 248 322 398>
VStem: 22 75<0 200 500 700> 60 75<200 300 400 500> 172 75<0 300 400 700> 285 75<200 300 400 500> 322 75<0 200 500 700>
LayerCount: 2
Back
Fore
SplineSet
22 700 m 29xf4
 97 700 l 25
 98 500 l 25xf4
 134 500 l 25
 135 400 l 25
 172 400 l 25
 172 700 l 25
 248 700 l 25
 248 400 l 25
 285 400 l 25
 285 500 l 25xee
 322 500 l 25
 322 700 l 25
 398 700 l 25
 398 500 l 25xe5
 360 500 l 25
 360 400 l 25xe6
 322 400 l 25xe5
 322 300 l 25
 360 300 l 25
 360 200 l 25xe6
 398 200 l 25
 398 0 l 25
 322 0 l 25
 322 200 l 25xe5
 285 200 l 25
 285 300 l 25
 248 300 l 25
 248 0 l 25
 172 0 l 25
 172 300 l 25
 135 300 l 25
 135 200 l 25xee
 98 200 l 25
 98 0 l 25
 22 0 l 25
 22 200 l 25xf4
 60 200 l 25
 60 300 l 25xec
 98 300 l 25
 98 400 l 25xf4
 60 400 l 25
 60 500 l 25xec
 22 500 l 25
 22 700 l 29xf4
EndSplineSet
EndChar

StartChar: uni0417
Encoding: 1047 1047 118
Width: 420
Flags: HW
HStem: 0 100<116 304> 100 100<41 79> 300 100<154 304> 500 100<41 79> 600 100<116 304>
VStem: 41 75<100 200 500 600> 304 75<100 300 400 600>
LayerCount: 2
Back
Fore
SplineSet
41 500 m 29x36
 41 600 l 1
 79 600 l 25x36
 79 700 l 25
 341 700 l 25
 341 600 l 25
 379 600 l 25
 379 400 l 25
 341 400 l 25
 341 300 l 25
 379 300 l 25
 379 100 l 25
 341 100 l 25x6e
 341 0 l 25
 79 0 l 25xa6
 79 100 l 25
 41 100 l 25
 41 200 l 25
 116 200 l 25x66
 116 100 l 25
 304 100 l 25
 304 300 l 25
 154 300 l 25
 154 400 l 25
 304 400 l 25
 304 600 l 25
 116 600 l 25xae
 116 500 l 1
 41 500 l 29x36
EndSplineSet
EndChar

StartChar: uni0418
Encoding: 1048 1048 119
Width: 420
Flags: HW
HStem: 0 21G<22 135 322 398> 680 20G<22 98 285 398>
VStem: 22 112<0 100> 22 75<200 700> 135 75<200 300> 172 75<300 400> 210 75<400 500> 285 112<600 700> 322 75<0 500>
LayerCount: 2
Back
Fore
SplineSet
22 700 m 29xd0
 98 700 l 29
 98 200 l 29
 135 200 l 29
 135 300 l 29xd8
 172 300 l 29
 172 400 l 29xc4
 210 400 l 29
 210 500 l 29xc2
 248 500 l 29
 248 600 l 29
 285 600 l 29
 285 700 l 29
 398 700 l 29xc5
 398 0 l 29
 322 0 l 29
 322 500 l 29
 285 500 l 29
 285 400 l 29xc280
 248 400 l 29
 248 300 l 29xc4
 210 300 l 29
 210 200 l 29xc8
 172 200 l 29
 172 100 l 29
 135 100 l 29
 135 0 l 29
 22 0 l 29xe4
 22 700 l 29xd0
EndSplineSet
EndChar

StartChar: uni0419
Encoding: 1049 1049 120
Width: 420
Flags: HW
HStem: 0 21G<22 135 322 398> 680 20G<22 98 285 398> 700 100<172 210>
VStem: 22 112<0 100> 22 75<200 700> 135 75<200 300> 172 75<300 400> 172 38<700 800> 210 75<400 500> 285 112<600 700> 322 75<0 500>
LayerCount: 2
Back
Fore
SplineSet
172 700 m 29xa1
 172 800 l 25
 210 800 l 25
 210 700 l 25
 172 700 l 29xa1
22 700 m 25xc8
 98 700 l 25
 98 200 l 25
 135 200 l 25
 135 300 l 25xcc
 172 300 l 25
 172 400 l 25xc2
 210 400 l 25
 210 500 l 25xc080
 248 500 l 25
 248 600 l 25
 285 600 l 25
 285 700 l 25
 398 700 l 25xc240
 398 0 l 25
 322 0 l 25
 322 500 l 25
 285 500 l 25
 285 400 l 25xc0a0
 248 400 l 25
 248 300 l 25xc2
 210 300 l 25
 210 200 l 25xc4
 172 200 l 25
 172 100 l 25
 135 100 l 25
 135 0 l 25
 22 0 l 25xd1
 22 700 l 25xc8
EndSplineSet
EndChar

StartChar: uni041A
Encoding: 1050 1050 121
Width: 420
Flags: HW
HStem: 0 100<304 379> 200 100<191 229> 300 100<116 154> 400 100<191 229> 600 100<304 379>
VStem: 41 75<0 300 400 700> 154 112<200 300 400 500> 229 75<100 200 500 600> 266 112<0 100 600 700>
LayerCount: 2
Back
Fore
SplineSet
41 700 m 29xae
 116 700 l 25
 116 400 l 25
 154 400 l 25xae
 154 500 l 25x9e
 229 500 l 25
 229 600 l 25x9d
 266 600 l 25
 266 700 l 25
 379 700 l 25
 379 600 l 25x9c80
 304 600 l 25
 304 500 l 25x9d
 266 500 l 25
 266 400 l 25
 191 400 l 25
 191 300 l 25xde
 266 300 l 25xae
 266 200 l 25xce
 304 200 l 25
 304 100 l 25xcd
 379 100 l 25
 379 0 l 25
 266 0 l 25
 266 100 l 25xcc80
 229 100 l 25
 229 200 l 25xcd
 154 200 l 25xce
 154 300 l 25
 116 300 l 25
 116 0 l 25
 41 0 l 25
 41 700 l 29xae
EndSplineSet
EndChar

StartChar: uni041B
Encoding: 1051 1051 122
Width: 420
Flags: HW
HStem: 0 100<41 79> 600 100<191 304>
VStem: 41 75<0 100> 79 75<100 200> 116 75<200 600> 304 75<0 600>
LayerCount: 2
Back
Fore
SplineSet
41 0 m 29xe4
 41 100 l 25xe4
 79 100 l 25
 79 200 l 25xd4
 116 200 l 25
 116 600 l 25xcc
 154 600 l 25
 154 700 l 25xd4
 379 700 l 25
 379 0 l 25
 304 0 l 25
 304 600 l 25
 191 600 l 25
 191 200 l 25xcc
 154 200 l 25
 154 100 l 25xd4
 116 100 l 25
 116 0 l 25
 41 0 l 29xe4
EndSplineSet
EndChar

StartChar: uni041C
Encoding: 1052 1052 123
Width: 420
Flags: HW
HStem: 0 21G<22 98 322 398> 680 20G<22 135 285 398>
VStem: 22 112<600 700> 22 75<0 500> 172 75<300 400> 285 112<600 700> 322 75<0 500>
LayerCount: 2
Back
Fore
SplineSet
98 0 m 29xd8
 22 0 l 25xd8
 22 700 l 25
 135 700 l 25
 135 600 l 25
 172 600 l 25
 172 500 l 25
 248 500 l 25
 248 600 l 25
 285 600 l 25
 285 700 l 25
 398 700 l 25xec
 398 0 l 25
 322 0 l 25
 322 500 l 25xca
 285 500 l 25
 285 400 l 25
 248 400 l 25
 248 300 l 25
 172 300 l 25
 172 400 l 25
 135 400 l 25
 135 500 l 25xec
 98 500 l 25
 98 0 l 29xd8
EndSplineSet
EndChar

StartChar: uni041D
Encoding: 1053 1053 124
Width: 420
Flags: HW
HStem: 0 21G<41 116 304 379> 300 100<116 304> 680 20G<41 116 304 379>
VStem: 41 75<0 300 400 700> 304 75<0 300 400 700>
LayerCount: 2
Back
Fore
SplineSet
41 700 m 29
 116 700 l 25
 116 400 l 25
 304 400 l 25
 304 700 l 25
 379 700 l 25
 379 0 l 25
 304 0 l 25
 304 300 l 25
 116 300 l 25
 116 0 l 25
 41 0 l 25
 41 700 l 29
EndSplineSet
EndChar

StartChar: uni041E
Encoding: 1054 1054 125
Width: 420
Flags: HW
HStem: 0 100<135 285> 600 100<135 285>
VStem: 22 75<200 500> 60 75<100 200 500 600> 98 225<0 100 600 700> 285 75<100 200 500 600> 322 75<200 500>
LayerCount: 2
Back
Fore
SplineSet
285 100 m 29xd4
 285 200 l 25xd4
 322 200 l 25
 322 500 l 25xc2
 285 500 l 25
 285 600 l 25
 135 600 l 25
 135 500 l 25xd4
 98 500 l 25
 98 200 l 25xe0
 135 200 l 25
 135 100 l 25
 285 100 l 29xd4
322 0 m 25xc8
 98 0 l 25
 98 100 l 25xc8
 60 100 l 25
 60 200 l 25xd0
 22 200 l 25
 22 500 l 25xe0
 60 500 l 25
 60 600 l 25xd0
 98 600 l 25
 98 700 l 25
 322 700 l 25
 322 600 l 25xc8
 360 600 l 25
 360 500 l 25xc4
 398 500 l 25
 398 200 l 25xc2
 360 200 l 25
 360 100 l 25xc4
 322 100 l 25
 322 0 l 25xc8
EndSplineSet
EndChar

StartChar: uni041F
Encoding: 1055 1055 126
Width: 420
Flags: HW
HStem: 0 21G<41 116 304 379> 600 100<116 304>
VStem: 41 75<0 600> 304 75<0 600>
LayerCount: 2
Back
Fore
SplineSet
41 700 m 29
 379 700 l 25
 379 0 l 25
 304 0 l 25
 304 600 l 25
 116 600 l 25
 116 0 l 25
 41 0 l 25
 41 700 l 29
EndSplineSet
EndChar

StartChar: uni0420
Encoding: 1056 1056 127
Width: 420
Flags: HW
HStem: 0 21G<41 116> 300 100<116 304> 600 100<116 304>
VStem: 41 75<0 300 400 600> 304 75<400 600>
LayerCount: 2
Back
Fore
SplineSet
116 600 m 29
 116 400 l 25
 304 400 l 25
 304 600 l 25
 116 600 l 29
41 700 m 25
 341 700 l 25
 341 650 l 25
 379 650 l 25
 379 400 l 25
 341 400 l 25
 341 300 l 25
 116 300 l 25
 116 0 l 25
 41 0 l 25
 41 700 l 25
EndSplineSet
EndChar

StartChar: uni0421
Encoding: 1057 1057 128
Width: 420
Flags: HW
HStem: 0 100<154 304> 100 100<341 379> 500 100<341 379> 600 100<154 304>
VStem: 41 75<200 500> 79 75<100 200 500 600> 116 225<0 100 600 700> 304 75<100 200 500 600>
LayerCount: 2
Back
Fore
SplineSet
116 700 m 29x12
 341 700 l 25x12
 341 600 l 25x22
 379 600 l 25
 379 500 l 25
 304 500 l 25x21
 304 600 l 25
 154 600 l 25x15
 154 500 l 25x25
 116 500 l 25
 116 200 l 25x68
 154 200 l 25x64
 154 100 l 25
 304 100 l 25x85
 304 200 l 25
 379 200 l 25
 379 100 l 25x45
 341 100 l 25x42
 341 0 l 25
 116 0 l 25x82
 116 100 l 25x42
 79 100 l 25
 79 200 l 25x44
 41 200 l 25
 41 500 l 25x68
 79 500 l 25x64
 79 600 l 25x14
 116 600 l 25
 116 700 l 29x12
EndSplineSet
EndChar

StartChar: uni0422
Encoding: 1058 1058 129
Width: 420
Flags: HW
HStem: 0 21G<172 248> 600 100<22 172 248 398>
VStem: 172 75<0 600>
LayerCount: 2
Back
Fore
SplineSet
22 700 m 1
 398 700 l 5
 398 600 l 1
 248 600 l 1
 248 0 l 25
 172 0 l 25
 172 600 l 1
 22 600 l 1
 22 700 l 1
EndSplineSet
EndChar

StartChar: uni0423
Encoding: 1059 1059 130
Width: 420
Flags: HW
HStem: 0 100<116 304> 100 100<41 79> 300 100<116 304> 680 20G<41 116 304 379>
VStem: 41 75<100 200 400 700> 304 75<100 300 400 700>
LayerCount: 2
Back
Fore
SplineSet
41 700 m 29xbc
 116 700 l 25
 116 400 l 25
 304 400 l 25
 304 700 l 25
 379 700 l 25
 379 100 l 25
 341 100 l 25x7c
 341 0 l 25
 79 0 l 25xbc
 79 100 l 25
 41 100 l 25
 41 200 l 25
 116 200 l 25x7c
 116 100 l 25
 304 100 l 25
 304 300 l 25
 79 300 l 25
 79 400 l 25
 41 400 l 25
 41 700 l 29xbc
EndSplineSet
EndChar

StartChar: uni0424
Encoding: 1060 1060 131
Width: 420
Flags: HW
HStem: 0 21G<172 248> 100 100<98 172 248 322> 500 100<98 172 248 322> 680 20G<172 248>
VStem: 22 75<200 500> 172 75<0 100 200 500 600 700> 322 75<200 500>
CounterMasks: 1 0e
LayerCount: 2
Back
Fore
SplineSet
248 500 m 29
 248 200 l 25
 322 200 l 25
 322 500 l 25
 248 500 l 29
98 500 m 25
 98 200 l 25
 172 200 l 25
 172 500 l 25
 98 500 l 25
172 600 m 25
 172 700 l 1
 248 700 l 25
 248 600 l 25
 360 600 l 25
 360 500 l 25
 398 500 l 25
 398 200 l 25
 360 200 l 25
 360 100 l 25
 248 100 l 25
 248 0 l 25
 172 0 l 25
 172 100 l 25
 60 100 l 25
 60 200 l 25
 22 200 l 25
 22 500 l 25
 60 500 l 25
 60 600 l 1
 172 600 l 25
EndSplineSet
EndChar

StartChar: uni0425
Encoding: 1061 1061 132
Width: 420
Flags: HW
HStem: 0 100<60 98 322 360> 600 100<60 98 322 360>
VStem: 60 75<0 100 600 700> 98 75<100 200 500 600> 135 150<200 300 400 500> 248 75<100 200 500 600> 285 75<0 100 600 700>
LayerCount: 2
Back
Fore
SplineSet
60 700 m 29xe0
 135 700 l 25
 135 600 l 25xe0
 172 600 l 25
 172 500 l 25
 248 500 l 25
 248 600 l 25xd4
 285 600 l 25
 285 700 l 25
 360 700 l 25
 360 600 l 25xc2
 322 600 l 25
 322 500 l 25xc4
 285 500 l 25
 285 400 l 25xc8
 248 400 l 25
 248 300 l 25xc4
 285 300 l 25
 285 200 l 25xc8
 322 200 l 25
 322 100 l 25xc4
 360 100 l 25
 360 0 l 25
 285 0 l 25
 285 100 l 25xc2
 248 100 l 25
 248 200 l 25
 172 200 l 25
 172 100 l 25xd4
 135 100 l 25
 135 0 l 25
 60 0 l 25
 60 100 l 25xe0
 98 100 l 25
 98 200 l 25xd0
 135 200 l 25
 135 300 l 25xc8
 172 300 l 25
 172 400 l 25xd0
 135 400 l 25
 135 500 l 25xc8
 98 500 l 25
 98 600 l 25xd0
 60 600 l 25
 60 700 l 29xe0
EndSplineSet
EndChar

StartChar: uni0426
Encoding: 1062 1062 133
Width: 420
Flags: HW
HStem: 0 100<116 229> 680 20G<41 116 229 304>
VStem: 41 75<100 700> 229 75<100 700> 304 75<-100 0>
LayerCount: 2
Back
Fore
SplineSet
41 700 m 29xe8
 116 700 l 25
 116 100 l 25
 229 100 l 25
 229 700 l 25
 304 700 l 25
 304 100 l 25xf0
 379 100 l 25
 379 -100 l 25
 304 -100 l 25
 304 0 l 25
 41 0 l 25
 41 700 l 29xe8
EndSplineSet
EndChar

StartChar: uni0427
Encoding: 1063 1063 134
Width: 420
Flags: HW
HStem: 0 21G<304 379> 300 100<154 304> 680 20G<41 116 304 379>
VStem: 41 75<500 700> 79 75<400 500> 304 75<0 300 400 700>
LayerCount: 2
Back
Fore
SplineSet
41 700 m 29xf4
 116 700 l 25
 116 500 l 25xf4
 154 500 l 25
 154 400 l 25xec
 304 400 l 25
 304 700 l 25
 379 700 l 25
 379 0 l 25
 304 0 l 25
 304 300 l 25
 116 300 l 25
 116 400 l 25xf4
 79 400 l 25
 79 500 l 25xec
 41 500 l 25
 41 700 l 29xf4
EndSplineSet
EndChar

StartChar: uni0428
Encoding: 1064 1064 135
Width: 420
Flags: HW
HStem: 0 100<98 172 248 322> 680 20G<22 98 172 248 322 398>
VStem: 22 75<100 700> 172 75<100 700> 322 75<100 700>
CounterMasks: 1 38
LayerCount: 2
Back
Fore
SplineSet
22 700 m 29
 98 700 l 25
 98 100 l 25
 172 100 l 25
 172 700 l 25
 248 700 l 25
 248 100 l 25
 322 100 l 25
 322 700 l 25
 398 700 l 25
 398 0 l 25
 22 0 l 25
 22 700 l 29
EndSplineSet
EndChar

StartChar: uni0429
Encoding: 1065 1065 136
Width: 420
Flags: HW
HStem: 0 100<79 154 229 304> 680 20G<4 79 154 229 304 379>
VStem: 4 75<100 700> 154 75<100 700> 304 75<100 700> 341 75<-100 0>
LayerCount: 2
Back
Fore
SplineSet
4 700 m 29xf4
 79 700 l 25
 79 100 l 25
 154 100 l 25
 154 700 l 25
 229 700 l 25
 229 100 l 25
 304 100 l 25
 304 700 l 25
 379 700 l 25
 379 100 l 25xf8
 416 100 l 25
 416 -100 l 25
 341 -100 l 25
 341 0 l 25
 4 0 l 25
 4 700 l 29xf4
EndSplineSet
EndChar

StartChar: uni042A
Encoding: 1066 1066 137
Width: 420
Flags: HW
HStem: 0 100<172 322> 300 100<172 322> 600 100<22 98>
VStem: 98 75<100 300 400 600> 322 75<100 300>
CounterMasks: 1 e0
LayerCount: 2
Back
Fore
SplineSet
172 300 m 29
 172 100 l 25
 322 100 l 25
 322 300 l 25
 172 300 l 29
22 700 m 25
 172 700 l 25
 172 400 l 25
 360 400 l 25
 360 300 l 25
 398 300 l 25
 398 100 l 25
 360 100 l 25
 360 0 l 25
 98 0 l 25
 98 600 l 25
 22 600 l 25
 22 700 l 25
EndSplineSet
EndChar

StartChar: uni042B
Encoding: 1067 1067 138
Width: 420
Flags: HW
HStem: 0 100<98 210> 300 100<98 210> 680 20G<22 98 322 398>
VStem: 22 225<0 100 300 400> 22 75<100 300 400 700> 210 75<100 300> 322 75<0 700>
LayerCount: 2
Back
Fore
SplineSet
210 300 m 29xee
 98 300 l 25
 98 100 l 25
 210 100 l 25
 210 300 l 29xee
322 700 m 25
 398 700 l 25
 398 0 l 25
 322 0 l 25
 322 700 l 25
22 700 m 25
 98 700 l 25
 98 400 l 25xea
 248 400 l 25
 248 300 l 25xf2
 285 300 l 25
 285 100 l 25xe6
 248 100 l 25
 248 0 l 25
 22 0 l 25xf2
 22 700 l 25
EndSplineSet
EndChar

StartChar: uni042C
Encoding: 1068 1068 139
Width: 420
Flags: HW
HStem: 0 100<135 285> 300 100<135 285> 680 20G<60 134>
VStem: 60 74<100 300 400 700> 285 75<101 300>
LayerCount: 2
Back
Fore
SplineSet
135 100 m 29
 285 100 l 25
 285 300 l 25
 135 300 l 25
 135 100 l 29
60 700 m 25
 134 700 l 25
 134 400 l 25
 322 400 l 25
 322 300 l 25
 358 300 l 25
 360 101 l 25
 322 100 l 25
 322 0 l 25
 60 0 l 25
 60 700 l 25
EndSplineSet
EndChar

StartChar: uni042D
Encoding: 1069 1069 140
Width: 420
Flags: HW
HStem: 0 100<116 266> 100 100<41 79> 300 100<154 304> 500 100<41 79> 600 100<116 266>
VStem: 41 75<100 200 500 600> 79 225<0 100 600 700> 266 75<100 200 500 600> 304 75<200 300 400 500>
LayerCount: 2
Back
Fore
SplineSet
41 500 m 29x35
 41 600 l 25x35
 79 600 l 25x32
 79 700 l 25
 304 700 l 25
 304 600 l 25x2a
 341 600 l 25x29
 341 500 l 25x31
 379 500 l 25
 379 200 l 25x7080
 341 200 l 25
 341 100 l 25x71
 304 100 l 25x72
 304 0 l 25
 79 0 l 25xa2
 79 100 l 25x62
 41 100 l 25
 41 200 l 25
 116 200 l 25x64
 116 100 l 25
 266 100 l 25xa5
 266 200 l 25x65
 304 200 l 25
 304 300 l 25
 154 300 l 25
 154 400 l 25
 304 400 l 25
 304 500 l 25x7080
 266 500 l 25x71
 266 600 l 25
 116 600 l 25x2d
 116 500 l 25
 41 500 l 29x35
EndSplineSet
EndChar

StartChar: uni042E
Encoding: 1070 1070 141
Width: 420
Flags: HW
HStem: 0 100<229 304> 300 100<116 154> 600 100<229 304>
VStem: 41 75<0 300 400 700> 154 75<100 300 400 600> 191 150<0 100 600 700> 304 75<100 600>
CounterMasks: 1 e0
LayerCount: 2
Back
Fore
SplineSet
229 600 m 29xfa
 229 100 l 25
 304 100 l 25
 304 600 l 25
 229 600 l 29xfa
41 700 m 25
 116 700 l 25
 116 400 l 25
 154 400 l 25
 154 600 l 25xf8
 191 600 l 25
 191 700 l 25
 341 700 l 25
 341 600 l 25xf4
 379 600 l 25
 379 100 l 25xf2
 341 100 l 25
 341 0 l 25
 191 0 l 25
 191 100 l 25xf4
 154 100 l 25
 154 300 l 25
 116 300 l 25
 116 0 l 25
 41 0 l 25
 41 700 l 25
EndSplineSet
EndChar

StartChar: uni042F
Encoding: 1071 1071 142
Width: 420
Flags: HW
HStem: 0 100<41 116> 300 100<116 191> 600 100<116 304>
VStem: 41 75<400 600> 116 112<100 200> 304 75<0 200 400 600>
CounterMasks: 1 e0
LayerCount: 2
Back
Fore
SplineSet
116 600 m 29xf4
 116 400 l 25
 304 400 l 25
 304 600 l 25
 116 600 l 29xf4
79 700 m 25
 379 700 l 25
 379 0 l 25
 304 0 l 25
 304 200 l 25
 229 200 l 25
 229 100 l 25xec
 191 100 l 25
 191 0 l 25
 41 0 l 25
 41 100 l 25xf4
 116 100 l 25
 116 200 l 25xec
 191 200 l 25
 191 300 l 25
 79 300 l 25
 79 400 l 25
 41 400 l 25
 41 600 l 25
 79 600 l 25
 79 700 l 25
EndSplineSet
EndChar

StartChar: uni0430
Encoding: 1072 1072 143
Width: 420
Flags: HW
HStem: 0 100<98 285 360 397> 100 100<22 60> 200 100<98 285> 400 100<60 285>
VStem: 22 75<100 200> 285 75<100 200 300 400>
LayerCount: 2
Back
Fore
SplineSet
98 200 m 29xbc
 98 100 l 25
 285 100 l 25
 285 200 l 25
 98 200 l 29xbc
60 500 m 25
 322 500 l 25
 322 400 l 25
 360 400 l 25
 360 100 l 25
 397 100 l 25
 398 0 l 25
 60 0 l 25xbc
 60 100 l 25
 22 100 l 25
 22 200 l 25
 60 200 l 25x5c
 60 300 l 25
 285 300 l 25
 285 400 l 25
 60 400 l 25
 60 500 l 25
EndSplineSet
EndChar

StartChar: uni0431
Encoding: 1073 1073 144
Width: 420
Flags: HW
HStem: 0 100<116 304> 300 200<191 304> 300 100<116 191> 600 100<79 116 191 379>
VStem: 41 75<100 300> 116 75<500 600> 191 112<400 500> 304 75<100 300>
LayerCount: 2
Back
Fore
SplineSet
116 300 m 29xb9
 116 100 l 25
 304 100 l 25
 304 300 l 25xd9
 116 300 l 29xb9
79 700 m 25
 379 700 l 25
 379 600 l 25
 191 600 l 25
 191 500 l 25xd5
 304 500 l 25xd2
 304 400 l 25xb2
 341 400 l 25
 341 300 l 25
 379 300 l 25
 379 100 l 25xb1
 341 100 l 25
 341 0 l 25
 79 0 l 25
 79 100 l 25
 41 100 l 25
 41 300 l 25
 79 300 l 25
 79 400 l 25
 191 400 l 25xba
 191 500 l 25
 116 500 l 25
 116 600 l 25xd4
 79 600 l 25
 79 700 l 25
EndSplineSet
EndChar

StartChar: uni0432
Encoding: 1074 1074 145
Width: 420
Flags: HW
HStem: 0 100<116 304> 100 100<341 379> 200 100<116 304> 300 100<341 379> 400 100<116 304>
VStem: 41 300<0 100 200 300 400 500> 41 75<100 200 300 400> 304 75<100 200 300 400>
LayerCount: 2
Back
Fore
SplineSet
116 200 m 29xa3
 116 100 l 25
 304 100 l 25
 304 200 l 25
 116 200 l 29xa3
116 400 m 25x2b
 116 300 l 25
 304 300 l 25
 304 400 l 25
 116 400 l 25x2b
41 500 m 25x8c
 341 500 l 25x8c
 341 400 l 25x14
 379 400 l 25
 379 300 l 25x11
 341 300 l 25
 341 200 l 25x54
 379 200 l 25
 379 100 l 25x51
 341 100 l 25x54
 341 0 l 25
 41 0 l 25
 41 500 l 25x8c
EndSplineSet
EndChar

StartChar: uni0433
Encoding: 1075 1075 146
Width: 420
Flags: HW
HStem: 0 21G<41 116> 400 100<116 379>
VStem: 41 75<0 400>
LayerCount: 2
Back
Fore
SplineSet
41 0 m 29
 41 500 l 25
 379 500 l 25
 379 401 l 25
 116 400 l 25
 116 0 l 25
 41 0 l 29
EndSplineSet
EndChar

StartChar: uni0434
Encoding: 1076 1076 147
Width: 420
Flags: HW
HStem: -100 200<22 97 322 398> -1 101<97 98 172 248> 400 100<172 248>
VStem: 22 75<-100 -1> 98 75<100 400> 248 75<100 400> 322 75<-100 0>
LayerCount: 2
Back
Fore
SplineSet
172 400 m 29x6c
 172 100 l 25
 248 100 l 25
 248 400 l 25
 172 400 l 29x6c
135 500 m 25
 322 500 l 25x6a
 322 100 l 25xa4
 398 100 l 25
 398 -100 l 25
 322 -100 l 25xa2
 322 0 l 25
 97 -1 l 25x62
 98 -100 l 25
 22 -100 l 25
 22 100 l 25xb2
 98 100 l 25
 98 400 l 25
 135 400 l 25
 135 500 l 25
EndSplineSet
EndChar

StartChar: uni0435
Encoding: 1077 1077 148
Width: 420
Flags: HW
HStem: 0 100<116 341> 200 100<116 304> 400 100<116 304>
VStem: 41 75<100 200 300 400> 304 75<300 400>
CounterMasks: 1 e0
LayerCount: 2
Back
Fore
SplineSet
116 400 m 1
 116 300 l 1
 304 300 l 1
 304 400 l 1
 116 400 l 1
79 400 m 1
 79 500 l 1
 340 500 l 1
 341 400 l 25
 379 400 l 25
 379 200 l 1
 116 200 l 1
 116 100 l 1
 341 100 l 1
 341 0 l 1
 79 0 l 1
 79 100 l 1
 41 100 l 1
 41 400 l 5
 79 400 l 1
EndSplineSet
EndChar

StartChar: uni0436
Encoding: 1078 1078 149
Width: 420
Flags: HW
HStem: 0 100<22 60 360 398> 200 100<135 172 248 285> 400 100<22 60 360 398>
VStem: 22 75<0 100 400 500> 60 75<100 200 300 400> 172 75<0 200 300 500> 285 75<100 200 300 400> 322 75<0 100 400 500>
CounterMasks: 1 e0
LayerCount: 2
Back
Fore
SplineSet
22 500 m 29xf4
 98 500 l 25
 98 400 l 25xf4
 135 400 l 25
 135 300 l 25
 172 300 l 25
 172 500 l 25
 248 500 l 25
 248 300 l 25
 285 300 l 25
 285 400 l 25xee
 322 400 l 25
 322 500 l 25
 398 500 l 25
 398 400 l 25xe5
 360 400 l 25
 360 300 l 25xe6
 322 300 l 25
 322 200 l 25xe5
 360 200 l 25
 360 100 l 25xe6
 398 100 l 25
 398 0 l 25
 322 0 l 25
 322 100 l 25xe5
 285 100 l 25
 285 200 l 25
 248 200 l 25
 248 0 l 25
 172 0 l 25
 172 200 l 25
 135 200 l 25
 135 100 l 25xee
 98 100 l 25
 98 0 l 25
 22 0 l 25
 22 100 l 25xf4
 60 100 l 25
 60 200 l 25xec
 98 200 l 25
 98 300 l 25xf4
 60 300 l 25
 60 400 l 25xec
 22 400 l 25
 22 500 l 29xf4
EndSplineSet
EndChar

StartChar: uni0437
Encoding: 1079 1079 150
Width: 420
Flags: HW
HStem: 0 100<116 304> 100 100<41 79 341 379> 300 100<41 79 341 379> 400 100<116 304>
VStem: 41 75<100 200 300 400> 304 75<100 200 300 400>
LayerCount: 2
Back
Fore
SplineSet
41 400 m 29x2c
 79 400 l 1x2c
 79 500 l 25
 341 500 l 25x1c
 341 400 l 25
 379 400 l 25
 379 300 l 25
 341 300 l 25
 341 200 l 25
 379 200 l 25
 379 100 l 25
 341 100 l 25x6c
 341 0 l 25
 79 0 l 25x8c
 79 100 l 25
 41 100 l 25
 41 200 l 25
 116 200 l 25x4c
 116 100 l 25
 304 100 l 25x8c
 304 200 l 25
 191 200 l 25
 191 300 l 25
 304 300 l 25x6c
 304 400 l 25
 116 400 l 25x1c
 116 300 l 25
 41 300 l 1
 41 400 l 29x2c
EndSplineSet
EndChar

StartChar: uni0438
Encoding: 1080 1080 151
Width: 420
Flags: HW
HStem: 0 100<116 154> 100 100<154 191> 200 100<191 229> 300 100<229 266> 400 100<266 304>
VStem: 41 112<0 100> 41 75<100 500> 154 38<100 200> 191 38<200 300> 229 38<300 400> 266 112<400 500> 304 75<0 400>
LayerCount: 2
Back
Fore
SplineSet
41 0 m 29x84
 41 500 l 5
 116 500 l 29
 116 100 l 29x8a
 154 100 l 29x8c
 154 200 l 29
 191 200 l 29x41
 191 300 l 29
 229 300 l 29x2080
 229 400 l 29
 266 400 l 29x1040
 266 500 l 29
 379 500 l 29x0820
 379 0 l 29
 304 0 l 29
 304 400 l 29x8810
 266 400 l 29
 266 300 l 29x1050
 229 300 l 29
 229 200 l 29x2080
 191 200 l 29
 191 100 l 29x41
 154 100 l 29
 154 0 l 5
 41 0 l 29x84
EndSplineSet
EndChar

StartChar: uni0439
Encoding: 1081 1081 152
Width: 420
Flags: HW
HStem: 0 100<116 154> 100 100<154 191> 200 100<191 229> 300 100<229 266> 400 100<266 304> 600 100<154 266> 700 100<79 116 304 341>
VStem: 41 75<100 500> 79 75<700 800> 154 38<100 200> 191 38<200 300> 229 38<300 400> 266 75<700 800> 304 75<0 400>
LayerCount: 2
Back
Fore
SplineSet
79 800 m 29x0280
 154 800 l 29x0280
 154 700 l 29
 266 700 l 29x0488
 266 800 l 29
 341 800 l 29
 341 700 l 29x0288
 304 700 l 29x0204
 304 600 l 29
 116 600 l 29x0504
 116 700 l 29x0304
 79 700 l 29
 79 800 l 29x0280
41 0 m 25x8140
 41 500 l 1
 116 500 l 25
 116 100 l 25
 154 100 l 25x8940
 154 200 l 25
 191 200 l 25x4140
 191 300 l 25
 229 300 l 25x2020
 229 400 l 25
 266 400 l 25x1010
 266 500 l 25x0808
 379 500 l 25
 379 0 l 25
 304 0 l 25
 304 400 l 25x8804
 266 400 l 25
 266 300 l 25x1014
 229 300 l 25
 229 200 l 25x2020
 191 200 l 25
 191 100 l 25x4040
 154 100 l 25
 154 0 l 1
 41 0 l 25x8140
EndSplineSet
EndChar

StartChar: uni043A
Encoding: 1082 1082 153
Width: 420
Flags: HW
HStem: 0 100<304 379> 200 100<116 229> 400 100<304 379>
VStem: 41 75<0 200 300 500> 229 75<100 200 300 400> 266 112<0 100 400 500>
CounterMasks: 1 e0
LayerCount: 2
Back
Fore
SplineSet
41 500 m 29xf8
 116 500 l 25
 116 300 l 25
 229 300 l 25
 229 400 l 25xf8
 266 400 l 25
 266 500 l 25
 379 500 l 25
 379 400 l 25xf4
 304 400 l 25
 304 300 l 25xf8
 266 300 l 25
 266 200 l 25xf4
 304 200 l 25
 304 100 l 25xf8
 379 100 l 25
 379 0 l 25
 266 0 l 25
 266 100 l 25xf4
 229 100 l 25
 229 200 l 25
 116 200 l 25
 116 0 l 25
 41 0 l 25
 41 500 l 29xf8
EndSplineSet
EndChar

StartChar: uni043B
Encoding: 1083 1083 154
Width: 420
Flags: HW
HStem: 0 100<41 79> 400 100<154 304>
VStem: 41 75<0 100> 79 75<100 400> 304 75<0 400>
LayerCount: 2
Back
Fore
SplineSet
41 100 m 29xe8
 79 100 l 25
 79 400 l 25xd8
 116 400 l 25
 116 500 l 25xe8
 379 500 l 25
 379 0 l 25
 304 0 l 25
 304 400 l 25
 154 400 l 25
 154 100 l 25xd8
 116 100 l 25
 116 0 l 25
 41 0 l 25
 41 100 l 29xe8
EndSplineSet
EndChar

StartChar: uni043C
Encoding: 1084 1084 155
Width: 420
Flags: HW
HStem: 0 21G<41 116 304 379> 480 20G<41 154 266 379>
VStem: 41 112<400 500> 41 75<0 300> 154 112<200 300> 266 112<400 500> 304 75<0 300>
LayerCount: 2
Back
Fore
SplineSet
41 0 m 29xda
 41 500 l 25
 154 500 l 25
 154 400 l 25
 191 400 l 25
 191 300 l 25
 229 300 l 25
 229 400 l 25
 266 400 l 25
 266 500 l 25
 379 500 l 25xe4
 379 0 l 25
 304 0 l 25
 304 300 l 25
 266 300 l 25
 266 200 l 25
 229 200 l 25
 229 100 l 25
 191 100 l 25
 191 200 l 25
 154 200 l 25
 154 300 l 25
 116 300 l 25
 116 0 l 25
 41 0 l 29xda
EndSplineSet
EndChar

StartChar: uni043D
Encoding: 1085 1085 156
Width: 420
Flags: HW
HStem: 0 21G<60 135 285 360> 200 100<135 285> 480 20G<60 135 285 360>
VStem: 60 75<0 200 300 500> 285 75<0 200 300 500>
LayerCount: 2
Back
Fore
SplineSet
60 500 m 25
 135 500 l 25
 135 300 l 1
 285 300 l 1
 285 500 l 5
 360 500 l 1
 360 0 l 1
 285 0 l 1
 285 200 l 1
 135 200 l 1
 135 0 l 25
 60 0 l 25
 60 500 l 25
EndSplineSet
EndChar

StartChar: uni043E
Encoding: 1086 1086 157
Width: 420
Flags: HW
HStem: 0 100<116 304> 400 100<116 304>
VStem: 41 75<100 400> 304 75<100 400>
LayerCount: 2
Back
Fore
SplineSet
116 400 m 29
 116 100 l 25
 304 100 l 25
 304 400 l 25
 116 400 l 29
79 500 m 25
 341 500 l 25
 341 400 l 25
 379 400 l 25
 379 100 l 25
 341 100 l 25
 341 0 l 25
 79 0 l 25
 79 100 l 25
 41 100 l 25
 41 400 l 25
 79 400 l 25
 79 500 l 25
EndSplineSet
EndChar

StartChar: uni043F
Encoding: 1087 1087 158
Width: 420
Flags: HW
HStem: 0 21G<41 116 304 379> 400 100<116 304>
VStem: 41 75<0 400> 304 75<0 400>
LayerCount: 2
Back
Fore
SplineSet
41 0 m 29
 41 500 l 25
 379 500 l 25
 379 0 l 25
 304 0 l 25
 304 400 l 25
 116 400 l 25
 116 0 l 25
 41 0 l 29
EndSplineSet
EndChar

StartChar: uni0440
Encoding: 1088 1088 159
Width: 420
Flags: HW
HStem: -200 21G<41 116> 0 100<154 304> 100 100<116 154> 300 100<116 154> 400 100<154 304>
VStem: 41 112<100 200 300 400> 41 75<-200 100 200 300 400 500> 154 188<0 100 400 500> 304 75<100 400>
LayerCount: 2
Back
Fore
SplineSet
154 300 m 29x9480
 116 300 l 25
 116 200 l 25xb2
 154 200 l 25xb4
 154 100 l 25
 304 100 l 25
 304 400 l 25xcc80
 154 400 l 25
 154 300 l 29x9480
41 500 m 25xaa
 116 500 l 25xaa
 116 400 l 25x92
 154 400 l 25x94
 154 500 l 25
 341 500 l 25
 341 400 l 25x89
 379 400 l 25
 379 100 l 25xa880
 341 100 l 25xa9
 341 0 l 25
 154 0 l 25xc1
 154 100 l 25xc4
 116 100 l 25
 116 -200 l 25
 41 -200 l 25
 41 500 l 25xaa
EndSplineSet
EndChar

StartChar: uni0441
Encoding: 1089 1089 160
Width: 420
Flags: HW
HStem: 0 100<154 379> 200 100<41 79> 400 100<154 379>
VStem: 41 75<200 300> 79 75<100 200 300 400>
CounterMasks: 1 e0
LayerCount: 2
Back
Fore
SplineSet
116 500 m 29xf0
 379 500 l 25
 379 400 l 25
 154 400 l 25
 154 300 l 25xe8
 116 300 l 25
 116 200 l 25xf0
 154 200 l 25
 154 100 l 25xe8
 379 100 l 25
 379 0 l 25
 116 0 l 25
 116 100 l 25xf0
 79 100 l 25
 79 200 l 25xe8
 41 200 l 25
 41 300 l 25xf0
 79 300 l 25
 79 400 l 25xe8
 116 400 l 25
 116 500 l 29xf0
EndSplineSet
EndChar

StartChar: uni0442
Encoding: 1090 1090 161
Width: 420
Flags: HW
HStem: 0 21G<172 248> 400 100<22 172 248 398>
VStem: 172 75<0 400>
LayerCount: 2
Back
Fore
SplineSet
22 500 m 1
 398 500 l 1
 398 400 l 5
 248 400 l 1
 248 0 l 25
 172 0 l 25
 172 400 l 1
 22 400 l 1
 22 500 l 1
EndSplineSet
EndChar

StartChar: uni0443
Encoding: 1091 1091 162
Width: 420
Flags: HW
HStem: -200 100<41 116> 400 100<41 79 341 379>
VStem: 41 75<400 500> 79 75<300 400> 116 75<-100 0 200 300> 154 112<100 200> 154 75<0 100> 229 75<200 300> 266 75<300 400> 304 75<400 500>
LayerCount: 2
Back
Fore
SplineSet
41 500 m 29xe0
 116 500 l 25
 116 400 l 25xe0
 154 400 l 25
 154 300 l 25xd0
 191 300 l 25
 191 200 l 25
 229 200 l 25
 229 300 l 25xc9
 266 300 l 25
 266 400 l 25xc080
 304 400 l 25
 304 500 l 25
 379 500 l 25
 379 400 l 25xc040
 341 400 l 25
 341 300 l 25xc080
 304 300 l 25
 304 200 l 25xc1
 266 200 l 25
 266 100 l 25xc4
 229 100 l 25
 229 0 l 25xc2
 191 0 l 25
 191 -100 l 25xc8
 154 -100 l 25
 154 -200 l 25
 41 -200 l 25
 41 -100 l 25xe2
 116 -100 l 25
 116 0 l 25xc8
 154 0 l 25xc2
 154 200 l 25xc4
 116 200 l 25
 116 300 l 25xc8
 79 300 l 25
 79 400 l 25xd0
 41 400 l 25
 41 500 l 29xe0
EndSplineSet
EndChar

StartChar: uni0444
Encoding: 1092 1092 163
Width: 420
Flags: HW
HStem: -200 21G<172 248> 0 100<98 172 248 322> 400 100<98 172 248 322> 680 20G<172 248>
VStem: 22 75<100 400> 172 75<-200 0 100 400 500 700> 322 75<100 400>
CounterMasks: 1 0e
LayerCount: 2
Back
Fore
SplineSet
172 400 m 29
 98 400 l 25
 98 100 l 25
 172 100 l 25
 172 400 l 29
248 400 m 25
 248 100 l 25
 322 100 l 25
 322 400 l 25
 248 400 l 25
172 700 m 25
 248 700 l 25
 248 500 l 25
 360 500 l 25
 360 400 l 25
 398 400 l 25
 398 100 l 25
 360 100 l 25
 360 0 l 25
 248 0 l 25
 248 -200 l 25
 172 -200 l 25
 172 0 l 25
 60 0 l 25
 60 100 l 25
 22 100 l 25
 22 400 l 25
 60 400 l 25
 60 500 l 25
 172 500 l 25
 172 700 l 25
EndSplineSet
EndChar

StartChar: uni0445
Encoding: 1093 1093 164
Width: 420
Flags: HW
HStem: 0 100<22 98 322 398> 200 100<172 248> 400 100<22 98 322 398>
VStem: 22 112<0 100 400 500> 98 75<100 200 300 400> 248 75<100 200 300 400> 285 112<0 100 400 500>
CounterMasks: 1 e0
LayerCount: 2
Back
Fore
SplineSet
22 500 m 29xf0
 135 500 l 25
 135 400 l 25xf0
 172 400 l 25
 172 300 l 25
 248 300 l 25
 248 400 l 25xec
 285 400 l 25
 285 500 l 25
 398 500 l 25
 398 400 l 25xe2
 322 400 l 25
 322 300 l 25xe4
 285 300 l 25
 285 200 l 25xe2
 322 200 l 25
 322 100 l 25xe4
 398 100 l 25
 398 0 l 25
 285 0 l 25
 285 100 l 25xe2
 248 100 l 25
 248 200 l 25
 172 200 l 25
 172 100 l 25xec
 135 100 l 25
 135 0 l 25
 22 0 l 25
 22 100 l 25xf0
 98 100 l 25
 98 200 l 25xe8
 135 200 l 25
 135 300 l 25xf0
 98 300 l 25
 98 400 l 25xe8
 22 400 l 25
 22 500 l 29xf0
EndSplineSet
EndChar

StartChar: uni0446
Encoding: 1094 1094 165
Width: 420
Flags: HW
HStem: 0 100<116 229> 480 20G<41 116 229 304>
VStem: 41 75<100 500> 229 75<100 500> 304 75<-100 0>
LayerCount: 2
Back
Fore
SplineSet
41 500 m 29xe8
 116 500 l 25
 116 100 l 25
 229 100 l 25
 229 500 l 25
 304 500 l 25
 304 100 l 25xf0
 379 100 l 25
 379 -100 l 25
 304 -100 l 25
 304 0 l 25
 41 0 l 25
 41 500 l 29xe8
EndSplineSet
EndChar

StartChar: uni0447
Encoding: 1095 1095 166
Width: 420
Flags: HW
HStem: 0 21G<304 379> 200 100<116 304> 480 20G<41 116 304 379>
VStem: 41 75<300 500> 304 75<0 200 300 500>
LayerCount: 2
Back
Fore
SplineSet
41 500 m 29
 116 500 l 25
 116 300 l 25
 304 300 l 25
 304 500 l 25
 379 500 l 25
 379 0 l 25
 304 0 l 25
 304 200 l 25
 79 200 l 25
 79 300 l 25
 41 300 l 25
 41 500 l 29
EndSplineSet
EndChar

StartChar: uni0448
Encoding: 1096 1096 167
Width: 420
Flags: HW
HStem: 0 100<98 172 248 322> 480 20G<22 98 172 248 322 398>
VStem: 22 75<100 500> 172 75<100 500> 322 75<100 500>
CounterMasks: 1 38
LayerCount: 2
Back
Fore
SplineSet
22 500 m 29
 98 500 l 25
 98 100 l 25
 172 100 l 25
 172 500 l 25
 248 500 l 25
 248 100 l 25
 322 100 l 25
 322 500 l 25
 398 500 l 25
 398 0 l 25
 22 0 l 25
 22 500 l 29
EndSplineSet
EndChar

StartChar: uni0449
Encoding: 1097 1097 168
Width: 420
Flags: HW
HStem: 0 100<79 154 229 304> 480 20G<4 79 154 229 304 379>
VStem: 4 75<100 500> 154 75<100 500> 304 75<100 500> 341 75<-100 0>
LayerCount: 2
Back
Fore
SplineSet
4 500 m 29xf4
 79 500 l 25
 79 100 l 25
 154 100 l 25
 154 500 l 25
 229 500 l 25
 229 100 l 25
 304 100 l 25
 304 500 l 25
 379 500 l 25
 379 100 l 25xf8
 416 100 l 25
 416 -100 l 25
 341 -100 l 25
 341 0 l 25
 4 0 l 25
 4 500 l 29xf4
EndSplineSet
EndChar

StartChar: uni044A
Encoding: 1098 1098 169
Width: 420
Flags: HW
HStem: 0 100<172 322> 100 100<360 398> 200 100<172 322> 400 100<22 98>
VStem: 98 75<100 200 300 400> 322 75<100 200>
LayerCount: 2
Back
Fore
SplineSet
172 200 m 29xbc
 172 100 l 25
 322 100 l 25
 322 200 l 25
 172 200 l 29xbc
22 500 m 25
 172 500 l 25
 172 300 l 25
 360 300 l 25xbc
 360 200 l 25
 398 200 l 25
 398 100 l 25
 360 100 l 25x5c
 360 0 l 25
 98 0 l 25
 98 400 l 25
 22 400 l 25
 22 500 l 25
EndSplineSet
EndChar

StartChar: uni044B
Encoding: 1099 1099 170
Width: 420
Flags: HW
HStem: 0 100<98 210> 100 100<248 285> 200 100<98 210> 480 20G<22 98 322 398>
VStem: 22 225<0 100 200 300> 22 75<100 200 300 500> 210 75<100 200> 322 75<0 500>
LayerCount: 2
Back
Fore
SplineSet
322 0 m 29x91
 322 500 l 25
 398 500 l 25
 398 0 l 25
 322 0 l 29x91
98 200 m 25xb7
 98 100 l 25
 210 100 l 25
 210 200 l 25
 98 200 l 25xb7
22 500 m 25
 98 500 l 25
 98 300 l 25xb5
 248 300 l 25xb9
 248 200 l 25x59
 285 200 l 25
 285 100 l 25x53
 248 100 l 25x59
 248 0 l 25
 22 0 l 25x99
 22 500 l 25
EndSplineSet
EndChar

StartChar: uni044C
Encoding: 1100 1100 171
Width: 420
Flags: HW
HStem: 0 100<116 304> 100 100<341 379> 200 100<116 304> 480 20G<41 116>
VStem: 41 75<100 200 300 500> 304 75<100 200>
LayerCount: 2
Back
Fore
SplineSet
116 100 m 1xbc
 304 100 l 1
 304 200 l 1
 116 200 l 1
 116 100 l 1xbc
41 500 m 1
 116 500 l 1
 116 300 l 5
 341 300 l 1xbc
 341 200 l 25
 379 200 l 25
 379 100 l 25
 341 100 l 25x5c
 341 0 l 1
 41 0 l 1
 41 500 l 1
EndSplineSet
EndChar

StartChar: uni044D
Encoding: 1101 1101 172
Width: 420
Flags: HW
HStem: 0 100<116 304> 100 100<41 79> 200 100<191 304> 300 100<41 79> 400 100<116 304>
VStem: 41 75<100 200 300 400> 304 75<100 200 300 400>
LayerCount: 2
Back
Fore
SplineSet
41 300 m 29x16
 41 400 l 25
 79 400 l 25x16
 79 500 l 25
 341 500 l 25
 341 400 l 25
 379 400 l 25
 379 100 l 25
 341 100 l 25x4e
 341 0 l 25
 79 0 l 25x86
 79 100 l 25
 41 100 l 25
 41 200 l 25x46
 116 200 l 25
 116 100 l 25
 304 100 l 25
 304 200 l 25
 191 200 l 25
 191 300 l 25
 304 300 l 25
 304 400 l 25
 116 400 l 25xae
 116 300 l 25
 41 300 l 29x16
EndSplineSet
EndChar

StartChar: uni044E
Encoding: 1102 1102 173
Width: 420
Flags: HW
HStem: 0 100<229 304> 200 100<116 154> 400 100<229 304>
VStem: 41 75<0 200 300 500> 154 75<100 200 300 400> 191 150<0 100 400 500> 304 75<100 400>
CounterMasks: 1 e0
LayerCount: 2
Back
Fore
SplineSet
229 100 m 29xfa
 304 100 l 25
 304 400 l 25
 229 400 l 25
 229 100 l 29xfa
41 0 m 25
 41 500 l 25
 116 500 l 25
 116 300 l 25
 154 300 l 25
 154 400 l 25xf8
 191 400 l 25
 191 500 l 25
 341 500 l 25
 341 400 l 25xf4
 379 400 l 25
 379 100 l 25xf2
 341 100 l 25
 341 0 l 25
 191 0 l 25
 191 100 l 25xf4
 154 100 l 25
 154 200 l 25
 116 200 l 25
 116 0 l 25
 41 0 l 25
EndSplineSet
EndChar

StartChar: uni044F
Encoding: 1103 1103 174
Width: 420
Flags: HW
HStem: 0 100<79 154> 200 100<116 154 266 304> 300 100<41 79> 400 100<116 304>
VStem: 41 75<300 400> 79 112<0 100> 154 112<100 200> 304 75<0 200 300 400>
LayerCount: 2
Back
Fore
SplineSet
116 400 m 29xd9
 116 300 l 25
 304 300 l 25
 304 400 l 25
 116 400 l 29xd9
41 400 m 25xa9
 79 400 l 25xa5
 79 500 l 25x95
 379 500 l 25
 379 0 l 25
 304 0 l 25
 304 200 l 25
 266 200 l 25
 266 100 l 25xd3
 191 100 l 25
 191 0 l 25
 79 0 l 25
 79 100 l 25xd5
 154 100 l 25
 154 200 l 25xd3
 79 200 l 25xd5
 79 300 l 25xa5
 41 300 l 25
 41 400 l 25xa9
EndSplineSet
EndChar

StartChar: uni2116
Encoding: 8470 8470 175
Width: 420
Flags: HW
HStem: 0 21G<-15 60 135 210> 200 100<248 435> 400 100<322 360> 500 100<248 285 398 435> 600 100<322 360>
VStem: -15 112<400 600> -15 75<0 250 600 700> 98 112<100 250> 135 75<0 100 400 700> 248 75<500 600> 285 112<400 500 600 700> 360 75<500 600>
LayerCount: 2
Back
Fore
SplineSet
248 300 m 29xc050
 435 300 l 25
 435 200 l 25
 248 200 l 25
 248 300 l 29xc050
322 600 m 25xe850
 322 500 l 25
 360 500 l 25
 360 600 l 25
 322 600 l 25xe850
285 600 m 25xd020
 285 700 l 25
 398 700 l 25xc820
 398 600 l 25xd020
 435 600 l 25
 435 500 l 25xd010
 398 500 l 25xd020
 398 400 l 25
 285 400 l 25xe020
 285 500 l 25xd020
 248 500 l 25
 248 600 l 25xd040
 285 600 l 25xd020
-15 0 m 25xeb
 -15 700 l 25
 60 700 l 25
 60 600 l 25xeb
 98 600 l 25
 98 400 l 25
 135 400 l 25
 135 700 l 25
 210 700 l 25
 210 0 l 25
 135 0 l 25
 135 100 l 25xec80
 98 100 l 25
 98 250 l 25
 60 250 l 25
 60 0 l 25
 -15 0 l 25xeb
EndSplineSet
EndChar

StartChar: asciitilde
Encoding: 126 126 176
Width: 420
Flags: HW
HStem: 500 100<41 79 229 304> 600 100<116 191 341 379>
VStem: 41 75<501 600> 304 75<600 700>
LayerCount: 2
Back
Fore
SplineSet
41 600 m 29xb0
 79 600 l 25xb0
 79 700 l 25
 229 700 l 25x70
 229 600 l 25
 304 600 l 25xb0
 304 700 l 25
 379 700 l 25
 379 600 l 25
 341 600 l 25x70
 341 500 l 25
 191 500 l 25xb0
 191 600 l 25
 116 600 l 25x70
 116 500 l 25
 41 501 l 25
 41 600 l 29xb0
EndSplineSet
EndChar

StartChar: section
Encoding: 167 167 177
Width: 420
Flags: HW
HStem: 0 100<98 210> 100 100<22 60> 200 100<172 210> 300 100<98 135 285 322> 400 100<210 248> 500 100<360 398> 600 100<210 322>
VStem: 22 75<100 200> 98 75<300 400> 135 75<500 600> 210 75<100 200> 248 75<300 400> 322 75<500 600>
LayerCount: 2
Back
Fore
SplineSet
248 400 m 29x0890
 172 400 l 25
 172 300 l 25x2890
 248 300 l 25x1090
 248 400 l 29x0890
322 500 m 25x0488
 322 600 l 25
 210 600 l 25
 210 500 l 25x0a48
 285 500 l 25
 285 400 l 25x1420
 322 400 l 25
 322 300 l 25x1410
 285 300 l 25
 285 100 l 25x5420
 248 100 l 25x5410
 248 0 l 25
 60 0 l 25x8010
 60 100 l 25
 22 100 l 25
 22 200 l 25x4110
 98 200 l 25
 98 100 l 25
 210 100 l 25
 210 200 l 25xa120
 135 200 l 25xa040
 135 300 l 25x1040
 98 300 l 25
 98 400 l 25x1080
 135 400 l 25
 135 600 l 25x1240
 172 600 l 25
 172 700 l 25
 360 700 l 25x1280
 360 600 l 25
 398 600 l 25
 398 500 l 25
 322 500 l 25x0488
EndSplineSet
EndChar

StartChar: parenleft
Encoding: 40 40 178
Width: 420
Flags: HW
HStem: 0 100<229 304> 600 100<229 304>
VStem: 116 75<200 500> 154 75<100 200 500 600> 191 112<0 100 600 700>
LayerCount: 2
Back
Fore
SplineSet
191 600 m 29xc8
 191 700 l 25
 304 700 l 25
 304 600 l 25xc8
 229 600 l 25
 229 500 l 25xd0
 191 500 l 25
 191 200 l 25xe0
 229 200 l 25
 229 100 l 25xd0
 304 100 l 25
 304 0 l 25
 191 0 l 25
 191 100 l 25xc8
 154 100 l 25
 154 200 l 25xd0
 116 200 l 25
 116 500 l 25xe0
 154 500 l 25
 154 600 l 25xd0
 191 600 l 29xc8
EndSplineSet
EndChar

StartChar: quotedbl
Encoding: 34 34 179
Width: 420
Flags: HW
HStem: 400 100<60 98 248 285> 600 100<60 98 248 285>
VStem: 60 75<400 500> 98 75<500 600> 248 75<400 500> 285 75<500 600>
LayerCount: 2
Back
Fore
SplineSet
248 400 m 29xc8
 248 500 l 29xc8
 285 500 l 29
 285 600 l 29xc4
 248 600 l 29
 248 700 l 29xc8
 360 700 l 29
 360 500 l 29xc4
 322 500 l 29
 322 400 l 29
 248 400 l 29xc8
60 600 m 29xe0
 60 700 l 29xe0
 172 700 l 29
 172 500 l 29xd0
 135 500 l 29
 135 400 l 29
 60 400 l 29
 60 500 l 29xe0
 98 500 l 29
 98 600 l 29xd0
 60 600 l 29xe0
EndSplineSet
EndChar

StartChar: numbersign
Encoding: 35 35 180
Width: 420
Flags: HW
HStem: 0 21G<98 172 248 322> 200 100<22 98 172 248 322 398> 400 100<22 98 172 248 322 398> 680 20G<98 172 248 322>
VStem: 98 75<0 200 300 400 500 700> 248 75<0 200 300 400 500 700>
LayerCount: 2
Back
Fore
SplineSet
172 300 m 29
 248 300 l 25
 248 400 l 25
 172 400 l 25
 172 300 l 29
98 700 m 25
 172 700 l 25
 172 500 l 25
 248 500 l 25
 248 700 l 25
 322 700 l 25
 322 500 l 25
 398 500 l 25
 398 400 l 25
 322 400 l 25
 322 300 l 25
 398 300 l 25
 398 200 l 25
 322 200 l 25
 322 0 l 25
 248 0 l 25
 248 200 l 25
 172 200 l 25
 172 0 l 25
 98 0 l 25
 98 200 l 25
 22 200 l 25
 22 300 l 25
 98 300 l 25
 98 400 l 25
 22 400 l 25
 22 500 l 25
 98 500 l 25
 98 700 l 25
EndSplineSet
EndChar

StartChar: dollar
Encoding: 36 36 181
Width: 420
Flags: HW
HStem: 0 100<98 172 248 322> 100 100<22 60> 300 100<98 172 248 322> 500 100<360 398> 600 100<98 172 248 322>
VStem: 22 75<100 200 400 600> 60 300<0 100 300 400 600 700> 172 75<-100 0 100 300 400 600 700 800> 322 75<100 300 500 600>
LayerCount: 2
Back
Fore
SplineSet
322 100 m 29xa180
 322 300 l 25
 248 300 l 25
 248 100 l 25
 322 100 l 29xa180
172 600 m 25x2d
 98 600 l 25
 98 400 l 25
 172 400 l 25
 172 600 l 25x2d
248 800 m 25
 248 700 l 1xa9
 360 700 l 25xaa
 360 600 l 25x32
 398 600 l 25
 398 500 l 25
 322 500 l 25x3080
 322 600 l 25
 248 600 l 25
 248 400 l 25x2980
 360 400 l 25
 360 300 l 25x2a
 398 300 l 25
 398 100 l 25x6880
 360 100 l 25x6a
 360 0 l 25xa2
 248 0 l 25
 248 -100 l 25
 172 -100 l 25
 172 0 l 25xa1
 60 0 l 25xa2
 60 100 l 25x62
 22 100 l 25
 22 200 l 25
 98 200 l 25x64
 98 100 l 25
 172 100 l 25
 172 300 l 25xa5
 60 300 l 25
 60 400 l 25xa2
 22 400 l 25
 22 600 l 25xac
 60 600 l 25
 60 700 l 25xaa
 172 700 l 25
 172 800 l 1
 248 800 l 25
EndSplineSet
EndChar

StartChar: percent
Encoding: 37 37 182
Width: 420
Flags: HW
HStem: 0 100<60 98 322 360> 100 100<248 285 398 435> 200 100<322 360> 400 100<60 98> 500 100<-15 22 135 172> 600 100<60 98 322 360>
VStem: -15 75<500 600> 22 112<400 500 600 700> 60 75<0 100> 98 75<100 200 500 600> 135 75<200 300> 172 75<300 400> 210 75<400 500> 248 75<100 200 500 600> 285 112<0 100 200 300> 285 75<600 700> 360 75<100 200>
LayerCount: 2
Back
Fore
SplineSet
285 700 m 29x0401
 360 700 l 25
 360 600 l 25x0401
 322 600 l 25x0404
 322 500 l 25x0804
 285 500 l 25x0808
 285 400 l 25x1008
 248 400 l 25
 248 300 l 25x3010
 210 300 l 25
 210 200 l 25x3020
 172 200 l 25x3040
 172 100 l 25x4040
 135 100 l 25x4080
 135 0 l 25
 60 0 l 25
 60 100 l 25x8080
 98 100 l 25
 98 200 l 25xa040
 135 200 l 25
 135 300 l 25xa020
 172 300 l 25
 172 400 l 25xb010
 210 400 l 25xb008
 210 500 l 25x0808
 248 500 l 25x0804
 248 600 l 25x0404
 285 600 l 25
 285 700 l 29x0401
322 100 m 25xa00480
 360 100 l 25
 360 200 l 25
 322 200 l 25
 322 100 l 25xa00480
285 300 m 25x2002
 398 300 l 25x2002
 398 200 l 25x4002
 435 200 l 25
 435 100 l 25x400080
 398 100 l 25x4002
 398 0 l 25
 285 0 l 25x8002
 285 100 l 25x4002
 248 100 l 25
 248 200 l 25x4004
 285 200 l 25x4002
 285 300 l 25x2002
60 600 m 25x1640
 60 500 l 25
 98 500 l 25
 98 600 l 25
 60 600 l 25x1640
-15 600 m 25x0a
 22 600 l 25x09
 22 700 l 25
 135 700 l 25x05
 135 600 l 25x09
 172 600 l 25
 172 500 l 25x0840
 135 500 l 25x09
 135 400 l 25
 22 400 l 25x11
 22 500 l 25x09
 -15 500 l 25
 -15 600 l 25x0a
EndSplineSet
EndChar

StartChar: ampersand
Encoding: 38 38 183
Width: 420
Flags: HW
HStem: 0 100<79 229 341 416> 100 100<4 41 266 304> 200 100<341 379> 300 100<116 191> 600 100<116 191>
VStem: 4 75<100 200> 41 75<200 300 400 600> 79 150<300 400 600 700> 191 75<200 300 400 600> 304 112<0 100> 304 75<200 300>
LayerCount: 2
Back
Fore
SplineSet
116 300 m 29x1a80
 116 200 l 25x2a80
 79 200 l 25
 79 100 l 25xac
 229 100 l 25
 229 200 l 25xa9
 191 200 l 25xa880
 191 300 l 25
 116 300 l 29x1a80
116 600 m 25
 116 400 l 25
 191 400 l 25x1a80
 191 600 l 25
 116 600 l 25
79 700 m 25x59
 229 700 l 25
 229 600 l 25x59
 266 600 l 25
 266 400 l 25x5880
 229 400 l 25
 229 300 l 25x59
 266 300 l 25
 266 200 l 25
 304 200 l 25
 304 300 l 25x58a0
 379 300 l 25
 379 200 l 25x28a0
 341 200 l 25
 341 100 l 25
 416 100 l 25
 416 0 l 25
 304 0 l 25xa840
 304 100 l 25
 266 100 l 25x48c0
 266 0 l 25
 41 0 l 25x8ac0
 41 100 l 25x4ac0
 4 100 l 25
 4 200 l 25x4c
 41 200 l 25
 41 300 l 25x5a
 79 300 l 25
 79 400 l 25x59
 41 400 l 25
 41 600 l 25x5a
 79 600 l 25
 79 700 l 25x59
EndSplineSet
EndChar

StartChar: quotesingle
Encoding: 39 39 184
Width: 420
Flags: HW
HStem: 400 100<60 98 248 285> 600 100<60 98 248 285>
VStem: 60 75<400 500> 98 75<500 600> 248 75<400 500> 285 75<500 600>
LayerCount: 2
Back
Fore
SplineSet
248 400 m 29xc8
 248 500 l 29xc8
 285 500 l 29
 285 600 l 29xc4
 248 600 l 29
 248 700 l 29xc8
 360 700 l 29
 360 500 l 29xc4
 322 500 l 29
 322 400 l 29
 248 400 l 29xc8
60 600 m 29xe0
 60 700 l 29xe0
 172 700 l 29
 172 500 l 29xd0
 135 500 l 29
 135 400 l 29
 60 400 l 29
 60 500 l 29xe0
 98 500 l 29
 98 600 l 29xd0
 60 600 l 29xe0
EndSplineSet
EndChar

StartChar: parenright
Encoding: 41 41 185
Width: 420
Flags: HW
HStem: 0 100<116 191> 600 100<116 191>
VStem: 116 112<0 100 600 700> 191 75<100 200 500 600> 229 75<200 500>
LayerCount: 2
Back
Fore
SplineSet
116 700 m 29xe0
 229 700 l 25
 229 600 l 25xe0
 266 600 l 25
 266 500 l 25xd0
 304 500 l 25
 304 200 l 25xc8
 266 200 l 25
 266 100 l 25xd0
 229 100 l 25
 229 0 l 25
 116 0 l 25
 116 100 l 25xe0
 191 100 l 25
 191 200 l 25xd0
 229 200 l 25
 229 500 l 25xc8
 191 500 l 25
 191 600 l 25xd0
 116 600 l 25
 116 700 l 29xe0
EndSplineSet
EndChar

StartChar: braceleft
Encoding: 123 123 186
Width: 420
Flags: HW
HStem: 0 100<248 322> 300 100<98 172> 600 100<248 322>
VStem: 98 112<300 400> 172 75<100 300 400 600> 210 112<0 100 600 700>
CounterMasks: 1 e0
LayerCount: 2
Back
Fore
SplineSet
322 700 m 29xe4
 322 600 l 1xe4
 248 600 l 25
 248 400 l 25xe8
 210 400 l 25
 210 300 l 25xf0
 248 300 l 25
 248 100 l 25xe8
 322 100 l 25
 322 0 l 25
 210 0 l 25
 210 100 l 25xe4
 172 100 l 25
 172 300 l 25xe8
 98 300 l 25
 98 400 l 25xf0
 172 400 l 25
 172 600 l 25xe8
 210 600 l 25
 210 700 l 1
 322 700 l 29xe4
EndSplineSet
EndChar

StartChar: bar
Encoding: 124 124 187
Width: 420
Flags: HW
HStem: 0 21G<172 248> 680 20G<172 248>
VStem: 172 75<0 700>
LayerCount: 2
Back
Fore
SplineSet
172 700 m 29
 248 700 l 25
 248 0 l 25
 172 0 l 25
 172 700 l 29
EndSplineSet
EndChar

StartChar: braceright
Encoding: 125 125 188
Width: 420
Flags: HW
HStem: 0 100<98 172> 300 100<248 322> 600 100<98 172>
VStem: 98 112<0 100 600 700> 172 75<100 300 400 600> 210 112<300 400>
CounterMasks: 1 e0
LayerCount: 2
Back
Fore
SplineSet
98 700 m 29xf0
 210 700 l 25
 210 600 l 25xf0
 248 600 l 25
 248 400 l 25xe8
 322 400 l 25
 322 300 l 25xe4
 248 300 l 25
 248 100 l 25xe8
 210 100 l 25
 210 0 l 25
 98 0 l 25
 98 100 l 25xf0
 172 100 l 25
 172 300 l 25xe8
 210 300 l 25
 210 400 l 25xe4
 172 400 l 25
 172 600 l 25xe8
 98 600 l 25
 98 700 l 29xf0
EndSplineSet
EndChar

StartChar: uni0451
Encoding: 1105 1105 189
Width: 420
Flags: HW
HStem: 0 100<116 341> 200 100<116 304> 400 100<116 304> 600 100<79 154 266 341>
VStem: 41 75<100 200 300 400> 79 75<600 700> 266 75<600 700> 304 75<300 400>
LayerCount: 2
Back
Fore
SplineSet
266 700 m 25xf2
 341 700 l 25
 341 600 l 25
 266 600 l 25
 266 700 l 25xf2
79 700 m 25xf4
 154 700 l 25
 154 600 l 25
 79 600 l 25
 79 700 l 25xf4
116 400 m 1xf9
 116 300 l 1
 304 300 l 1
 304 400 l 1
 116 400 l 1xf9
79 400 m 1xf4
 80 500 l 1
 340 500 l 1
 341 400 l 25xf6
 379 400 l 25
 379 200 l 1
 116 200 l 1
 116 100 l 1xf9
 341 100 l 1
 341 0 l 1
 79 0 l 1
 79 100 l 1xf6
 41 100 l 1
 41 400 l 5xf8
 79 400 l 1xf4
EndSplineSet
EndChar

StartChar: underscore
Encoding: 95 95 190
Width: 420
Flags: HW
HStem: -100 100<22 398>
LayerCount: 2
Back
Fore
SplineSet
22 -100 m 29
 22 0 l 1
 398 0 l 25
 398 -100 l 1
 22 -100 l 29
EndSplineSet
EndChar

StartChar: asciicircum
Encoding: 94 94 191
Width: 420
Flags: HW
HStem: 400 100<79 116 304 341> 600 100<191 229>
VStem: 79 75<400 500> 116 75<500 600> 229 75<500 600> 266 75<400 500>
LayerCount: 2
Back
Fore
SplineSet
79 400 m 29xe0
 79 500 l 25xe0
 116 500 l 25
 116 600 l 25xd0
 154 600 l 25
 154 700 l 25
 266 700 l 25
 266 600 l 25xe4
 304 600 l 25
 304 500 l 25xc8
 341 500 l 25
 341 400 l 25
 266 400 l 25
 266 500 l 25xc4
 229 500 l 25
 229 600 l 25
 191 600 l 25
 191 500 l 25xd8
 154 500 l 25
 154 400 l 25
 79 400 l 29xe0
EndSplineSet
EndChar

StartChar: grave
Encoding: 96 96 192
Width: 420
Flags: HW
HStem: 400 100<248 285> 600 100<135 172>
VStem: 135 75<600 700> 172 75<500 600> 210 75<400 500>
LayerCount: 2
Back
Fore
SplineSet
135 700 m 29xe0
 210 700 l 25
 210 600 l 25xe0
 248 600 l 25
 248 500 l 25xd0
 285 500 l 25
 285 400 l 25
 210 400 l 25
 210 500 l 25xc8
 172 500 l 25
 172 600 l 25xd0
 135 600 l 25
 135 700 l 29xe0
EndSplineSet
EndChar

StartChar: bracketleft
Encoding: 91 91 193
Width: 420
Flags: HW
HStem: 0 100<210 285> 600 100<210 285>
VStem: 135 150<0 100 600 700> 135 75<100 600>
LayerCount: 2
Back
Fore
SplineSet
285 600 m 29xe0
 210 600 l 25
 210 100 l 25xd0
 285 100 l 25
 285 0 l 25
 135 0 l 25
 135 700 l 25
 285 700 l 25
 285 600 l 29xe0
EndSplineSet
EndChar

StartChar: bracketright
Encoding: 93 93 194
Width: 420
Flags: HW
HStem: 0 100<135 210> 600 100<135 210>
VStem: 135 150<0 100 600 700> 210 75<100 600>
LayerCount: 2
Back
Fore
SplineSet
135 700 m 29xe0
 284 700 l 1
 285 0 l 25
 135 0 l 25
 135 100 l 25xe0
 210 100 l 25
 210 600 l 25xd0
 135 600 l 1
 135 700 l 29xe0
EndSplineSet
EndChar

StartChar: backslash
Encoding: 92 92 195
Width: 420
Flags: HW
HStem: 0 100<322 360> 600 100<60 98>
VStem: 60 75<600 700> 98 75<500 600> 135 75<400 500> 172 75<300 400> 210 75<200 300> 248 75<100 200> 285 75<0 100>
LayerCount: 2
Back
Fore
SplineSet
60 600 m 29xe0
 60 700 l 25
 135 700 l 25
 135 600 l 25xe0
 172 600 l 25
 172 500 l 25xd0
 210 500 l 25
 210 400 l 25xc8
 248 400 l 25
 248 300 l 25xc4
 285 300 l 25
 285 200 l 25xc2
 322 200 l 25
 322 100 l 25xc1
 360 100 l 25
 360 0 l 25
 285 0 l 25
 285 100 l 25xc080
 248 100 l 25
 248 200 l 25xc1
 210 200 l 25
 210 300 l 25xc2
 172 300 l 25
 172 400 l 25xc4
 135 400 l 25
 135 500 l 25xc8
 98 500 l 25
 98 600 l 25xd0
 60 600 l 29xe0
EndSplineSet
EndChar

StartChar: Odieresis
Encoding: 214 214 196
Width: 420
Flags: HMW
LayerCount: 2
Back
Fore
SplineSet
135 500 m 29
 135 400 l 25
 98 400 l 25
 98 200 l 25
 135 200 l 25
 135 100 l 25
 285 100 l 25
 285 200 l 25
 322 200 l 25
 322 400 l 25
 285 400 l 25
 285 500 l 25
 135 500 l 29
98 600 m 25
 322 600 l 25
 322 500 l 25
 360 500 l 25
 360 400 l 25
 398 400 l 25
 398 200 l 25
 360 200 l 25
 360 100 l 25
 322 100 l 25
 322 0 l 25
 98 0 l 25
 98 100 l 25
 60 100 l 25
 60 200 l 25
 22 200 l 25
 22 400 l 25
 60 400 l 25
 60 500 l 25
 98 500 l 25
 98 600 l 25
248 700 m 25
 248 800 l 25
 322 800 l 25
 322 700 l 25
 248 700 l 25
98 700 m 25
 98 800 l 25
 172 800 l 25
 172 700 l 25
 98 700 l 25
EndSplineSet
EndChar

StartChar: acute
Encoding: 180 180 197
Width: 420
Flags: HW
HStem: 400 100<135 172> 600 100<248 285>
VStem: 135 75<400 500> 172 75<500 600> 210 75<600 700>
LayerCount: 2
Back
Fore
SplineSet
210 600 m 29xc8
 210 700 l 25
 285 700 l 25
 285 600 l 25xc8
 248 600 l 25
 248 500 l 25xd0
 210 500 l 25
 210 400 l 25
 135 400 l 25
 135 500 l 25xe0
 172 500 l 25
 172 600 l 25xd0
 210 600 l 29xc8
EndSplineSet
EndChar

StartChar: plusminus
Encoding: 177 177 198
Width: 420
Flags: HW
HStem: 100 100<60 360> 451 99<60 172 248 360> 680 20G<172 248>
VStem: 172 75<300 450 550 700>
LayerCount: 2
Back
Fore
SplineSet
60 200 m 29
 360 200 l 25
 360 101 l 25
 60 100 l 25
 60 200 l 29
60 550 m 25
 172 550 l 25
 172 700 l 25
 248 700 l 25
 248 550 l 25
 360 551 l 25
 360 450 l 25
 248 450 l 25
 248 300 l 25
 172 300 l 25
 172 451 l 25
 60 451 l 25
 60 550 l 25
EndSplineSet
EndChar

StartChar: uni20BD
Encoding: 8381 8381 199
Width: 420
Flags: HW
HStem: 0 21G<79 154> 150 100<4 79 154 304> 300 100<4 79 154 341> 600 100<154 341>
VStem: 79 75<0 150 250 300 400 600> 341 75<400 600>
LayerCount: 2
Back
Fore
SplineSet
154 400 m 25
 341 400 l 25
 341 600 l 25
 154 600 l 25
 154 400 l 25
79 700 m 25
 379 700 l 25
 379 650 l 25
 416 650 l 25
 416 400 l 25
 379 400 l 25
 379 300 l 25
 154 300 l 25
 154 250 l 1
 304 250 l 5
 304 150 l 1
 154 150 l 1
 154 0 l 25
 79 0 l 25
 79 150 l 25
 4 150 l 25
 4 250 l 25
 79 250 l 25
 79 300 l 25
 4 300 l 25
 4 400 l 25
 79 400 l 25
 79 700 l 25
EndSplineSet
EndChar

StartChar: Udieresis
Encoding: 220 220 200
Width: 420
Flags: HW
HStem: 0 100<116 304> 700 100<79 154 266 341>
VStem: 41 75<100 600> 79 75<700 800> 266 75<700 800> 304 75<100 600>
LayerCount: 2
Back
Fore
SplineSet
266 800 m 29xc8
 341 800 l 25
 341 700 l 25
 266 700 l 25
 266 800 l 29xc8
79 700 m 25xd0
 79 800 l 25
 154 800 l 25
 154 700 l 25
 79 700 l 25xd0
41 600 m 1xe0
 116 600 l 1
 116 100 l 1
 304 100 l 1
 304 600 l 1
 379 600 l 1
 379 100 l 1xe4
 341 100 l 25
 341 0 l 25
 79 0 l 25
 79 100 l 25xd8
 41 100 l 1
 41 600 l 1xe0
EndSplineSet
EndChar

StartChar: Adieresis
Encoding: 196 196 201
Width: 420
Flags: HW
HStem: 0 21G<22 98 322 398> 200 100<98 322> 500 100<135 285> 700 100<98 172 248 322>
VStem: 22 75<0 200 300 400> 60 75<400 500> 98 75<700 800> 248 75<700 800> 285 75<400 500> 322 75<0 200 300 400>
LayerCount: 2
Back
Fore
SplineSet
248 700 m 25xf1
 248 800 l 25
 322 800 l 25
 322 700 l 25
 248 700 l 25xf1
98 700 m 25xf2
 98 800 l 25
 172 800 l 25
 172 700 l 25
 98 700 l 25xf2
98 300 m 25xf8
 322 300 l 25
 322 400 l 25xf840
 285 400 l 1
 285 500 l 25
 135 500 l 1
 135 400 l 29xf480
 98 400 l 1
 98 300 l 25xf8
22 0 m 25
 22 400 l 1xf840
 60 400 l 25
 60 500 l 25xf4
 98 500 l 25
 98 600 l 25
 322 600 l 25
 322 500 l 25xf240
 360 500 l 25
 360 400 l 25xf080
 398 400 l 25
 398 0 l 25
 322 0 l 25
 322 200 l 25
 98 200 l 25
 98 0 l 1
 22 0 l 25
EndSplineSet
EndChar

StartChar: adieresis
Encoding: 228 228 202
Width: 420
Flags: HW
HStem: 0 100<98 285 360 397> 100 100<22 60> 200 100<98 285> 400 100<60 285> 600 100<98 172 248 322>
VStem: 22 75<100 200> 98 75<600 700> 248 75<600 700> 285 75<100 200 300 400>
LayerCount: 2
Back
Fore
SplineSet
248 600 m 29x19
 248 700 l 29
 322 700 l 29
 322 600 l 29
 248 600 l 29x19
98 600 m 29x1a
 98 700 l 29
 172 700 l 29
 172 600 l 29
 98 600 l 29x1a
98 200 m 25xbc80
 98 100 l 25
 285 100 l 25
 285 200 l 25
 98 200 l 25xbc80
60 500 m 25
 322 500 l 25
 322 400 l 25x39
 360 400 l 25
 360 100 l 25
 397 100 l 25
 398 0 l 25
 60 0 l 25xb880
 60 100 l 25
 22 100 l 25
 22 200 l 25
 60 200 l 25x5c80
 60 300 l 25
 285 300 l 25
 285 400 l 25
 60 400 l 25
 60 500 l 25
EndSplineSet
EndChar

StartChar: odieresis
Encoding: 246 246 203
Width: 420
Flags: HW
HStem: 0 100<116 304> 400 100<116 304> 600 100<79 154 266 341>
VStem: 41 75<100 400> 79 75<600 700> 266 75<600 700> 304 75<100 400>
LayerCount: 2
Back
Fore
SplineSet
266 600 m 29xe4
 266 700 l 29
 341 700 l 29
 341 600 l 29
 266 600 l 29xe4
79 600 m 25xe8
 79 700 l 25
 154 700 l 25
 154 600 l 25
 79 600 l 25xe8
116 400 m 25xf2
 116 100 l 25
 304 100 l 25
 304 400 l 25
 116 400 l 25xf2
79 500 m 25xe8
 341 500 l 25
 341 400 l 25xec
 379 400 l 25
 379 100 l 25xe2
 341 100 l 25
 341 0 l 25
 79 0 l 25
 79 100 l 25xec
 41 100 l 25
 41 400 l 25xf0
 79 400 l 25
 79 500 l 25xe8
EndSplineSet
EndChar

StartChar: germandbls
Encoding: 223 223 204
Width: 420
Flags: HW
HStem: 0 100<154 304> 300 100<191 266> 600 100<154 266>
VStem: 41 75<0 500> 79 75<500 600> 191 112<300 400> 266 75<400 600> 304 75<100 300>
CounterMasks: 1 e0
LayerCount: 2
Back
Fore
SplineSet
116 600 m 25xf0
 116 700 l 1
 304 700 l 25
 304 600 l 25xf1
 341 600 l 25
 341 400 l 25xe2
 304 400 l 25
 304 300 l 25xe4
 379 300 l 25
 379 100 l 25xe1
 341 100 l 25
 341 0 l 25xe2
 154 0 l 25
 154 100 l 25
 304 100 l 25xe9
 304 300 l 25
 191 300 l 25
 191 400 l 25xe4
 266 400 l 25
 266 600 l 25
 154 600 l 25
 154 500 l 25xea
 116 500 l 25
 116 0 l 25
 41 0 l 25
 41 500 l 25xf0
 79 500 l 25
 79 600 l 1xe8
 116 600 l 25xf0
EndSplineSet
EndChar

StartChar: uniFFFD
Encoding: 65533 65533 205
Width: 420
Flags: HW
HStem: -200 21G<135 285> 100 100<172 248> 480 20G<172 248> 600 200<135 285>
VStem: 22 75<400 500> 60 112<0 100> 60 75<500 600> 98 225<-100 0 600 700> 135 150<-200 -100 700 800> 172 75<400 500> 248 112<0 100> 285 75<500 600> 322 112<300 400> 322 75<400 500>
LayerCount: 2
Back
Fore
SplineSet
172 200 m 29xf040
 285 200 l 25
 285 300 l 25xf050
 322 300 l 25xf008
 322 500 l 25xf004
 285 500 l 25
 285 600 l 25
 135 600 l 25
 135 500 l 25xf210
 98 500 l 25
 98 400 l 25
 172 400 l 25
 172 500 l 25
 248 500 l 25xf840
 248 300 l 25xf020
 172 300 l 25
 172 200 l 29xf040
172 0 m 25xf420
 248 0 l 25
 248 100 l 25
 172 100 l 25
 172 0 l 25xf420
-15 200 m 25
 -15 400 l 25
 22 400 l 25
 22 500 l 25xf8
 60 500 l 25
 60 600 l 25xf2
 98 600 l 25
 98 700 l 25xf1
 135 700 l 25
 135 800 l 25
 285 800 l 25
 285 700 l 25xf080
 322 700 l 25
 322 600 l 25xf1
 360 600 l 25
 360 500 l 25xf010
 398 500 l 25
 398 400 l 25xf004
 435 400 l 25
 435 200 l 25xf008
 398 200 l 25
 398 100 l 25xf004
 360 100 l 25
 360 0 l 25xf020
 322 0 l 25
 322 -100 l 25xf1
 285 -100 l 25
 285 -200 l 25
 135 -200 l 25
 135 -100 l 25xf080
 98 -100 l 25
 98 0 l 25xf1
 60 0 l 25
 60 100 l 25xf4
 22 100 l 25
 22 200 l 25xf8
 -15 200 l 25
EndSplineSet
EndChar

StartChar: Oslash
Encoding: 216 216 206
Width: 420
Flags: HW
HStem: 0 100<135 285> 600 100<135 285>
VStem: 22 75<200 500> 60 75<100 200 500 600> 98 225<0 100 600 700> 285 75<100 200 500 600> 322 75<200 500>
LayerCount: 2
Back
Fore
SplineSet
285 100 m 29xd4
 285 200 l 25xd4
 322 200 l 25
 322 500 l 25xc2
 285 500 l 25
 285 600 l 25
 135 600 l 25
 135 500 l 25xd4
 98 500 l 25
 98 200 l 25xe0
 135 200 l 25
 135 100 l 25
 285 100 l 29xd4
322 0 m 25xc8
 98 0 l 25
 98 100 l 25xc8
 60 100 l 25
 60 200 l 25xd0
 22 200 l 25
 22 500 l 25xe0
 60 500 l 25
 60 600 l 25xd0
 98 600 l 25
 98 700 l 25
 322 700 l 25
 322 600 l 25xc8
 360 600 l 25
 360 500 l 25xc4
 398 500 l 25
 398 200 l 25xc2
 360 200 l 25
 360 100 l 25xc4
 322 100 l 25
 322 0 l 25xc8
EndSplineSet
EndChar

StartChar: multiply
Encoding: 215 215 207
Width: 420
Flags: HMW
LayerCount: 2
Back
Fore
SplineSet
98 200 m 29
 98 300 l 25
 172 300 l 25
 172 400 l 25
 98 400 l 25
 98 500 l 25
 172 500 l 25
 172 400 l 25
 248 400 l 25
 248 500 l 25
 322 500 l 25
 322 400 l 25
 248 400 l 25
 248 300 l 25
 322 300 l 25
 322 200 l 25
 248 200 l 25
 248 300 l 25
 172 300 l 25
 172 200 l 25
 98 200 l 29
EndSplineSet
EndChar

StartChar: divide
Encoding: 247 247 208
Width: 420
Flags: HMW
LayerCount: 2
Back
Fore
SplineSet
172 100 m 29
 172 200 l 25
 248 200 l 25
 248 100 l 25
 172 100 l 29
60 300 m 25
 60 400 l 25
 360 400 l 25
 360 300 l 25
 60 300 l 25
172 500 m 25
 172 600 l 25
 248 600 l 25
 248 500 l 25
 172 500 l 25
EndSplineSet
EndChar

StartChar: brokenbar
Encoding: 166 166 209
Width: 420
Flags: HW
HStem: 0 21G<172 248> 680 20G<172 248>
VStem: 172 75<0 700>
LayerCount: 2
Back
Fore
SplineSet
172 700 m 29
 248 700 l 25
 248 0 l 25
 172 0 l 25
 172 700 l 29
EndSplineSet
EndChar

StartChar: degree
Encoding: 176 176 210
Width: 420
Flags: HMW
LayerCount: 2
Back
Fore
SplineSet
172 600 m 29
 172 500 l 25
 248 500 l 25
 248 600 l 25
 172 600 l 29
135 600 m 25
 135 700 l 25
 285 700 l 25
 285 600 l 25
 322 600 l 25
 322 500 l 25
 285 500 l 25
 285 400 l 25
 135 400 l 25
 135 500 l 25
 98 500 l 25
 98 600 l 25
 135 600 l 25
EndSplineSet
EndChar

StartChar: arrowright
Encoding: 8594 8594 211
Width: 420
Flags: HW
HStem: 100 100<191 229> 300 100<4 229 341 416> 500 100<191 229>
VStem: 191 75<100 200 500 600> 229 112<200 300 400 500>
CounterMasks: 1 e0
LayerCount: 2
Back
Fore
SplineSet
191 500 m 29xf0
 191 600 l 25
 266 600 l 25
 266 500 l 25xf0
 341 500 l 25
 341 400 l 25
 416 400 l 25
 416 300 l 25
 341 300 l 25
 341 200 l 25xe8
 266 200 l 25
 266 100 l 25
 191 100 l 25
 191 200 l 25xf0
 229 200 l 25
 229 300 l 25
 4 300 l 25
 4 400 l 25
 229 400 l 25
 229 500 l 25xe8
 191 500 l 29xf0
EndSplineSet
EndChar

StartChar: arrowleft
Encoding: 8592 8592 212
Width: 420
Flags: HW
HStem: 100 100<210 248> 300 100<22 98 210 398> 500 100<210 248>
VStem: 98 112<200 300 400 500> 172 75<100 200 500 600>
CounterMasks: 1 e0
LayerCount: 2
Back
Fore
SplineSet
172 500 m 29xe8
 172 600 l 25
 248 600 l 25
 248 500 l 25xe8
 210 500 l 25
 210 400 l 25
 398 400 l 25
 398 300 l 25
 210 300 l 25
 210 200 l 25xf0
 248 200 l 25
 248 100 l 25
 172 100 l 25
 172 200 l 25xe8
 98 200 l 25
 98 300 l 25
 22 300 l 25
 22 400 l 25
 98 400 l 25
 98 500 l 25xf0
 172 500 l 29xe8
EndSplineSet
EndChar

StartChar: arrowup
Encoding: 8593 8593 213
Width: 420
Flags: HW
HStem: 0 21G<172 248> 300 100<60 98 322 360> 680 20G<172 248>
VStem: 60 75<300 400> 172 75<0 400 600 700> 285 75<300 400>
CounterMasks: 1 1c
LayerCount: 2
Back
Fore
SplineSet
135 300 m 29
 60 300 l 25
 60 400 l 25
 98 400 l 25
 98 500 l 25
 135 500 l 25
 135 600 l 25
 172 600 l 25
 172 700 l 25
 248 700 l 25
 248 600 l 25
 285 600 l 25
 285 500 l 25
 322 500 l 25
 322 400 l 25
 360 400 l 25
 360 300 l 25
 285 300 l 25
 285 400 l 25
 248 400 l 25
 248 0 l 25
 172 0 l 25
 172 400 l 25
 135 400 l 25
 135 300 l 29
EndSplineSet
EndChar

StartChar: arrowdown
Encoding: 8595 8595 214
Width: 420
Flags: HW
HStem: 0 21G<172 248> 300 100<60 98 322 360> 680 20G<172 248>
VStem: 60 75<300 400> 172 75<0 100 300 700> 285 75<300 400>
CounterMasks: 1 1c
LayerCount: 2
Back
Fore
SplineSet
172 300 m 29
 172 700 l 1
 248 700 l 25
 248 300 l 25
 285 300 l 25
 285 400 l 25
 360 400 l 25
 360 300 l 25
 322 300 l 25
 322 200 l 25
 285 200 l 25
 285 100 l 25
 248 100 l 25
 248 0 l 25
 172 0 l 25
 172 100 l 25
 135 100 l 25
 135 200 l 25
 98 200 l 25
 98 300 l 25
 60 300 l 25
 60 400 l 25
 135 400 l 25
 135 300 l 1
 172 300 l 29
EndSplineSet
EndChar

StartChar: arrowboth
Encoding: 8596 8596 215
Width: 420
Flags: HW
HStem: 100 100<60 135 285 360> 200 300<-15 60 360 435> 300 100<-90 -15 60 360 435 510> 500 100<60 135 285 360>
VStem: -15 75<200 300 400 500> 60 75<100 200 500 600> 285 75<100 200 500 600> 360 75<200 300 400 500>
LayerCount: 2
Back
Fore
SplineSet
-90 300 m 29x28
 -90 400 l 25
 -15 400 l 25x28
 -15 500 l 25
 60 500 l 25x48
 60 600 l 25
 135 600 l 25
 135 500 l 25x14
 60 500 l 25x48
 60 400 l 25
 360 400 l 25x29
 360 500 l 25x42
 285 500 l 25
 285 600 l 25
 360 600 l 25x12
 360 500 l 25x42
 435 500 l 25x41
 435 400 l 25
 510 400 l 25
 510 300 l 25
 435 300 l 25x21
 435 200 l 25x41
 360 200 l 25
 360 100 l 25
 285 100 l 25
 285 200 l 25
 360 200 l 25x82
 360 300 l 25
 60 300 l 25
 60 200 l 25xa9
 135 200 l 25
 135 100 l 25
 60 100 l 25xa4
 60 200 l 25xa8
 -15 200 l 25x48
 -15 300 l 25
 -90 300 l 29x28
EndSplineSet
EndChar

StartChar: arrowupdn
Encoding: 8597 8597 216
Width: 420
Flags: HW
HStem: 0 21G<135 285> 200 100<60 98 322 360> 400 100<60 98 322 360> 680 20G<135 285>
VStem: 60 75<200 300 400 500> 98 225<100 200 500 600> 135 150<0 100 600 700> 285 75<200 300 400 500>
LayerCount: 2
Back
Fore
SplineSet
60 200 m 29xf8
 60 300 l 25
 135 300 l 25
 135 200 l 25
 172 200 l 25
 172 500 l 25
 135 500 l 25
 135 400 l 25
 60 400 l 25
 60 500 l 25xf8
 98 500 l 25
 98 600 l 25xf4
 135 600 l 25
 135 700 l 25
 285 700 l 25
 285 600 l 25xf2
 322 600 l 25
 322 500 l 25xf4
 360 500 l 25
 360 400 l 25
 285 400 l 25
 285 500 l 25
 248 500 l 25
 248 200 l 25
 285 200 l 25
 285 300 l 25
 360 300 l 25
 360 200 l 25xf1
 322 200 l 25
 322 100 l 25xf4
 285 100 l 25
 285 0 l 25
 135 0 l 25
 135 100 l 25xf2
 98 100 l 25
 98 200 l 25xf4
 60 200 l 29xf8
EndSplineSet
EndChar

StartChar: uni2600
Encoding: 9728 9728 217
Width: 420
Flags: HW
HStem: -100 100<172 248> 0 100<-15 60 360 435> 200 300<98 172 248 322> 300 100<-165 -52 22 98 322 398 472 585> 600 100<-52 22 398 472> 700 100<172 248>
VStem: -165 112<300 400> -52 75<600 700> -15 75<0 100> 98 225<200 300 400 500> 172 75<-100 0 100 200 500 600 700 800> 360 75<0 100> 398 75<600 700> 472 112<300 400>
LayerCount: 2
Back
Fore
SplineSet
398 600 m 25x0808
 398 700 l 25
 472 700 l 25
 472 600 l 25
 398 600 l 25x0808
172 700 m 25x0420
 172 800 l 25
 248 800 l 25
 248 700 l 25
 172 700 l 25x0420
-52 600 m 25x09
 -52 700 l 25
 22 700 l 25
 22 600 l 25
 -52 600 l 25x09
472 300 m 1x1004
 472 400 l 25
 585 400 l 1
 585 300 l 25
 472 300 l 1x1004
-165 300 m 1x12
 -165 400 l 25
 -52 400 l 1
 -52 300 l 25
 -165 300 l 1x12
360 0 m 25x4010
 360 100 l 25
 435 100 l 25
 435 0 l 25
 360 0 l 25x4010
172 -100 m 25x8020
 172 0 l 25
 248 0 l 25
 248 -100 l 25
 172 -100 l 25x8020
-15 0 m 25x4080
 -15 100 l 25
 60 100 l 25
 60 0 l 25
 -15 0 l 25x4080
22 300 m 25x1140
 22 400 l 1
 98 400 l 25x1140
 98 500 l 1x2140
 172 500 l 1
 172 600 l 1
 248 600 l 1
 248 500 l 25x2820
 322 500 l 25x2840
 322 400 l 25
 398 400 l 25
 398 300 l 25
 322 300 l 25x1048
 322 200 l 25x2048
 248 200 l 25
 248 100 l 25
 172 100 l 25
 172 200 l 25x6020
 98 200 l 25x6040
 98 300 l 1
 22 300 l 25x1140
EndSplineSet
EndChar

StartChar: uni2601
Encoding: 9729 9729 218
Width: 420
Flags: HW
HStem: 100 300<60 135 248 360> 200 100<-15 60 398 435> 480 20G<135 248>
VStem: 135 112<400 500>
LayerCount: 2
Back
Fore
SplineSet
-15 200 m 29x70
 -15 300 l 25
 60 300 l 25x70
 60 400 l 25
 135 400 l 25
 135 500 l 25
 248 500 l 25
 248 400 l 25
 360 400 l 25xb0
 360 300 l 25
 435 300 l 25
 435 200 l 25
 398 200 l 25x70
 398 100 l 25
 60 100 l 25xb0
 60 200 l 25
 -15 200 l 29x70
EndSplineSet
EndChar

StartChar: uni2602
Encoding: 9730 9730 219
Width: 420
Flags: HW
HStem: -100 100<98 172> 400 200<60 135 285 360> 400 100<-15 60 360 435> 680 20G<135 285>
VStem: 98 112<-100 0> 172 75<0 400>
LayerCount: 2
Back
Fore
SplineSet
-15 400 m 29xb4
 -15 500 l 25
 60 500 l 25xb4
 60 600 l 25
 135 600 l 25
 135 700 l 25
 285 700 l 25
 285 600 l 25
 360 600 l 25xd4
 360 500 l 25
 435 500 l 25
 435 400 l 25
 248 400 l 25
 248 0 l 25xb4
 210 0 l 25
 210 -100 l 25
 98 -100 l 25
 98 0 l 25xb8
 172 0 l 25
 172 400 l 25
 -15 400 l 29xb4
EndSplineSet
EndChar

StartChar: uni2603
Encoding: 9731 9731 220
Width: 420
Flags: HW
HStem: -100 100<22 98 360 435> -100 50<172 210 248 285> 0 100<135 322> 50 50<-15 22 398 435> 100 100<60 98 360 398> 150 50<-15 22> 200 100<172 210 248 285> 250 50<22 60 398 435> 350 50<-15 22 398 435> 400 100<60 98 172 210 248 285 360 398> 500 100<22 60 98 135 322 360 398 435> 600 200<172 285> 650 50<22 60 360 398> 750 50<-15 22 98 135 322 360 398 435>
VStem: -15 38<50 100 150 200 350 400 750 800> 22 38<250 300 500 600 650 700> 60 38<400 500> 98 75<300 400 500 600> 98 38<750 800> 135 75<400 500> 172 38<-100 -50> 248 75<400 500> 248 38<-100 -50> 285 75<300 400 500 600> 322 38<750 800> 360 38<400 500 650 700> 398 38<50 100 250 300 350 400 500 600 750 800>
LayerCount: 2
Back
Fore
SplineSet
172 500 m 29x225041
 210 500 l 29
 210 400 l 29x225010
 172 400 l 29
 172 300 l 29x225040
 210 300 l 29
 210 200 l 29x225008
 135 200 l 29
 135 100 l 29
 322 100 l 29
 322 200 l 29
 248 200 l 29
 248 300 l 29x22501280
 285 300 l 29
 285 400 l 29x225001
 248 400 l 29
 248 500 l 29x225004
 285 500 l 29
 285 600 l 29
 172 600 l 29
 172 500 l 29x225041
22 -100 m 29x800110a0
 22 0 l 29
 98 0 l 29
 98 100 l 29x880120
 60 100 l 29
 60 200 l 29x880080
 98 200 l 29x880020
 98 400 l 29
 135 400 l 29x884090
 135 500 l 29x002090
 98 500 l 29x004090
 98 600 l 29x002040
 135 600 l 29
 135 700 l 29x002810
 172 700 l 29x002808
 172 800 l 29
 285 800 l 29x001009
 285 700 l 29x000809
 322 700 l 29
 322 600 l 29x00280080
 360 600 l 29x002801
 360 500 l 29x004001
 322 500 l 29x002004
 322 400 l 29x004004
 360 400 l 29x004001
 360 200 l 29x08400040
 398 200 l 29x08400020
 398 100 l 29x10000020
 360 100 l 29
 360 0 l 29x88000040
 435 0 l 29
 435 -100 l 29x88000020
 322 -100 l 29
 322 0 l 29
 135 0 l 29
 135 -100 l 29x600010a0
 22 -100 l 29x800110a0
60 500 m 29x0041
 98 500 l 29
 98 400 l 29
 60 400 l 29x004080
 60 500 l 29x0041
22 600 m 29x0021
 60 600 l 29x0021
 60 500 l 29x0041
 22 500 l 29
 22 600 l 29x0021
-15 50 m 29x1002
 -15 100 l 5
 22 100 l 29
 22 50 l 5
 -15 50 l 29x1002
-15 150 m 29x0402
 -15 200 l 5
 22 200 l 29
 22 150 l 5
 -15 150 l 29x0402
22 250 m 29x0101
 22 300 l 5
 60 300 l 29
 60 250 l 5
 22 250 l 29x0101
-15 350 m 29x0082
 -15 400 l 5
 22 400 l 29
 22 350 l 5
 -15 350 l 29x0082
172 -100 m 29x400008
 172 -50 l 29
 210 -50 l 29
 210 -100 l 29
 172 -100 l 29x400008
248 -100 m 29x400002
 248 -50 l 29
 285 -50 l 29
 285 -100 l 29
 248 -100 l 29x400002
398 50 m 29x10000020
 398 100 l 29
 435 100 l 29
 435 50 l 29
 398 50 l 29x10000020
398 250 m 29x01000020
 398 300 l 29
 435 300 l 29
 435 250 l 29
 398 250 l 29x01000020
398 350 m 29x00800020
 398 400 l 29x00800040
 435 400 l 29
 435 350 l 29
 398 350 l 29x00800020
360 400 m 29x004001
 360 500 l 29x004001
 398 500 l 29x00400040
 398 400 l 29x00800040
 360 400 l 29x004001
398 500 m 29x00400040
 398 600 l 29
 435 600 l 29
 435 500 l 29x00200020
 398 500 l 29x00400040
360 650 m 29x00080040
 360 700 l 29
 398 700 l 29
 398 650 l 29
 360 650 l 29x00080040
398 750 m 29x00040020
 398 800 l 29
 435 800 l 29
 435 750 l 29
 398 750 l 29x00040020
322 750 m 29x00040080
 322 800 l 29
 360 800 l 29
 360 750 l 29
 322 750 l 29x00040080
98 750 m 29x000420
 98 800 l 5
 135 800 l 29
 135 750 l 5
 98 750 l 29x000420
-15 750 m 29x0006
 -15 800 l 5
 22 800 l 29
 22 750 l 5
 -15 750 l 29x0006
22 650 m 29x0009
 22 700 l 5
 60 700 l 29
 60 650 l 5
 22 650 l 29x0009
EndSplineSet
EndChar

StartChar: uni26C4
Encoding: 9924 9924 221
Width: 420
Flags: HW
HStem: -100 100<4 79 341 416> 100 100<41 79 341 379> 200 100<154 191 229 266> 400 100<41 79 154 191 229 266 341 379> 500 100<4 41 79 116 304 341 379 416> 600 200<154 266>
VStem: 4 38<500 600> 41 75<100 200> 41 38<400 500> 79 75<300 400 500 600> 116 75<400 500> 154 112<700 800> 229 75<400 500> 266 75<300 400 500 600> 304 75<100 200> 341 38<400 500> 379 38<500 600>
LayerCount: 2
Back
Fore
SplineSet
154 500 m 29xb444
 191 500 l 29
 191 400 l 29xb420
 154 400 l 29
 154 300 l 29xb440
 191 300 l 29
 191 200 l 29xb420
 116 200 l 29xb5
 116 100 l 29
 304 100 l 29xc102
 304 200 l 29xa102
 229 200 l 29
 229 300 l 29xa008
 266 300 l 29
 266 400 l 29xb004
 229 400 l 29
 229 500 l 29xb008
 266 500 l 29
 266 600 l 29
 154 600 l 29
 154 500 l 29xb444
4 -100 m 29xd222
 4 0 l 29
 79 0 l 29
 79 100 l 29xd240
 41 100 l 29
 41 200 l 29xd1
 79 200 l 29xd040
 79 400 l 29
 116 400 l 29xd0a0
 116 500 l 29x88a0
 79 500 l 29x90a0
 79 600 l 29x8840
 116 600 l 29
 116 700 l 29x8820
 154 700 l 29
 154 800 l 29
 266 800 l 29x8410
 266 700 l 29
 304 700 l 29
 304 600 l 29x8812
 341 600 l 29x8804
 341 500 l 29x9004
 304 500 l 29x8808
 304 400 l 29x9008
 341 400 l 29x9004
 341 200 l 29xd001
 379 200 l 5
 379 100 l 29xd002
 341 100 l 5
 341 0 l 29xd001
 416 0 l 29
 416 -100 l 29xd00080
 304 -100 l 29
 304 0 l 29
 116 0 l 29
 116 -100 l 29
 4 -100 l 29xd222
41 500 m 29
 79 500 l 29
 79 400 l 29
 41 400 l 29x9080
 41 500 l 29
4 600 m 29x8a
 41 600 l 29x8a
 41 500 l 29x92
 4 500 l 29
 4 600 l 29x8a
341 400 m 29x9004
 341 500 l 29x9004
 379 500 l 29
 379 400 l 29x9001
 341 400 l 29x9004
379 500 m 29x9001
 379 600 l 29
 416 600 l 29
 416 500 l 29x880080
 379 500 l 29x9001
EndSplineSet
EndChar

StartChar: uni2614
Encoding: 9748 9748 222
Width: 420
Flags: HW
HStem: -100 100<98 172> 0 100<22 60 360 398> 150 100<-15 22 398 435> 250 100<60 98 322 360> 400 200<60 135 285 360> 400 100<-15 60 360 435> 600 100<-15 22 398 435> 700 100<60 98 322 360>
VStem: -15 38<150 250 600 700> 22 38<0 100> 60 38<250 350 700 800> 98 112<-100 0> 172 75<0 400> 322 38<250 350 700 800> 360 38<0 100> 398 38<150 250 600 700>
LayerCount: 2
Back
Fore
SplineSet
98 -100 m 29x8010
 98 0 l 25x8010
 172 0 l 25
 172 400 l 25
 -15 400 l 25
 -15 500 l 25
 60 500 l 25x84a8
 60 600 l 25
 135 600 l 25
 135 700 l 25
 285 700 l 25
 285 600 l 25
 360 600 l 25x09aa
 360 500 l 25x04aa
 435 500 l 25
 435 400 l 25
 248 400 l 25
 248 0 l 25x4409
 210 0 l 25x4410
 210 -100 l 25
 98 -100 l 29x8010
22 0 m 1x4040
 22 100 l 1
 60 100 l 1
 60 0 l 1
 22 0 l 1x4040
360 0 m 1x4002
 360 100 l 1
 398 100 l 1
 398 0 l 1
 360 0 l 1x4002
-15 150 m 1x2080
 -15 250 l 1
 22 250 l 1
 22 150 l 1
 -15 150 l 1x2080
60 250 m 1x1020
 60 350 l 1
 98 350 l 1
 98 250 l 1
 60 250 l 1x1020
398 150 m 1x2001
 398 250 l 1
 435 250 l 1
 435 150 l 1
 398 150 l 1x2001
322 250 m 1x1004
 322 350 l 1
 360 350 l 1
 360 250 l 1
 322 250 l 1x1004
398 600 m 1x0201
 398 700 l 1
 435 700 l 1
 435 600 l 1
 398 600 l 1x0201
-15 600 m 1x0280
 -15 700 l 1
 22 700 l 1
 22 600 l 1
 -15 600 l 1x0280
322 700 m 1x0104
 322 800 l 1
 360 800 l 1
 360 700 l 1
 322 700 l 1x0104
60 700 m 1x0120
 60 800 l 1
 98 800 l 1
 98 700 l 1
 60 700 l 1x0120
EndSplineSet
EndChar

StartChar: uni2669
Encoding: 9833 9833 223
Width: 420
Flags: HW
HStem: 0 300<116 266> 100 100<79 116>
VStem: 266 75<300 800>
LayerCount: 2
Back
Fore
SplineSet
116 100 m 29x60
 79 100 l 25
 79 200 l 25
 116 200 l 25x60
 116 300 l 25
 266 300 l 25xa0
 266 800 l 25
 341 800 l 25
 341 100 l 25
 304 100 l 25x60
 304 0 l 25
 116 0 l 25xa0
 116 100 l 29x60
EndSplineSet
EndChar

StartChar: uni2757
Encoding: 10071 10071 225
Width: 420
Flags: HW
HStem: 0 100<172 248> 680 20G<172 248>
VStem: 172 75<0 100 200 700>
LayerCount: 2
Back
Fore
SplineSet
172 700 m 29
 248 700 l 25
 248 200 l 25
 172 200 l 25
 172 700 l 29
248 0 m 25
 172 0 l 1
 172 100 l 25
 248 100 l 1
 248 0 l 25
EndSplineSet
EndChar

StartChar: uni2753
Encoding: 10067 10067 226
Width: 420
Flags: HW
HStem: 0 100<191 266> 200 100<191 266> 300 100<266 304> 600 100<116 304>
VStem: 41 75<400 600> 191 75<0 100 200 300> 266 75<300 400> 304 75<400 600>
LayerCount: 2
Back
Fore
SplineSet
191 300 m 1xdc
 266 300 l 1
 266 200 l 1
 191 200 l 1
 191 300 l 1xdc
266 0 m 25
 191 0 l 1
 191 100 l 25
 266 100 l 1
 266 0 l 25
41 600 m 25
 79 600 l 25
 79 700 l 25
 341 700 l 25
 341 600 l 25xba
 379 600 l 25
 379 400 l 25xb9
 340 400 l 25
 341 300 l 25xba
 266 300 l 25xdc
 266 400 l 25xba
 304 400 l 25
 304 600 l 25
 116 600 l 25
 116 400 l 25
 41 400 l 25xb9
 41 600 l 25
EndSplineSet
EndChar

StartChar: uni2795
Encoding: 10133 10133 227
Width: 420
Flags: HW
HStem: 250 100<60 172 248 360>
VStem: 172 75<50 250 350 550>
LayerCount: 2
Back
Fore
SplineSet
172 550 m 29
 248 550 l 25
 248 350 l 25
 360 350 l 25
 360 250 l 25
 248 250 l 25
 248 50 l 25
 172 50 l 25
 172 250 l 25
 60 250 l 25
 60 350 l 25
 172 350 l 25
 172 550 l 29
EndSplineSet
EndChar

StartChar: uni2796
Encoding: 10134 10134 228
Width: 420
Flags: HW
HStem: 250 100<60 360>
LayerCount: 2
Back
Fore
SplineSet
60 250 m 29
 60 350 l 25
 360 350 l 25
 360 250 l 25
 60 250 l 29
EndSplineSet
EndChar

StartChar: uni231A
Encoding: 8986 8986 229
Width: 420
Flags: HW
HStem: -100 200<98 322> 0 100<60 98 322 360> 300 100<248 322> 480 20G<172 248> 600 200<98 322> 600 100<60 98 322 360>
VStem: -52 75<200 500> -15 75<100 200 500 600> 98 225<-100 0 700 800> 172 75<400 500> 360 75<100 200 500 600> 398 75<200 500>
LayerCount: 2
Back
Fore
SplineSet
172 500 m 29x3040
 248 500 l 25
 248 400 l 25x3040
 322 400 l 25
 322 300 l 25x3080
 172 300 l 25
 172 500 l 29x3040
60 600 m 25x7520
 60 500 l 25x7520
 22 500 l 25
 22 200 l 25x76
 60 200 l 25
 60 100 l 25
 360 100 l 25
 360 200 l 25x7520
 398 200 l 25
 398 500 l 25x7410
 360 500 l 25
 360 600 l 25
 60 600 l 25x7520
98 700 m 25x7680
 98 800 l 25
 322 800 l 25x3a80
 322 700 l 25
 398 700 l 25
 398 600 l 25x3690
 435 600 l 25
 435 500 l 25x3420
 472 500 l 25
 472 200 l 25x3410
 435 200 l 25
 435 100 l 25x7420
 398 100 l 25
 398 0 l 25
 322 0 l 25x7490
 322 -100 l 25
 98 -100 l 25xb090
 98 0 l 25
 22 0 l 25
 22 100 l 25x7290
 -15 100 l 25
 -15 200 l 25x71
 -52 200 l 25
 -52 500 l 25x72
 -15 500 l 25
 -15 600 l 25x75
 22 600 l 25
 22 700 l 25
 98 700 l 25x7680
EndSplineSet
EndChar

StartChar: uni2797
Encoding: 10135 10135 230
Width: 420
Flags: HW
HStem: 100 100<172 248> 300 100<60 360> 500 100<172 248>
VStem: 172 75<100 200 500 600>
CounterMasks: 1 e0
LayerCount: 2
Back
Fore
SplineSet
172 100 m 29
 172 200 l 25
 248 200 l 25
 248 100 l 25
 172 100 l 29
60 300 m 25
 60 400 l 25
 360 400 l 25
 360 300 l 25
 60 300 l 25
172 500 m 25
 172 600 l 25
 248 600 l 25
 248 500 l 25
 172 500 l 25
EndSplineSet
EndChar

StartChar: uni25B6
Encoding: 9654 9654 231
Width: 420
Flags: HMW
LayerCount: 2
Back
Fore
SplineSet
41 0 m 29
 41 700 l 25
 154 700 l 25
 154 600 l 25
 229 600 l 25
 229 500 l 25
 304 500 l 25
 304 400 l 25
 379 400 l 25
 379 300 l 25
 304 300 l 25
 304 200 l 25
 229 200 l 25
 229 100 l 25
 154 100 l 25
 154 0 l 25
 41 0 l 29
EndSplineSet
EndChar

StartChar: uni25C0
Encoding: 9664 9664 232
Width: 420
Flags: HMW
LayerCount: 2
Back
Fore
SplineSet
266 0 m 29
 266 100 l 25
 191 100 l 25
 191 200 l 25
 116 200 l 25
 116 300 l 25
 41 300 l 25
 41 400 l 25
 116 400 l 25
 116 500 l 25
 191 500 l 25
 191 600 l 25
 266 600 l 25
 266 700 l 25
 379 700 l 25
 379 0 l 25
 266 0 l 29
EndSplineSet
EndChar

StartChar: H18543
Encoding: 9642 9642 233
Width: 420
Flags: HMW
LayerCount: 2
Back
Fore
SplineSet
116 100 m 29
 116 400 l 25
 304 400 l 25
 304 100 l 25
 116 100 l 29
EndSplineSet
EndChar

StartChar: triagup
Encoding: 9650 9650 234
Width: 420
Flags: HMW
LayerCount: 2
Back
Fore
SplineSet
22 100 m 29
 22 200 l 29
 60 200 l 29
 60 300 l 29
 98 300 l 29
 98 400 l 29
 135 400 l 29
 135 500 l 29
 172 500 l 29
 172 600 l 29
 248 600 l 29
 248 500 l 29
 285 500 l 29
 285 400 l 29
 322 400 l 29
 322 300 l 29
 360 300 l 29
 360 200 l 29
 398 200 l 29
 398 100 l 29
 22 100 l 29
EndSplineSet
EndChar

StartChar: triagdn
Encoding: 9660 9660 235
Width: 420
Flags: HMW
LayerCount: 2
Back
Fore
SplineSet
22 500 m 29
 22 600 l 25
 398 600 l 25
 398 500 l 25
 360 500 l 25
 360 400 l 25
 322 400 l 25
 322 300 l 25
 285 300 l 25
 285 200 l 25
 248 200 l 25
 248 100 l 25
 172 100 l 25
 172 200 l 25
 135 200 l 25
 135 300 l 25
 98 300 l 25
 98 400 l 25
 60 400 l 25
 60 500 l 25
 22 500 l 29
EndSplineSet
EndChar

StartChar: H18551
Encoding: 9643 9643 236
Width: 420
Flags: HW
HStem: 100 100<154 266> 300 100<154 266>
VStem: 116 38<200 300> 266 38<200 300>
LayerCount: 2
Back
Fore
SplineSet
154 200 m 29
 266 200 l 25
 266 300 l 25
 154 300 l 25
 154 200 l 29
116 100 m 25
 116 400 l 25
 304 400 l 25
 304 100 l 25
 116 100 l 25
EndSplineSet
EndChar

StartChar: uni231B
Encoding: 8987 8987 237
Width: 420
Flags: HW
HStem: -100 300<4 41 154 266 379 416> -100 200<79 154 266 341> -100 100<-34 4 416 454> 200 100<79 116 304 341> 400 100<79 116 304 341> 600 200<79 341> 700 100<-34 4 416 454>
VStem: 4 75<100 200 500 600> 41 112<200 300> 266 112<200 300> 341 75<100 200 500 600>
LayerCount: 2
Back
Fore
SplineSet
266 100 m 29x4840
 341 100 l 25
 341 200 l 25x5820
 266 200 l 25x8840
 266 100 l 29x4840
154 300 m 25x18c0
 154 200 l 25
 266 200 l 25x88c0
 266 300 l 25
 154 300 l 25x18c0
79 100 m 25x59
 154 100 l 25x5880
 154 200 l 25x8880
 79 200 l 25
 79 100 l 25x59
191 400 m 25
 229 400 l 25
 229 500 l 25
 341 500 l 25
 341 600 l 25
 79 600 l 25
 79 500 l 25x0d20
 191 500 l 25
 191 400 l 25
-34 -100 m 25x2820
 -34 0 l 25
 4 0 l 25x2920
 4 200 l 25x8920
 41 200 l 25x8880
 41 300 l 25
 116 300 l 25
 116 400 l 25
 41 400 l 25
 41 500 l 25x1880
 4 500 l 25
 4 700 l 25
 -34 700 l 25
 -34 800 l 25
 454 800 l 25
 454 700 l 25
 416 700 l 25
 416 500 l 25x1b20
 379 500 l 25
 379 400 l 25
 304 400 l 25
 304 300 l 25
 379 300 l 25x1a40
 379 200 l 25x8840
 416 200 l 25x8820
 416 0 l 25
 454 0 l 25
 454 -100 l 25
 -34 -100 l 25x2820
EndSplineSet
EndChar

StartChar: uni23F3
Encoding: 9203 9203 238
Width: 420
Flags: HW
HStem: -100 200<79 341> -100 100<-34 4 416 454> 200 100<79 116 304 341> 400 100<79 116 304 341> 500 300<4 41 154 266 379 416> 600 200<79 154 266 341> 700 100<-34 4 416 454>
VStem: 4 75<100 200 500 600> 41 112<400 500> 266 112<400 500> 341 75<100 200 500 600>
LayerCount: 2
Back
Fore
SplineSet
79 100 m 29xa120
 341 100 l 25
 341 200 l 25
 229 200 l 25
 229 300 l 25
 191 300 l 25
 191 200 l 25
 79 200 l 25
 79 100 l 29xa120
266 500 m 25x2840
 341 500 l 25
 341 600 l 25x3420
 266 600 l 25x3440
 266 500 l 25x2840
154 400 m 25x30c0
 266 400 l 25x30c0
 266 500 l 25
 154 500 l 25x28c0
 154 400 l 25x30c0
79 500 m 25x35
 154 500 l 25x2880
 154 600 l 25x2480
 79 600 l 25
 79 500 l 25x35
-34 -100 m 25x7020
 -34 0 l 25
 4 0 l 25
 4 200 l 25x7120
 41 200 l 25
 41 300 l 25
 116 300 l 25
 116 400 l 25
 41 400 l 25x7080
 41 500 l 25x2880
 4 500 l 25x29
 4 700 l 25
 -34 700 l 25
 -34 800 l 25
 454 800 l 25
 454 700 l 25
 416 700 l 25x2320
 416 500 l 25x2920
 379 500 l 25x2840
 379 400 l 25
 304 400 l 25
 304 300 l 25
 379 300 l 25
 379 200 l 25x3040
 416 200 l 25
 416 0 l 25
 454 0 l 25
 454 -100 l 25
 -34 -100 l 25x7020
EndSplineSet
EndChar

StartChar: uni26D4
Encoding: 9940 9940 239
Width: 420
Flags: HW
HStem: -100 400<60 360> 400 400<60 360>
VStem: -90 112<300 400> 398 112<300 400>
LayerCount: 2
Back
Fore
SplineSet
22 300 m 29
 398 300 l 25
 398 400 l 25
 22 400 l 25
 22 300 l 29
60 -100 m 25
 60 0 l 25
 -15 0 l 25
 -15 100 l 25
 -52 100 l 25
 -52 200 l 25
 -90 200 l 25
 -90 500 l 25
 -52 500 l 25
 -52 600 l 25
 -15 600 l 25
 -15 700 l 25
 60 700 l 25
 60 800 l 25
 360 800 l 25
 360 700 l 25
 435 700 l 25
 435 600 l 25
 472 600 l 25
 472 500 l 25
 510 500 l 25
 510 200 l 25
 472 200 l 25
 472 100 l 25
 435 100 l 25
 435 0 l 25
 360 0 l 25
 360 -100 l 25
 60 -100 l 25
EndSplineSet
EndChar

StartChar: uni26C5
Encoding: 9925 9925 240
Width: 420
Flags: HW
HStem: 0 300<60 98 248 360> 100 100<-15 22 398 435> 500 100<60 135>
VStem: -15 75<300 500> 135 75<400 500>
LayerCount: 2
Back
Fore
SplineSet
98 300 m 29xb8
 98 400 l 25
 135 400 l 25
 135 500 l 25
 60 500 l 25
 60 300 l 25
 98 300 l 29xb8
-15 300 m 25
 -15 500 l 25
 22 500 l 25
 22 600 l 25
 172 600 l 25
 172 500 l 25
 210 500 l 25
 210 400 l 25
 248 400 l 25
 248 300 l 25
 360 300 l 25xb8
 360 200 l 25
 435 200 l 25
 435 100 l 25
 398 100 l 25x78
 398 0 l 25
 60 0 l 25xb8
 60 100 l 25
 -15 100 l 25
 -15 200 l 25
 22 200 l 25x78
 22 300 l 25
 -15 300 l 25
EndSplineSet
EndChar

StartChar: musicalnote
Encoding: 9834 9834 241
Width: 420
Flags: HW
HStem: 0 300<41 191> 100 100<4 41> 700 100<266 304>
VStem: 191 75<300 700> 304 75<600 700> 341 75<400 600>
LayerCount: 2
Back
Fore
SplineSet
41 0 m 29xb8
 41 100 l 25
 4 100 l 25
 4 200 l 25
 41 200 l 25x78
 41 300 l 25
 191 300 l 25
 191 800 l 25
 341 800 l 25
 341 700 l 25xb4
 379 700 l 25
 379 600 l 25xb8
 416 600 l 25
 416 400 l 25
 341 400 l 25
 341 600 l 25xb4
 304 600 l 25
 304 700 l 25
 266 700 l 25
 266 100 l 25
 229 100 l 25x78
 229 0 l 25
 41 0 l 29xb8
EndSplineSet
EndChar

StartChar: musicalnotedbl
Encoding: 9835 9835 242
Width: 420
Flags: HW
HStem: 0 300<-34 79 304 416> 100 100<-71 -34 266 304> 700 100<154 416>
VStem: 79 75<300 700> 416 75<300 700>
LayerCount: 2
Back
Fore
SplineSet
-71 100 m 29x78
 -71 200 l 5
 -34 200 l 29x78
 -34 300 l 29
 79 300 l 29xb8
 79 800 l 29
 491 800 l 29
 491 100 l 29
 454 100 l 29x78
 454 0 l 29
 304 0 l 29xb8
 304 100 l 29
 266 100 l 29
 266 200 l 29
 304 200 l 29x78
 304 300 l 29
 416 300 l 29xb8
 416 700 l 29
 154 700 l 29
 154 100 l 29
 116 100 l 29x78
 116 0 l 29
 -34 0 l 29xb8
 -34 100 l 5
 -71 100 l 29x78
EndSplineSet
EndChar

StartChar: uni266C
Encoding: 9836 9836 243
Width: 420
Flags: HW
HStem: 0 300<-34 79 304 416> 100 100<-71 -34 266 304> 500 100<154 416> 700 100<154 416>
VStem: 79 75<300 500 600 700> 416 75<300 500 600 700>
LayerCount: 2
Back
Fore
SplineSet
154 600 m 1x3c
 416 600 l 29
 416 700 l 1
 154 700 l 25
 154 600 l 1x3c
-71 100 m 25x7c
 -71 200 l 1
 -34 200 l 25x7c
 -34 300 l 25
 79 300 l 25xbc
 79 800 l 25
 491 800 l 25
 491 100 l 25
 454 100 l 25x7c
 454 0 l 25
 304 0 l 25xbc
 304 100 l 25
 266 100 l 25
 266 200 l 25
 304 200 l 25x7c
 304 300 l 25
 416 300 l 1xbc
 416 500 l 1
 154 500 l 1
 154 100 l 1
 116 100 l 25x7c
 116 0 l 25
 -34 0 l 25xbc
 -34 100 l 1
 -71 100 l 25x7c
EndSplineSet
EndChar

StartChar: Idieresis
Encoding: 207 207 244
Width: 420
Flags: HW
HStem: 0 100<60 172 248 360> 600 100<60 172 248 360>
VStem: 172 75<100 600>
LayerCount: 2
Back
Fore
SplineSet
60 700 m 29
 360 700 l 25
 360 600 l 25
 248 600 l 25
 248 100 l 25
 360 100 l 25
 360 0 l 25
 60 0 l 25
 60 100 l 25
 172 100 l 25
 172 600 l 25
 60 600 l 25
 60 700 l 29
EndSplineSet
EndChar

StartChar: idieresis
Encoding: 239 239 245
Width: 420
Flags: HW
HStem: 0 100<98 172 247 322> 400 100<135 172> 600 100<135 248>
VStem: 135 112<400 500 600 700> 172 75<100 400>
LayerCount: 2
Back
Fore
SplineSet
135 500 m 1xf0
 248 500 l 25xf0
 247 100 l 25
 322 100 l 25
 322 0 l 25
 98 0 l 25
 98 100 l 25
 172 100 l 25
 172 400 l 1xe8
 135 400 l 29
 135 500 l 1xf0
135 700 m 25
 248 700 l 25
 248 600 l 25
 135 600 l 25
 135 700 l 25
EndSplineSet
EndChar

StartChar: onequarter
Encoding: 188 188 246
Width: 420
Flags: HW
HStem: -200 21G<322 398> -100 100<248 322> 200 100<285 322> 500 100<22 60> 680 20G<60 135>
VStem: 22 112<500 600> 60 75<200 500 600 700> 172 75<0 100> 210 75<100 200> 248 75<200 300> 322 75<-200 -100 0 100>
LayerCount: 2
Back
Fore
SplineSet
248 200 m 29xf840
 248 300 l 29
 322 300 l 29
 322 200 l 29xf840
 285 200 l 29
 285 100 l 29xf880
 248 100 l 29
 248 0 l 29
 322 0 l 29
 322 100 l 29
 398 100 l 29
 398 -200 l 29
 322 -200 l 29
 322 -100 l 29
 172 -100 l 29
 172 100 l 29xf920
 210 100 l 29
 210 200 l 29xf880
 248 200 l 29xf840
60 600 m 25xfa
 60 700 l 25
 135 700 l 25
 135 200 l 25
 60 200 l 25
 60 500 l 25xfa
 22 500 l 25
 22 600 l 25xfc
 60 600 l 25xfa
EndSplineSet
EndChar

StartChar: onehalf
Encoding: 189 189 247
Width: 420
Flags: HW
HStem: -200 100<172 210 285 398> 0 100<285 322> 100 100<172 210 360 398> 200 100<248 322> 500 100<22 60> 680 20G<60 135>
VStem: 22 112<500 600> 60 75<200 500 600 700> 172 75<100 200> 210 75<-100 0> 285 75<0 100> 322 75<100 200>
LayerCount: 2
Back
Fore
SplineSet
172 100 m 29xac90
 172 200 l 25xac90
 210 200 l 25xac40
 210 300 l 25x9c40
 360 300 l 25x9c20
 360 200 l 25xac20
 398 200 l 25
 398 100 l 25xac10
 360 100 l 25xac20
 360 0 l 25xcc20
 285 0 l 25
 285 -100 l 25xcc40
 398 -100 l 25
 398 -200 l 25
 172 -200 l 25
 172 -100 l 25xcc90
 210 -100 l 25
 210 0 l 25
 285 0 l 25xcc40
 285 100 l 25xcc20
 322 100 l 25
 322 200 l 25
 248 200 l 25xdc90
 248 100 l 25
 172 100 l 29xac90
60 600 m 25x9d
 60 700 l 25
 135 700 l 25
 135 200 l 25
 60 200 l 25
 60 500 l 25x9d
 22 500 l 25
 22 600 l 25x9e
 60 600 l 25x9d
EndSplineSet
EndChar

StartChar: threequarters
Encoding: 190 190 248
Width: 420
Flags: HW
HStem: -200 21G<341 416> -100 100<266 341> 200 100<4 116 304 341> 400 100<41 116> 600 100<4 116>
VStem: 41 112<400 500> 116 75<300 400 500 600> 191 75<0 100> 229 75<100 200> 266 75<200 300> 341 75<-200 -100 0 100>
LayerCount: 2
Back
Fore
SplineSet
266 200 m 25xf840
 266 300 l 25
 341 300 l 25
 341 200 l 25xf840
 304 200 l 25
 304 100 l 25xf880
 266 100 l 25
 266 0 l 25
 341 0 l 25
 341 100 l 25
 416 100 l 25
 416 -200 l 25
 341 -200 l 25
 341 -100 l 25
 191 -100 l 25
 191 100 l 25xf920
 229 100 l 25
 229 200 l 25xf880
 266 200 l 25xf840
4 600 m 1
 4 700 l 1
 191 700 l 1xf9
 191 500 l 25xfa
 154 500 l 25
 154 400 l 25xfc
 191 400 l 25
 191 300 l 25xfa
 154 300 l 25
 154 200 l 1xfc
 4 200 l 1
 4 300 l 1
 116 300 l 1
 116 400 l 25xfa
 41 400 l 25
 41 500 l 25xfc
 116 500 l 25
 116 600 l 1xfa
 4 600 l 1
EndSplineSet
EndChar

StartChar: udieresis
Encoding: 252 252 249
Width: 420
Flags: HW
HStem: 0 100<116 266> 100 100<266 304> 480 20G<41 116 304 379>
VStem: 41 75<100 500> 266 112<100 200> 304 75<0 100 200 500>
LayerCount: 2
Back
Fore
SplineSet
41 500 m 29x78
 116 500 l 25
 116 100 l 25
 266 100 l 25xb8
 266 200 l 25x78
 304 200 l 25x74
 304 500 l 25
 379 500 l 25
 379 0 l 25
 304 0 l 25xb4
 304 100 l 25x74
 266 100 l 25
 266 0 l 25
 79 0 l 25xb8
 79 100 l 25
 41 100 l 25
 41 500 l 29x78
EndSplineSet
EndChar

StartChar: oslash
Encoding: 248 248 250
Width: 420
Flags: HW
HStem: 0 100<116 304> 400 100<116 304>
VStem: 41 75<100 400> 304 75<100 400>
LayerCount: 2
Back
Fore
SplineSet
116 400 m 29
 116 100 l 25
 304 100 l 25
 304 400 l 25
 116 400 l 29
79 500 m 25
 341 500 l 25
 341 400 l 25
 379 400 l 25
 379 100 l 25
 341 100 l 25
 341 0 l 25
 79 0 l 25
 79 100 l 25
 41 100 l 25
 41 400 l 25
 79 400 l 25
 79 500 l 25
EndSplineSet
EndChar

StartChar: copyright
Encoding: 169 169 251
Width: 420
Flags: HW
HStem: 0 100<98 322> 200 100<172 285> 300 100<98 135> 400 100<172 285> 600 100<98 322>
VStem: -15 75<200 500> 22 75<100 200 500 600> 98 75<300 400> 135 150<200 300 400 500> 322 75<100 200 500 600> 360 75<200 500>
LayerCount: 2
Back
Fore
SplineSet
135 400 m 29xa880
 135 500 l 1
 285 500 l 25
 285 400 l 25x9880
 172 400 l 25
 172 300 l 25xd9
 285 300 l 25
 285 200 l 25
 135 200 l 25xd880
 135 300 l 25xa880
 98 300 l 25
 98 400 l 1xa9
 135 400 l 29xa880
98 500 m 25xda40
 60 500 l 25
 60 200 l 25xdc
 98 200 l 25
 98 100 l 25
 322 100 l 25
 322 200 l 25xda40
 360 200 l 25
 360 500 l 25xd820
 322 500 l 25
 322 600 l 25
 98 600 l 25
 98 500 l 25xda40
60 600 m 25
 60 700 l 25
 360 700 l 25
 360 600 l 25xdc20
 398 600 l 25
 398 500 l 25xd840
 435 500 l 25
 435 200 l 25xd820
 398 200 l 25
 398 100 l 25xd840
 360 100 l 25
 360 0 l 25
 60 0 l 25
 60 100 l 25xdc20
 22 100 l 25
 22 200 l 25xda
 -15 200 l 25
 -15 500 l 25xdc
 22 500 l 25
 22 600 l 25xda
 60 600 l 25
EndSplineSet
EndChar

StartChar: registered
Encoding: 174 174 252
Width: 420
Flags: HW
HStem: 0 100<98 322> 200 100<248 322> 400 100<248 285> 600 100<98 322>
VStem: -15 75<200 500> 22 75<100 200 500 600> 135 112<300 400> 135 75<200 300> 248 75<200 300> 322 75<100 200 500 600> 360 75<200 500>
LayerCount: 2
Back
Fore
SplineSet
135 200 m 29xf1
 135 500 l 25xf1
 285 500 l 25
 285 400 l 25
 248 400 l 25
 248 300 l 25xf2
 322 300 l 25
 322 200 l 25
 248 200 l 25xf080
 248 300 l 25xf2
 210 300 l 25
 210 200 l 25
 135 200 l 29xf1
98 500 m 25xf440
 60 500 l 25
 60 200 l 25xf8
 98 200 l 25
 98 100 l 25
 322 100 l 25xf440
 322 200 l 25
 360 200 l 25
 360 500 l 25xf0a0
 322 500 l 25
 322 600 l 25
 98 600 l 25
 98 500 l 25xf440
60 600 m 25
 60 700 l 25
 360 700 l 25
 360 600 l 25xf820
 398 600 l 25
 398 500 l 25xf040
 435 500 l 25
 435 200 l 25xf020
 398 200 l 25
 398 100 l 25xf040
 360 100 l 25
 360 0 l 25
 60 0 l 25
 60 100 l 25xf820
 22 100 l 25
 22 200 l 25xf4
 -15 200 l 25
 -15 500 l 25xf8
 22 500 l 25
 22 600 l 25xf4
 60 600 l 25
EndSplineSet
EndChar

StartChar: uni00B2
Encoding: 178 178 253
Width: 420
Flags: HW
HStem: 300 100<98 135 210 322> 500 100<210 248> 600 100<98 135 285 322> 700 100<172 248>
VStem: 98 75<600 700> 135 75<400 500> 210 75<500 600> 248 75<600 700>
LayerCount: 2
Back
Fore
SplineSet
135 700 m 29xa4
 135 800 l 25x94
 285 800 l 25x92
 285 700 l 25xa2
 322 700 l 25
 322 600 l 25xa1
 285 600 l 25xa2
 285 500 l 25xc2
 210 500 l 25
 210 400 l 25xc4
 322 400 l 25
 322 300 l 25
 98 300 l 25
 98 400 l 25xc9
 135 400 l 25
 135 500 l 25
 210 500 l 25xc4
 210 600 l 25xc2
 248 600 l 25
 248 700 l 25
 172 700 l 25xd9
 172 600 l 25
 98 600 l 25
 98 700 l 25xa9
 135 700 l 29xa4
EndSplineSet
EndChar

StartChar: uni00B3
Encoding: 179 179 254
Width: 420
Flags: HW
HStem: 300 100<98 248> 400 100<285 322> 500 100<172 248> 700 100<98 248>
VStem: 172 112<500 600> 248 75<400 500 600 700>
LayerCount: 2
Back
Fore
SplineSet
98 700 m 29xb4
 98 800 l 29
 322 800 l 29
 322 600 l 29xb4
 285 600 l 29xb8
 285 500 l 29x58
 322 500 l 29
 322 400 l 29x54
 285 400 l 29x58
 285 300 l 29x98
 98 300 l 29
 98 400 l 29
 248 400 l 29
 248 500 l 29xb4
 172 500 l 29
 172 600 l 29xb8
 248 600 l 29
 248 700 l 29
 98 700 l 29xb4
EndSplineSet
EndChar

StartChar: uni00B9
Encoding: 185 185 255
Width: 420
Flags: HW
HStem: 600 100<154 191>
VStem: 154 112<600 700> 191 75<400 600 700 800>
LayerCount: 2
Back
Fore
SplineSet
191 700 m 29xa0
 191 800 l 25
 266 800 l 25
 266 400 l 25
 191 400 l 25
 191 600 l 25xa0
 154 600 l 25
 154 700 l 25xc0
 191 700 l 29xa0
EndSplineSet
EndChar

StartChar: Euro
Encoding: 8364 8364 256
Width: 420
Flags: HW
HStem: 0 100<172 322> 100 100<360 398> 200 100<22 60 172 285> 400 100<22 60 172 285> 500 100<360 398> 600 100<172 322>
VStem: 98 75<100 200 500 600> 135 225<0 100 600 700> 322 75<100 200 500 600>
LayerCount: 2
Back
Fore
SplineSet
172 500 m 29x1680
 285 500 l 25
 285 400 l 25
 135 400 l 25
 135 300 l 25x35
 285 300 l 25
 285 200 l 25
 172 200 l 25
 172 100 l 25
 322 100 l 25
 322 200 l 25xb680
 398 200 l 25
 398 100 l 25x4280
 360 100 l 25x41
 360 0 l 25
 135 0 l 25x81
 135 100 l 25x41
 98 100 l 25x42
 98 200 l 25
 22 200 l 25
 22 300 l 25
 60 300 l 25
 60 400 l 25
 22 400 l 25
 22 500 l 25x32
 98 500 l 25x0a
 98 600 l 25x06
 135 600 l 25
 135 700 l 25
 360 700 l 25x05
 360 600 l 25x09
 398 600 l 25
 398 500 l 25
 322 500 l 25x0880
 322 600 l 25
 172 600 l 25
 172 500 l 29x1680
EndSplineSet
EndChar

StartChar: uni20B4
Encoding: 8372 8372 257
Width: 420
Flags: HW
HStem: 0 100<116 304> 100 100<341 379> 300 100<116 304> 500 100<41 79> 600 100<116 304>
VStem: 41 75<100 300 500 600> 79 262<0 100 300 400 600 700> 304 75<100 200 400 600>
LayerCount: 2
Back
Fore
SplineSet
41 500 m 29x35
 41 600 l 25x35
 79 600 l 25x32
 79 700 l 25
 341 700 l 25
 341 600 l 25x2a
 379 600 l 25
 379 400 l 25x29
 341 400 l 25
 341 300 l 25x2a
 116 300 l 25
 116 100 l 25
 304 100 l 25xad
 304 200 l 25
 379 200 l 25
 379 100 l 25x65
 341 100 l 25x62
 341 0 l 25
 79 0 l 25xa2
 79 100 l 25x62
 41 100 l 25
 41 300 l 25x64
 79 300 l 25
 79 400 l 25x62
 304 400 l 25
 304 600 l 25
 116 600 l 25x6d
 116 500 l 25
 41 500 l 29x35
EndSplineSet
EndChar

StartChar: radical
Encoding: 8730 8730 258
Width: 420
Flags: HW
HStem: 0 100<98 135> 600 100<248 435>
VStem: -15 75<200 400> 22 75<100 200> 135 75<100 300> 172 75<300 600>
LayerCount: 2
Back
Fore
SplineSet
-15 200 m 29xe0
 -15 400 l 25
 60 400 l 25
 60 200 l 25xe0
 98 200 l 25
 98 100 l 25
 135 100 l 25
 135 300 l 25xd8
 172 300 l 25
 172 600 l 25xc4
 210 600 l 25
 210 700 l 25xc8
 435 700 l 25
 435 600 l 25
 248 600 l 25
 248 300 l 25xc4
 210 300 l 25
 210 100 l 25xc8
 172 100 l 25
 172 0 l 25
 60 0 l 25
 60 100 l 25xe4
 22 100 l 25
 22 200 l 25xd0
 -15 200 l 29xe0
EndSplineSet
EndChar

StartChar: infinity
Encoding: 8734 8734 259
Width: 420
Flags: HW
HStem: 100 100<4 116 304 416> 200 300<-71 -34 154 191 229 266 454 491> 500 100<4 116 304 416>
VStem: -71 75<200 500> -34 188<100 200 500 600> 116 75<200 300 400 500> 229 75<200 300 400 500> 266 188<100 200 500 600> 416 75<200 500>
LayerCount: 2
Back
Fore
SplineSet
266 300 m 29xa1
 304 300 l 25
 304 200 l 25
 416 200 l 25
 416 500 l 25
 304 500 l 25
 304 400 l 25xa280
 266 400 l 25
 266 300 l 29xa1
4 200 m 25xb4
 116 200 l 25
 116 300 l 25xb4
 154 300 l 25
 154 400 l 25xa8
 116 400 l 25
 116 500 l 25
 4 500 l 25
 4 200 l 25xb4
-71 200 m 25x50
 -71 500 l 25x50
 -34 500 l 25x48
 -34 600 l 25
 154 600 l 25x28
 154 500 l 25x48
 191 500 l 25
 191 400 l 25
 229 400 l 25
 229 500 l 25x46
 266 500 l 25x41
 266 600 l 25
 454 600 l 25x21
 454 500 l 25x41
 491 500 l 25
 491 200 l 25x4080
 454 200 l 25x41
 454 100 l 25
 266 100 l 25x81
 266 200 l 25x41
 229 200 l 25
 229 300 l 25
 191 300 l 25
 191 200 l 25x46
 154 200 l 25x48
 154 100 l 25
 -34 100 l 25x88
 -34 200 l 25x48
 -71 200 l 25x50
EndSplineSet
EndChar

StartChar: uni2B50
Encoding: 11088 11088 260
Width: 420
Flags: HW
HStem: 0 100<22 60 360 398> 400 200<60 135 285 360> 500 100<-15 60 360 435>
VStem: 22 75<0 100> 60 112<100 200> 135 150<300 400 600 700> 248 112<100 200> 322 75<0 100>
LayerCount: 2
Back
Fore
SplineSet
22 0 m 29xd0
 22 100 l 25xd0
 60 100 l 25
 60 200 l 25xc8
 98 200 l 25
 98 300 l 25
 135 300 l 25
 135 400 l 25xd4
 60 400 l 25xc8
 60 500 l 25
 -15 500 l 25
 -15 600 l 25xa8
 135 600 l 25
 135 700 l 25xc4
 172 700 l 25
 172 800 l 25
 248 800 l 25
 248 700 l 25xca
 285 700 l 25
 285 600 l 25xc4
 435 600 l 25
 435 500 l 25
 360 500 l 25xa2
 360 400 l 25xc2
 285 400 l 25
 285 300 l 25
 322 300 l 25
 322 200 l 25xc5
 360 200 l 25
 360 100 l 25xc2
 398 100 l 25
 398 0 l 25
 322 0 l 25
 322 100 l 25xc1
 248 100 l 25
 248 200 l 25
 172 200 l 25
 172 100 l 25xca
 98 100 l 25
 98 0 l 25
 22 0 l 29xd0
EndSplineSet
EndChar

StartChar: uni274C
Encoding: 10060 10060 261
Width: 420
Flags: HW
HStem: 100 100<22 98 322 398> 200 100<98 135 285 322> 400 100<98 135 285 322> 500 100<22 98 322 398>
VStem: 22 75<100 200 500 600> 98 75<200 300 400 500> 248 75<200 300 400 500> 322 75<100 200 500 600>
LayerCount: 2
Back
Fore
SplineSet
98 400 m 29x64
 98 500 l 25x68
 172 500 l 25x14
 172 400 l 25
 248 400 l 25x26
 248 500 l 25x16
 322 500 l 25x26
 322 600 l 25
 398 600 l 25
 398 500 l 25x11
 322 500 l 25
 322 400 l 25
 285 400 l 25
 285 300 l 25
 322 300 l 25x62
 322 200 l 25x82
 398 200 l 25
 398 100 l 25
 322 100 l 25x81
 322 200 l 25x82
 248 200 l 25
 248 300 l 25
 172 300 l 25
 172 200 l 25x46
 98 200 l 25
 98 100 l 25
 22 100 l 25
 22 200 l 25
 98 200 l 25x88
 98 300 l 25
 135 300 l 25
 135 400 l 25
 98 400 l 29x64
22 500 m 25x18
 22 600 l 25
 98 600 l 25x18
 98 500 l 25x28
 22 500 l 25x18
EndSplineSet
EndChar

StartChar: uni2713
Encoding: 10003 10003 262
Width: 420
Flags: HW
HStem: 0 100<116 154> 200 100<4 41> 600 100<379 416>
VStem: 4 75<200 300> 41 75<100 200> 154 75<100 200> 191 75<200 300> 229 75<300 400> 266 75<400 500> 304 75<500 600> 341 75<600 700>
LayerCount: 2
Back
Fore
SplineSet
4 200 m 29xf0
 4 300 l 1
 79 300 l 25
 79 200 l 25xf0
 116 200 l 25
 116 100 l 25
 154 100 l 25
 154 200 l 25xec
 191 200 l 25
 191 300 l 25xe2
 229 300 l 25
 229 400 l 25xe1
 266 400 l 25
 266 500 l 25xe080
 304 500 l 25
 304 600 l 25xe040
 341 600 l 25
 341 700 l 25
 416 700 l 25
 416 600 l 25xe020
 379 600 l 25
 379 500 l 25xe040
 341 500 l 25
 341 400 l 25xe080
 304 400 l 25
 304 300 l 25xe1
 266 300 l 25
 266 200 l 25xe2
 229 200 l 25
 229 100 l 25xe4
 191 100 l 25
 191 0 l 25
 79 0 l 25
 79 100 l 25xf2
 41 100 l 25
 41 200 l 1xe8
 4 200 l 29xf0
EndSplineSet
EndChar

StartChar: uni2699
Encoding: 9881 9881 263
Width: 420
Flags: HW
HStem: 0 100<22 60 360 398> 300 100<-52 60 360 472> 600 100<22 60 360 398>
VStem: 22 75<0 100 601 700> 60 112<200 300 400 500> 172 75<-100 100 600 800> 248 112<200 300 400 500> 322 75<0 100 600 700>
CounterMasks: 1 e0
LayerCount: 2
Back
Fore
SplineSet
135 300 m 29xea
 172 300 l 25
 172 200 l 25
 248 200 l 25
 248 300 l 25
 285 300 l 25
 285 400 l 25
 248 400 l 25
 248 500 l 25
 172 500 l 25
 172 400 l 25
 135 400 l 25
 135 300 l 29xea
-52 300 m 25
 -52 400 l 25
 60 400 l 25
 60 601 l 25xe8
 22 600 l 25
 22 700 l 25
 98 700 l 25
 98 600 l 25
 172 600 l 25
 172 800 l 25
 248 800 l 25
 248 600 l 25
 322 600 l 25
 322 700 l 25
 398 700 l 25
 398 600 l 25xf5
 360 600 l 25
 360 400 l 25
 472 400 l 25
 472 300 l 25
 360 300 l 25
 360 100 l 25xe2
 398 100 l 25
 398 0 l 25
 322 0 l 25
 322 100 l 25
 248 100 l 25
 248 -100 l 25
 172 -100 l 25
 172 100 l 25
 98 100 l 25
 98 0 l 25
 22 0 l 25
 22 100 l 25xf5
 60 100 l 25
 60 300 l 25
 -52 300 l 25
EndSplineSet
EndChar

StartChar: uni2139
Encoding: 8505 8505 264
Width: 420
Flags: HW
HStem: -100 100<22 398> 500 100<172 248> 700 100<22 398>
VStem: -90 75<100 600> -52 75<0 100 600 700> 172 75<100 400 500 600> 398 75<0 100 600 700> 435 75<100 600>
LayerCount: 2
Back
Fore
SplineSet
172 100 m 25xe4
 172 400 l 25
 248 400 l 25
 248 100 l 25
 172 100 l 25xe4
172 500 m 25
 172 600 l 25
 248 600 l 25
 248 500 l 25
 172 500 l 25
435 600 m 29xe5
 398 600 l 25
 398 700 l 25
 22 700 l 25
 22 600 l 25xee
 -15 600 l 25
 -15 100 l 25xf4
 22 100 l 25
 22 0 l 25
 398 0 l 25
 398 100 l 25xee
 435 100 l 25
 435 600 l 29xe5
-90 100 m 25xf4
 -90 600 l 25xf4
 -52 600 l 25
 -52 700 l 25xec
 -15 700 l 25
 -15 800 l 25
 435 800 l 25
 435 700 l 25xf5
 472 700 l 25
 472 600 l 25xe6
 510 600 l 25
 510 100 l 25xe5
 472 100 l 25
 472 0 l 25xe6
 435 0 l 25
 435 -100 l 25
 -15 -100 l 25
 -15 0 l 25xf5
 -52 0 l 25
 -52 100 l 25xec
 -90 100 l 25xf4
EndSplineSet
EndChar

StartChar: uni2605
Encoding: 9733 9733 265
Width: 420
Flags: HW
HStem: 0 100<22 60 360 398> 400 200<60 135 285 360> 500 100<-15 60 360 435>
VStem: 22 75<0 100> 60 112<100 200> 135 150<300 400 600 700> 248 112<100 200> 322 75<0 100>
LayerCount: 2
Back
Fore
SplineSet
22 0 m 29xd0
 22 100 l 25xd0
 60 100 l 25
 60 200 l 25xc8
 98 200 l 25
 98 300 l 25
 135 300 l 25
 135 400 l 25xd4
 60 400 l 25xc8
 60 500 l 25
 -15 500 l 25
 -15 600 l 25xa8
 135 600 l 25
 135 700 l 25xc4
 172 700 l 25
 172 800 l 25
 248 800 l 25
 248 700 l 25xca
 285 700 l 25
 285 600 l 25xc4
 435 600 l 25
 435 500 l 25
 360 500 l 25xa2
 360 400 l 25xc2
 285 400 l 25
 285 300 l 25
 322 300 l 25
 322 200 l 25xc5
 360 200 l 25
 360 100 l 25xc2
 398 100 l 25
 398 0 l 25
 322 0 l 25
 322 100 l 25xc1
 248 100 l 25
 248 200 l 25
 172 200 l 25
 172 100 l 25xca
 98 100 l 25
 98 0 l 25
 22 0 l 29xd0
EndSplineSet
EndChar

StartChar: uni23CF
Encoding: 9167 9167 266
Width: 420
Flags: HW
HStem: 0 100<22 398> 200 100<22 60 360 398> 680 20G<172 248>
VStem: 172 75<600 700>
LayerCount: 2
Back
Fore
SplineSet
22 0 m 25
 22 100 l 25
 398 100 l 25
 398 0 l 25
 22 0 l 25
22 200 m 29
 22 300 l 29
 60 300 l 29
 60 400 l 29
 98 400 l 29
 98 500 l 29
 135 500 l 29
 135 600 l 29
 172 600 l 29
 172 700 l 29
 248 700 l 29
 248 600 l 29
 285 600 l 29
 285 500 l 29
 322 500 l 29
 322 400 l 29
 360 400 l 29
 360 300 l 29
 398 300 l 29
 398 200 l 29
 22 200 l 29
EndSplineSet
EndChar

StartChar: uni23E9
Encoding: 9193 9193 267
Width: 420
Flags: HW
HStem: 0 21G<-109 -34 229 304> 200 300<41 116 379 454> 300 100<116 191 454 529> 680 20G<-109 -34 229 304>
VStem: -109 225<200 300 400 500> -109 150<100 200 500 600> -109 75<0 100 600 700> 229 225<200 300 400 500> 229 150<100 200 500 600> 229 75<0 100 600 700>
LayerCount: 2
Back
Fore
SplineSet
-109 700 m 29xd2
 -34 700 l 29
 -34 600 l 29xd2
 41 600 l 29
 41 500 l 29xd4
 116 500 l 29xd8
 116 400 l 29
 191 400 l 29
 191 300 l 29
 116 300 l 29xb8
 116 200 l 29xd8
 41 200 l 29
 41 100 l 29xd4
 -34 100 l 29
 -34 0 l 29
 -109 0 l 29
 -109 700 l 29xd2
229 700 m 25xd040
 304 700 l 25
 304 600 l 25xd040
 379 600 l 25
 379 500 l 25xd080
 454 500 l 25xd1
 454 400 l 25
 529 400 l 25
 529 300 l 25
 454 300 l 25xb1
 454 200 l 25xd1
 379 200 l 25
 379 100 l 25xd080
 304 100 l 25
 304 0 l 25
 229 0 l 25
 229 700 l 25xd040
EndSplineSet
EndChar

StartChar: uni23EA
Encoding: 9194 9194 268
Width: 420
Flags: HW
HStem: 0 21G<116 191 454 529> 200 300<-34 41 304 379> 300 100<-109 -34 229 304> 680 20G<116 191 454 529>
VStem: -34 225<200 300 400 500> 41 150<100 200 500 600> 116 75<0 100 600 700> 304 225<200 300 400 500> 379 150<100 200 500 600> 454 75<0 100 600 700>
LayerCount: 2
Back
Fore
SplineSet
529 700 m 25xd040
 529 0 l 25
 454 0 l 25
 454 100 l 25xd040
 379 100 l 25
 379 200 l 25xd080
 304 200 l 25xd1
 304 300 l 25
 229 300 l 25
 229 400 l 25
 304 400 l 25xb1
 304 500 l 25xd1
 379 500 l 25
 379 600 l 25xd080
 454 600 l 25
 454 700 l 25
 529 700 l 25xd040
191 700 m 29xd2
 191 0 l 29
 116 0 l 29
 116 100 l 29xd2
 41 100 l 29
 41 200 l 29xd4
 -34 200 l 29xd8
 -34 300 l 29
 -109 300 l 29
 -109 400 l 29
 -34 400 l 29xb8
 -34 500 l 29xd8
 41 500 l 29
 41 600 l 29xd4
 116 600 l 29
 116 700 l 29
 191 700 l 29xd2
EndSplineSet
EndChar

StartChar: uni23ED
Encoding: 9197 9197 269
Width: 420
Flags: HW
HStem: 0 21G<-184 -109 154 229 491 604> 200 300<-34 41 304 379> 300 100<41 116 379 454> 680 20G<-184 -109 154 229 491 604>
VStem: -184 225<200 300 400 500> -184 150<100 200 500 600> -184 75<0 100 600 700> 154 225<200 300 400 500> 154 150<100 200 500 600> 154 75<0 100 600 700> 491 112<0 700>
LayerCount: 2
Back
Fore
SplineSet
491 700 m 29x9020
 604 700 l 29
 604 0 l 29
 491 0 l 29
 491 700 l 29x9020
154 700 m 25xd060
 229 700 l 25
 229 600 l 25xd060
 304 600 l 25
 304 500 l 25xd0a0
 379 500 l 25xd120
 379 400 l 25
 454 400 l 25
 454 300 l 25
 379 300 l 25xb120
 379 200 l 25xd120
 304 200 l 25
 304 100 l 25xd0a0
 229 100 l 25
 229 0 l 25
 154 0 l 25
 154 700 l 25xd060
-184 700 m 25xd220
 -109 700 l 25
 -109 600 l 25xd220
 -34 600 l 25
 -34 500 l 25xd420
 41 500 l 25xd820
 41 400 l 25
 116 400 l 25
 116 300 l 25
 41 300 l 25xb820
 41 200 l 25xd820
 -34 200 l 25
 -34 100 l 25xd420
 -109 100 l 25
 -109 0 l 25
 -184 0 l 25
 -184 700 l 25xd220
EndSplineSet
EndChar

StartChar: uni23EE
Encoding: 9198 9198 270
Width: 420
Flags: HW
HStem: 0 21G<-184 -71 191 266 529 604> 200 300<41 116 379 454> 300 100<-34 41 304 379> 680 20G<-184 -71 191 266 529 604>
VStem: -184 112<0 700> 41 225<200 300 400 500> 116 150<100 200 500 600> 191 75<0 100 600 700> 379 225<200 300 400 500> 454 150<100 200 500 600> 529 75<0 100 600 700>
LayerCount: 2
Back
Fore
SplineSet
-184 700 m 29x98
 -71 700 l 29
 -71 0 l 29
 -184 0 l 29
 -184 700 l 29x98
604 700 m 25xd820
 604 0 l 25
 529 0 l 25
 529 100 l 25xd820
 454 100 l 25
 454 200 l 25xd840
 379 200 l 25xd880
 379 300 l 25
 304 300 l 25
 304 400 l 25
 379 400 l 25xb880
 379 500 l 25xd880
 454 500 l 25
 454 600 l 25xd840
 529 600 l 25
 529 700 l 25
 604 700 l 25xd820
266 700 m 25xd9
 266 0 l 25
 191 0 l 25
 191 100 l 25xd9
 116 100 l 25
 116 200 l 25xda
 41 200 l 25xdc
 41 300 l 25
 -34 300 l 25
 -34 400 l 25
 41 400 l 25xbc
 41 500 l 25xdc
 116 500 l 25
 116 600 l 25xda
 191 600 l 25
 191 700 l 25
 266 700 l 25xd9
EndSplineSet
EndChar

StartChar: uni23EF
Encoding: 9199 9199 271
Width: 420
Flags: HW
HStem: 0 21G<-146 -71 229 341 454 566> 300 100<79 154> 680 20G<-146 -71 229 341 454 566>
VStem: -146 225<200 300 400 500> -146 150<100 200 500 600> -146 75<0 100 600 700> 229 112<0 700> 454 112<0 700>
LayerCount: 2
Back
Fore
SplineSet
-146 700 m 25xe7
 -71 700 l 25
 -71 600 l 25xe7
 4 600 l 25
 4 500 l 25xeb
 79 500 l 25
 79 400 l 25
 154 400 l 25
 154 300 l 25
 79 300 l 25
 79 200 l 25xf3
 4 200 l 25
 4 100 l 25xeb
 -71 100 l 25
 -71 0 l 25
 -146 0 l 25
 -146 700 l 25xe7
229 700 m 29
 341 700 l 29
 341 0 l 29
 229 0 l 29
 229 700 l 29
454 700 m 29
 566 700 l 29
 566 0 l 29
 454 0 l 29
 454 700 l 29
EndSplineSet
EndChar

StartChar: uni23F8
Encoding: 9208 9208 273
Width: 420
Flags: HW
HStem: 0 21G<41 154 266 379> 680 20G<41 154 266 379>
VStem: 41 112<0 700> 266 112<0 700>
LayerCount: 2
Back
Fore
SplineSet
41 700 m 29
 154 700 l 29
 154 0 l 29
 41 0 l 29
 41 700 l 29
266 700 m 29
 379 700 l 29
 379 0 l 29
 266 0 l 29
 266 700 l 29
EndSplineSet
EndChar

StartChar: uni23F9
Encoding: 9209 9209 274
Width: 420
Flags: HW
HStem: 0 21G<4 416> 680 20G<4 416>
VStem: 4 412<0 700>
LayerCount: 2
Back
Fore
SplineSet
4 700 m 29
 416 700 l 25
 416 0 l 25
 4 0 l 25
 4 700 l 29
EndSplineSet
EndChar

StartChar: uni23FA
Encoding: 9210 9210 275
Width: 420
Flags: HW
HStem: 0 21G<98 322> 680 20G<98 322>
VStem: 98 225<0 100 600 700>
LayerCount: 2
Back
Fore
SplineSet
-15 500 m 29
 22 500 l 25
 22 600 l 25
 98 600 l 25
 98 700 l 25
 322 700 l 25
 322 600 l 25
 398 600 l 25
 398 500 l 25
 435 500 l 25
 435 200 l 25
 398 200 l 25
 398 100 l 25
 322 100 l 25
 322 0 l 25
 98 0 l 25
 98 100 l 25
 22 100 l 25
 22 200 l 25
 -15 200 l 25
 -15 500 l 29
EndSplineSet
EndChar

StartChar: uni23FD
Encoding: 9213 9213 276
Width: 420
Flags: HW
HStem: -100 100<60 360> 500 100<60 98 322 360>
VStem: -52 75<100 400> -15 75<0 100 400 500> 22 75<500 600> 172 75<300 800> 322 75<500 600> 360 75<0 100 400 500> 398 75<100 400>
LayerCount: 2
Back
Fore
SplineSet
172 300 m 29xc4
 172 800 l 1
 248 800 l 25
 248 300 l 1
 172 300 l 29xc4
22 500 m 25xcc
 22 600 l 25
 98 600 l 25
 98 500 l 25xcc
 60 500 l 25
 60 400 l 25xd4
 22 400 l 25
 22 100 l 25xe4
 60 100 l 25
 60 0 l 25
 360 0 l 25
 360 100 l 25xd5
 398 100 l 25
 398 400 l 25xc480
 360 400 l 25
 360 500 l 25xc5
 322 500 l 25
 322 600 l 25
 398 600 l 25
 398 500 l 25xc6
 435 500 l 25
 435 400 l 25xc5
 472 400 l 25
 472 100 l 25xc480
 435 100 l 25
 435 0 l 25xc5
 398 0 l 25
 398 -100 l 25
 22 -100 l 25
 22 0 l 25xcc80
 -15 0 l 25
 -15 100 l 25xd4
 -52 100 l 25
 -52 400 l 25xe4
 -15 400 l 25
 -15 500 l 25xd4
 22 500 l 25xcc
EndSplineSet
EndChar

StartChar: uni2B58
Encoding: 11096 11096 277
Width: 420
Flags: HW
HStem: 0 100<135 285> 100 100<60 98 322 360> 600 100<60 98 322 360> 700 100<135 285>
VStem: -52 75<300 500> -15 75<200 300 500 600> 22 112<100 200 600 700> 98 225<0 100 700 800> 172 75<200 600> 285 112<100 200 600 700> 360 75<200 300 500 600> 398 75<300 500>
LayerCount: 2
Back
Fore
SplineSet
172 200 m 29x6080
 172 600 l 25
 248 600 l 25
 248 200 l 25
 172 200 l 29x6080
60 200 m 25x64
 135 200 l 25x62
 135 100 l 25
 285 100 l 25x8240
 285 200 l 25x4240
 360 200 l 25
 360 300 l 25x4020
 398 300 l 25
 398 500 l 25x4010
 360 500 l 25
 360 600 l 25x6020
 285 600 l 25x6040
 285 700 l 25
 135 700 l 25x1240
 135 600 l 25x2240
 60 600 l 25
 60 500 l 25x24
 22 500 l 25
 22 300 l 25x28
 60 300 l 25
 60 200 l 25x64
22 600 m 25
 22 700 l 1x12
 98 700 l 25x21
 98 800 l 25
 322 800 l 25x11
 322 700 l 25x21
 398 700 l 25x1040
 398 600 l 25x2040
 435 600 l 25
 435 500 l 25x2020
 472 500 l 25
 472 300 l 25x2010
 435 300 l 25
 435 200 l 25x6020
 398 200 l 25
 398 100 l 25x6040
 322 100 l 25x61
 322 0 l 25
 98 0 l 25x81
 98 100 l 25x41
 22 100 l 25
 22 200 l 25x42
 -15 200 l 25
 -15 300 l 25x44
 -52 300 l 25
 -52 500 l 25x48
 -15 500 l 25
 -15 600 l 1x64
 22 600 l 25
EndSplineSet
EndChar

StartChar: trademark
Encoding: 8482 8482 278
Width: 420
Flags: HW
HStem: 400 300<4 79 191 266 416 491> 500 100<304 379> 600 100<-71 4 79 154 266 304 379 416>
VStem: 4 75<400 600> 191 112<600 700> 191 75<400 600> 304 75<500 600> 379 112<600 700> 416 75<400 600>
LayerCount: 2
Back
Fore
SplineSet
191 400 m 29x94
 191 700 l 25x98
 304 700 l 25x38
 304 600 l 25x58
 379 600 l 25x52
 379 700 l 25x31
 491 700 l 25x91
 491 400 l 25
 416 400 l 25x9080
 416 600 l 25x3080
 379 600 l 25
 379 500 l 25
 304 500 l 25x5280
 304 600 l 25x58
 266 600 l 25x34
 266 400 l 25
 191 400 l 29x94
-71 600 m 25x30
 -71 701 l 25
 154 700 l 25
 154 600 l 1
 79 600 l 25x30
 79 400 l 1
 4 400 l 25x90
 4 600 l 25
 -71 600 l 25x30
EndSplineSet
EndChar

StartChar: uni25FC
Encoding: 9724 9724 279
Width: 420
Flags: HW
HStem: 0 100<172 248> 680 20G<172 248>
VStem: 172 75<0 100 200 700>
LayerCount: 2
Back
Fore
SplineSet
172 700 m 29
 248 700 l 25
 248 200 l 25
 172 200 l 25
 172 700 l 29
248 0 m 25
 172 0 l 1
 172 100 l 25
 248 100 l 1
 248 0 l 25
EndSplineSet
EndChar

StartChar: filledbox
Encoding: 9632 9632 280
Width: 420
Flags: HW
HStem: 0 21G<-15 435>
VStem: -15 450<0 800>
LayerCount: 2
Back
Fore
SplineSet
-15 0 m 29
 -15 800 l 25
 435 800 l 25
 435 0 l 25
 -15 0 l 29
EndSplineSet
EndChar

StartChar: uni26C7
Encoding: 9927 9927 281
Width: 420
Flags: HW
HStem: -100 100<4 79 341 416> 400 100<41 79 341 379> 500 100<4 41 79 116 304 341 379 416>
VStem: 4 112<-100 0> 4 38<500 600> 41 38<400 500> 79 75<500 600> 116 188<100 200 400 500 600 700> 191 38<500 600> 266 75<500 600> 304 112<-100 0> 341 38<400 500> 379 38<500 600>
LayerCount: 2
Back
Fore
SplineSet
229 500 m 29xa0c0
 266 500 l 29
 266 600 l 29
 229 600 l 29
 229 500 l 29xa0c0
154 500 m 25xa280
 191 500 l 25
 191 600 l 25
 154 600 l 25
 154 500 l 25xa280
4 -100 m 25xd020
 4 0 l 25xd020
 79 0 l 25
 79 100 l 1xc2
 116 100 l 1
 116 200 l 1xc1
 79 200 l 1xc2
 79 400 l 25
 116 400 l 25xc5
 116 500 l 25xa5
 79 500 l 25xc5
 79 600 l 25xa2
 116 600 l 25
 116 700 l 25xa1
 154 700 l 25
 154 800 l 25
 266 800 l 25
 266 700 l 25xa240
 304 700 l 25
 304 600 l 25xa1
 341 600 l 25xa040
 341 500 l 25xc040
 304 500 l 25xa1
 304 400 l 25
 341 400 l 25
 341 200 l 1
 304 200 l 1
 304 100 l 1
 341 100 l 1
 341 0 l 25xc110
 416 0 l 25
 416 -100 l 25
 304 -100 l 25
 304 0 l 25
 116 0 l 25
 116 -100 l 25
 4 -100 l 25xd020
41 500 m 25xc8
 79 500 l 25
 79 400 l 25
 41 400 l 25xc4
 41 500 l 25xc8
4 600 m 25xa8
 41 600 l 25xa8
 41 500 l 25xc8
 4 500 l 25
 4 600 l 25xa8
341 400 m 25xc010
 341 500 l 25xc040
 379 500 l 25
 379 400 l 25
 341 400 l 25xc010
379 500 m 25xc010
 379 600 l 25
 416 600 l 25
 416 500 l 25xa008
 379 500 l 25xc010
EndSplineSet
EndChar

StartChar: uni2744
Encoding: 10052 10052 282
Width: 420
Flags: HMW
LayerCount: 2
Back
Fore
SplineSet
248 500 m 29
 285 500 l 25
 285 600 l 25
 248 600 l 25
 248 500 l 29
135 500 m 25
 172 500 l 25
 172 600 l 25
 135 600 l 25
 135 500 l 25
172 400 m 25
 172 300 l 25
 248 300 l 25
 248 400 l 25
 172 400 l 25
-128 -100 m 25
 -128 100 l 1
 -52 100 l 25
 -52 0 l 25
 -15 0 l 25
 -15 100 l 25
 22 100 l 25
 22 200 l 25
 98 200 l 25
 98 300 l 25
 -15 300 l 25
 -15 200 l 25
 -90 200 l 25
 -90 300 l 25
 -128 300 l 25
 -128 400 l 25
 -90 400 l 25
 -90 500 l 25
 -15 500 l 25
 -15 400 l 25
 98 400 l 25
 98 500 l 25
 22 500 l 25
 22 600 l 25
 -15 600 l 25
 -15 700 l 25
 -52 700 l 25
 -52 600 l 25
 -128 600 l 25
 -128 800 l 25
 -15 800 l 25
 -15 700 l 25
 60 700 l 25
 60 600 l 25
 135 600 l 25
 135 700 l 25
 172 700 l 25
 172 800 l 25
 248 800 l 25
 248 700 l 25
 285 700 l 25
 285 600 l 25
 360 600 l 25
 360 700 l 25
 435 700 l 25
 435 800 l 25
 548 800 l 25
 548 600 l 25
 472 600 l 25
 472 700 l 25
 435 700 l 25
 435 600 l 25
 398 600 l 25
 398 500 l 25
 322 500 l 25
 322 400 l 25
 435 400 l 25
 435 500 l 25
 510 500 l 25
 510 400 l 25
 548 400 l 25
 548 300 l 25
 510 300 l 25
 510 200 l 25
 435 200 l 25
 435 300 l 25
 322 300 l 25
 322 200 l 25
 398 200 l 25
 398 100 l 25
 435 100 l 25
 435 0 l 25
 472 0 l 25
 472 100 l 25
 548 100 l 25
 548 -100 l 25
 435 -100 l 25
 435 0 l 25
 360 0 l 25
 360 100 l 25
 285 100 l 25
 285 200 l 25
 248 200 l 25
 248 100 l 25
 285 100 l 25
 285 0 l 25
 248 0 l 25
 248 -100 l 25
 172 -100 l 25
 172 0 l 25
 135 0 l 25
 135 100 l 25
 172 100 l 25
 172 200 l 25
 135 200 l 25
 135 100 l 25
 60 100 l 25
 60 0 l 25
 -15 0 l 25
 -15 -100 l 1
 -128 -100 l 25
EndSplineSet
EndChar

StartChar: uni26A0
Encoding: 9888 9888 283
Width: 420
Flags: HW
HStem: -100 100<-52 472> 100 100<172 248> 300 200<22 60 172 248 360 398> 700 100<172 248>
VStem: -128 75<0 100> -90 75<100 200> -52 75<200 300> -15 75<300 400> 22 75<400 500> 60 75<500 600> 98 75<600 700> 172 75<100 200 300 500> 248 75<600 700> 285 75<500 600> 322 75<400 500> 360 75<300 400> 398 75<200 300> 435 75<100 200> 472 75<0 100>
LayerCount: 2
Back
Fore
SplineSet
172 100 m 29xf010
 172 200 l 25
 248 200 l 25
 248 100 l 25
 172 100 l 29xf010
172 300 m 25
 172 500 l 25
 248 500 l 25
 248 300 l 25
 172 300 l 25
172 600 m 25xf028
 135 600 l 25
 135 500 l 25xf040
 98 500 l 25
 98 400 l 25xf080
 60 400 l 25
 60 300 l 25xf1
 22 300 l 25
 22 200 l 25xf2
 -15 200 l 25
 -15 100 l 25xf4
 -52 100 l 25
 -52 0 l 25
 472 0 l 25
 472 100 l 25xf80020
 435 100 l 25
 435 200 l 25xf00040
 398 200 l 25
 398 300 l 25xf00080
 360 300 l 25
 360 400 l 25xf001
 322 400 l 25
 322 500 l 25xf002
 285 500 l 25
 285 600 l 25xf004
 248 600 l 25
 248 700 l 25
 172 700 l 25
 172 600 l 25xf028
-128 -100 m 25xf80020
 -128 100 l 1xf80020
 -90 100 l 25
 -90 200 l 25xf4
 -52 200 l 25
 -52 300 l 25xf2
 -15 300 l 25
 -15 400 l 25xf1
 22 400 l 25
 22 500 l 25xf080
 60 500 l 25
 60 600 l 25xf040
 98 600 l 25
 98 700 l 25xf020
 135 700 l 25
 135 800 l 25
 285 800 l 25
 285 700 l 25xf044
 322 700 l 25
 322 600 l 25xf008
 360 600 l 25
 360 500 l 25xf004
 398 500 l 25
 398 400 l 25xf002
 435 400 l 25
 435 300 l 25xf001
 472 300 l 25
 472 200 l 25xf00080
 510 200 l 25
 510 100 l 25xf00040
 548 100 l 25
 548 -100 l 1
 -128 -100 l 25xf80020
EndSplineSet
EndChar

StartChar: u1F642
Encoding: 128578 128578 284
Width: 420
Flags: HW
HStem: -100 100<22 398> 100 100<98 322> 200 100<22 60 360 398> 500 100<60 135 285 360> 700 100<22 398>
VStem: -90 75<100 600> -52 75<0 100 600 700> 22 75<200 300> 60 75<500 600> 285 75<500 600> 322 75<200 300> 398 75<0 100 600 700> 435 75<100 600>
LayerCount: 2
Back
Fore
SplineSet
285 500 m 25x9840
 285 600 l 25
 360 600 l 25
 360 500 l 25
 285 500 l 25x9840
60 500 m 25x9880
 60 600 l 25
 135 600 l 25
 135 500 l 25
 60 500 l 25x9880
22 200 m 25xb9
 22 300 l 1
 98 300 l 25xb9
 98 200 l 25
 322 200 l 25xd920
 322 300 l 25
 398 300 l 25
 398 200 l 25xb920
 360 200 l 25xb840
 360 100 l 25
 60 100 l 25xd8c0
 60 200 l 1xb8c0
 22 200 l 25xb9
22 0 m 25xda
 398 0 l 25
 398 100 l 25xda10
 435 100 l 25
 435 600 l 25xd808
 398 600 l 25
 398 700 l 25
 22 700 l 25
 22 600 l 25xda10
 -15 600 l 25
 -15 100 l 25xdc
 22 100 l 25
 22 0 l 25xda
-90 100 m 25xdc
 -90 600 l 25xdc
 -52 600 l 25
 -52 700 l 25xda
 -15 700 l 25
 -15 800 l 25
 435 800 l 25
 435 700 l 25xdc08
 472 700 l 25
 472 600 l 25xd810
 510 600 l 25
 510 100 l 25xd808
 472 100 l 25
 472 0 l 25xd810
 435 0 l 25
 435 -100 l 25
 -15 -100 l 25
 -15 0 l 25xdc08
 -52 0 l 25
 -52 100 l 25xda
 -90 100 l 25xdc
EndSplineSet
EndChar

StartChar: u1F643
Encoding: 128579 128579 285
Width: 420
Flags: HW
HStem: -100 100<22 398> 100 100<60 135 285 360> 400 100<22 60 360 398> 500 100<98 322> 700 100<22 398>
VStem: -90 75<100 600> -52 75<0 100 600 700> 22 75<400 500> 60 75<100 200> 285 75<100 200> 322 75<400 500> 398 75<0 100 600 700> 435 75<100 600>
LayerCount: 2
Back
Fore
SplineSet
22 400 m 29xe920
 22 500 l 25xe920
 60 500 l 25xe880
 60 600 l 25
 360 600 l 25xd8c0
 360 500 l 25xe8c0
 398 500 l 25
 398 400 l 25
 322 400 l 25xe820
 322 500 l 25
 98 500 l 25xd920
 98 400 l 25
 22 400 l 29xe920
285 100 m 25xc840
 285 200 l 25
 360 200 l 25
 360 100 l 25
 285 100 l 25xc840
60 100 m 25xc880
 60 200 l 25
 135 200 l 25
 135 100 l 25
 60 100 l 25xc880
22 0 m 25xda
 398 0 l 25
 398 100 l 25xda10
 435 100 l 25
 435 600 l 25xd808
 398 600 l 25
 398 700 l 25
 22 700 l 25
 22 600 l 25xda10
 -15 600 l 25
 -15 100 l 25xdc
 22 100 l 25
 22 0 l 25xda
-90 100 m 25xdc
 -90 600 l 25xdc
 -52 600 l 25
 -52 700 l 25xda
 -15 700 l 25
 -15 800 l 25
 435 800 l 25
 435 700 l 25xdc08
 472 700 l 25
 472 600 l 25xd810
 510 600 l 25
 510 100 l 25xd808
 472 100 l 25
 472 0 l 25xd810
 435 0 l 25
 435 -100 l 25
 -15 -100 l 25
 -15 0 l 25xdc08
 -52 0 l 25
 -52 100 l 25xda
 -90 100 l 25xdc
EndSplineSet
EndChar

StartChar: u1F604
Encoding: 128516 128516 286
Width: 420
Flags: HW
HStem: -100 100<22 398> 100 200<60 360> 200 100<22 60 360 398> 400 100<22 60 135 172 248 285 360 398> 500 100<60 135 285 360> 700 100<22 398>
VStem: -90 75<100 600> -52 75<0 100 600 700> 22 38<400 500> 60 75<500 600> 135 38<400 500> 248 38<400 500> 285 75<500 600> 360 38<400 500> 398 75<0 100 600 700> 435 75<100 600>
LayerCount: 2
Back
Fore
SplineSet
60 100 m 29xc444
 60 200 l 29xa444
 22 200 l 29
 22 300 l 29
 398 300 l 29
 398 200 l 29xa482
 360 200 l 29xa404
 360 100 l 29
 60 100 l 29xc444
248 400 m 25x9410
 248 500 l 25
 285 500 l 25x9410
 285 600 l 25
 360 600 l 25x8c08
 360 500 l 25x9408
 398 500 l 25
 398 400 l 25
 360 400 l 25x9404
 360 500 l 25x9408
 285 500 l 25
 285 400 l 25
 248 400 l 25x9410
22 400 m 25x9480
 22 500 l 25
 60 500 l 25x9480
 60 600 l 25
 135 600 l 25x8c40
 135 500 l 25x9440
 172 500 l 25
 172 400 l 25
 135 400 l 25x9420
 135 500 l 25x9440
 60 500 l 25
 60 400 l 25
 22 400 l 25x9480
22 0 m 25xcd
 398 0 l 25
 398 100 l 25xcd02
 435 100 l 29
 435 600 l 25xcc01
 398 600 l 25
 398 700 l 25
 22 700 l 25
 22 600 l 25xcd02
 -15 600 l 25
 -15 100 l 25xce
 22 100 l 25
 22 0 l 25xcd
-90 100 m 25xce
 -90 600 l 25xce
 -52 600 l 25
 -52 700 l 25xcd
 -15 700 l 25
 -15 800 l 25
 435 800 l 25
 435 700 l 25xce01
 472 700 l 25
 472 600 l 25xcc02
 510 600 l 25
 510 100 l 25xcc01
 472 100 l 25
 472 0 l 25xcc02
 435 0 l 25
 435 -100 l 25
 -15 -100 l 25
 -15 0 l 25xce01
 -52 0 l 25
 -52 100 l 25xcd
 -90 100 l 25xce
EndSplineSet
EndChar

StartChar: u1F606
Encoding: 128518 128518 287
Width: 420
Flags: HW
HStem: -100 100<22 398> 100 200<60 360> 200 100<22 60 360 398> 400 100<98 210 360 398> 500 100<22 60 210 322> 700 100<22 398>
VStem: -90 75<100 600> -52 75<0 100 600 700> 22 75<500 600> 322 75<400 500> 398 75<0 100 600 700> 435 75<100 600>
LayerCount: 2
Back
Fore
SplineSet
22 600 m 29x8d
 98 600 l 25x8c80
 98 500 l 25
 210 500 l 25x9480
 210 600 l 25
 360 600 l 25x8c80
 360 500 l 25
 398 500 l 25
 398 400 l 25
 322 400 l 25x94c0
 322 500 l 25x8cc0
 210 500 l 25
 210 400 l 25
 60 400 l 25x94c0
 60 500 l 25
 22 500 l 25x8cc0
 22 600 l 29x8d
60 100 m 25xc4a0
 60 200 l 25
 22 200 l 25
 22 300 l 25
 398 300 l 25
 398 200 l 25
 360 200 l 25xa4a0
 360 100 l 25
 60 100 l 25xc4a0
435 100 m 1049xc410
22 0 m 25xcd
 398 0 l 25
 398 100 l 25xcd20
 435 100 l 25
 435 600 l 25xcc10
 398 600 l 25
 398 700 l 25
 22 700 l 25
 22 600 l 25xcd20
 -15 600 l 25
 -15 100 l 25xce
 22 100 l 25
 22 0 l 25xcd
-90 100 m 25xce
 -90 600 l 25xce
 -52 600 l 25
 -52 700 l 25xcd
 -15 700 l 25
 -15 800 l 25
 435 800 l 25
 435 700 l 25xce10
 472 700 l 25
 472 600 l 25xcc20
 510 600 l 25
 510 100 l 25xcc10
 472 100 l 25
 472 0 l 25xcc20
 435 0 l 25
 435 -100 l 25
 -15 -100 l 25
 -15 0 l 25xce10
 -52 0 l 25
 -52 100 l 25xcd
 -90 100 l 25xce
EndSplineSet
EndChar

StartChar: u1F60E
Encoding: 128526 128526 288
Width: 420
Flags: HW
HStem: -100 100<22 398> 100 100<98 322> 200 100<22 60 360 398> 400 100<22 60 360 398> 500 100<172 248> 700 100<22 398>
VStem: -90 75<100 500> -52 75<0 100 600 700> 22 75<200 300> 322 75<200 300> 398 75<0 100 600 700> 435 75<100 500>
LayerCount: 2
Back
Fore
SplineSet
22 200 m 29xa4c0
 22 300 l 5
 98 300 l 29xa4c0
 98 200 l 29
 322 200 l 29xc4c0
 322 300 l 29
 398 300 l 29
 398 200 l 29
 360 200 l 29xa4c0
 360 100 l 29
 60 100 l 29xc4c0
 60 200 l 5
 22 200 l 29xa4c0
22 400 m 1x94a0
 22 500 l 25
 60 500 l 25x94a0
 60 600 l 25
 360 600 l 25x8ca0
 360 500 l 25
 398 500 l 25
 398 400 l 25
 248 400 l 25x94a0
 248 500 l 25
 172 500 l 1x8ca0
 172 400 l 25
 22 400 l 1x94a0
22 0 m 25xcd
 398 0 l 25
 398 100 l 25xcd20
 435 100 l 1
 435 500 l 1xcc10
 398 500 l 1
 398 700 l 1
 22 700 l 1x9520
 22 500 l 1x9480
 -15 500 l 1
 -15 100 l 1xce80
 22 100 l 25
 22 0 l 25xcd
-90 100 m 25xce
 -90 600 l 25xce
 -52 600 l 25
 -52 700 l 25xcd
 -15 700 l 25
 -15 800 l 25
 435 800 l 25
 435 700 l 25xce10
 472 700 l 25
 472 600 l 25xcc20
 510 600 l 25
 510 100 l 25xcc10
 472 100 l 25
 472 0 l 25xcc20
 435 0 l 25
 435 -100 l 25
 -15 -100 l 25
 -15 0 l 25xce10
 -52 0 l 25
 -52 100 l 25xcd
 -90 100 l 25xce
EndSplineSet
EndChar

StartChar: u1F621
Encoding: 128545 128545 289
Width: 420
Flags: HW
HStem: -100 100<22 398> 100 100<60 98 322 360> 200 100<135 285> 400 100<135 172 248 285> 500 100<22 98 322 398> 700 100<22 398>
VStem: -90 75<100 600> -52 75<0 100 600 700> 22 112<500 600> 60 75<100 200> 98 75<400 500> 248 75<400 500> 285 112<500 600> 285 75<101 200> 398 75<0 100 600 700> 435 75<100 600>
LayerCount: 2
Back
Fore
SplineSet
60 100 m 25xc444
 60 200 l 25xc444
 98 200 l 25xc420
 98 300 l 25
 322 300 l 25xa430
 322 200 l 25xc430
 360 200 l 25
 360 101 l 25
 285 100 l 25xc404
 285 200 l 25
 135 200 l 25xa444
 135 100 l 25
 60 100 l 25xc444
248 400 m 5x9410
 248 500 l 29x9410
 285 500 l 29x9408
 285 600 l 5
 398 600 l 1
 398 500 l 5x8c08
 322 500 l 5x8c10
 322 400 l 29
 248 400 l 5x9410
98 400 m 29x9420
 98 500 l 5x8c20
 22 500 l 5x8c80
 22 600 l 1x8d
 135 600 l 5x8c80
 135 500 l 29x9480
 172 500 l 29
 172 400 l 29
 98 400 l 29x9420
22 0 m 25xcd
 398 0 l 25
 398 100 l 25xcd02
 435 100 l 25
 435 600 l 25
 398 600 l 29xcc09
 398 700 l 25
 22 700 l 25
 22 600 l 29xcd02
 -15 600 l 25
 -15 100 l 25xce
 22 100 l 25
 22 0 l 25xcd
-90 100 m 25xce
 -90 600 l 25xce
 -52 600 l 25
 -52 700 l 25xcd
 -15 700 l 25
 -15 800 l 25
 435 800 l 25
 435 700 l 25xce01
 472 700 l 25
 472 600 l 25xcc02
 510 600 l 25
 510 100 l 25xcc01
 472 100 l 25
 472 0 l 25xcc02
 435 0 l 25
 435 -100 l 25
 -15 -100 l 25
 -15 0 l 25xce01
 -52 0 l 25
 -52 100 l 25xcd
 -90 100 l 25xce
EndSplineSet
EndChar

StartChar: u1F620
Encoding: 128544 128544 290
Width: 420
Flags: HW
HStem: -100 100<22 398> 100 100<60 98 322 360> 200 100<135 285> 400 100<135 172 248 285> 500 100<60 98 322 360> 700 100<22 398>
VStem: -90 75<100 600> -52 75<0 100 600 700> 60 75<100 200 500 600> 98 75<400 500> 248 75<400 500> 285 75<101 200 500 600> 398 75<0 100 600 700> 435 75<100 600>
LayerCount: 2
Back
Fore
SplineSet
248 400 m 1x9420
 248 500 l 25x9420
 285 500 l 25x9410
 285 600 l 25
 360 600 l 25
 360 500 l 25x8c10
 322 500 l 1x8c20
 322 400 l 25
 248 400 l 1x9420
98 400 m 25x9440
 98 500 l 25x8c40
 60 500 l 25
 60 600 l 25
 135 600 l 25x8c80
 135 500 l 25x9480
 172 500 l 25
 172 400 l 25
 98 400 l 25x9440
60 100 m 29xc490
 60 200 l 29xc490
 98 200 l 29xc440
 98 300 l 29
 322 300 l 29xa460
 322 200 l 29xc460
 360 200 l 29
 360 101 l 29
 285 100 l 29xc410
 285 200 l 29
 135 200 l 29xa490
 135 100 l 29
 60 100 l 29xc490
22 0 m 25xcd
 398 0 l 25
 398 100 l 25xcd08
 435 100 l 25
 435 600 l 25xcc04
 398 600 l 25
 398 700 l 25
 22 700 l 25
 22 600 l 25xcd08
 -15 600 l 25
 -15 100 l 25xce
 22 100 l 25
 22 0 l 25xcd
-90 100 m 25xce
 -90 600 l 25xce
 -52 600 l 25
 -52 700 l 25xcd
 -15 700 l 25
 -15 800 l 25
 435 800 l 25
 435 700 l 25xce04
 472 700 l 25
 472 600 l 25xcc08
 510 600 l 25
 510 100 l 25xcc04
 472 100 l 25
 472 0 l 25xcc08
 435 0 l 25
 435 -100 l 25
 -15 -100 l 25
 -15 0 l 25xce04
 -52 0 l 25
 -52 100 l 25xcd
 -90 100 l 25xce
EndSplineSet
EndChar

StartChar: u1F62D
Encoding: 128557 128557 291
Width: 420
Flags: HW
HStem: -100 100<22 398> 100 200<98 322> 300 100<22 60 360 398> 480 20G<60 98 322 360> 500 100<98 172 248 322> 700 100<22 398>
VStem: -90 75<100 600> -52 75<0 100 600 700> 22 75<300 400> 60 38<400 500> 98 75<500 600> 248 75<500 600> 322 75<300 400> 322 38<400 500> 398 75<0 100 600 700> 435 75<100 600>
LayerCount: 2
Back
Fore
SplineSet
98 100 m 29xc424
 98 300 l 25
 322 300 l 25xc488
 322 100 l 25
 98 100 l 29xc424
322 300 m 25
 322 500 l 25xd410
 360 500 l 25
 360 400 l 25xb404
 398 400 l 25
 398 300 l 25xb408
 322 300 l 25
22 300 m 25xa480
 22 400 l 25xa480
 60 400 l 25
 60 500 l 25
 98 500 l 25xb440
 98 300 l 25xd480
 22 300 l 25xa480
248 500 m 25x8c10
 248 600 l 25
 322 600 l 25x8c10
 322 500 l 25x9410
 248 500 l 25x8c10
98 500 m 25x9440
 98 600 l 25
 172 600 l 25
 172 500 l 25x8c20
 98 500 l 25x9440
22 0 m 25xcd
 398 0 l 25
 398 100 l 25xcd02
 435 100 l 25
 435 600 l 25xcc01
 398 600 l 25
 398 700 l 25
 22 700 l 25
 22 600 l 25xcd02
 -15 600 l 25
 -15 100 l 25xce
 22 100 l 25
 22 0 l 25xcd
-90 100 m 25xce
 -90 600 l 25xce
 -52 600 l 25
 -52 700 l 25xcd
 -15 700 l 25
 -15 800 l 25
 435 800 l 25
 435 700 l 25xce01
 472 700 l 25
 472 600 l 25xcc02
 510 600 l 25
 510 100 l 25xcc01
 472 100 l 25
 472 0 l 25xcc02
 435 0 l 25
 435 -100 l 25
 -15 -100 l 25
 -15 0 l 25xce01
 -52 0 l 25
 -52 100 l 25xcd
 -90 100 l 25xce
EndSplineSet
EndChar

StartChar: u1F50C
Encoding: 128268 128268 292
Width: 420
Flags: HW
VStem: 79 75<600 800> 154 112<150 300> 266 75<600 800>
LayerCount: 2
Back
Fore
SplineSet
41 400 m 29x40
 41 600 l 25
 79 600 l 25
 79 800 l 25
 154 800 l 25
 154 600 l 25
 266 600 l 25
 266 800 l 25
 341 800 l 25
 341 600 l 25xa0
 379 600 l 25
 379 400 l 25
 304 400 l 25
 304 300 l 25
 266 300 l 25
 266 150 l 25
 229 150 l 25
 229 -100 l 25
 191 -100 l 25
 191 150 l 25
 154 150 l 25
 154 300 l 25
 116 300 l 25
 116 400 l 25
 41 400 l 29x40
EndSplineSet
EndChar

StartChar: u1F4FA
Encoding: 128250 128250 293
Width: 420
Flags: HW
HStem: -100 200<22 398> 500 100<22 135 285 398> 700 100<60 135 285 360>
VStem: -52 75<100 500> 60 75<700 800> 285 75<700 800> 398 75<100 500>
LayerCount: 2
Back
Fore
SplineSet
22 100 m 29
 398 100 l 25
 398 500 l 25
 22 500 l 25
 22 100 l 29
-52 -100 m 25
 -52 600 l 25
 135 600 l 25
 135 700 l 25
 60 700 l 25
 60 800 l 25
 135 800 l 25
 135 700 l 25
 285 700 l 25
 285 800 l 25
 360 800 l 25
 360 700 l 25
 285 700 l 25
 285 600 l 25
 472 600 l 25
 472 -100 l 25
 -52 -100 l 25
EndSplineSet
EndChar

StartChar: u1F4FB
Encoding: 128251 128251 294
Width: 420
Flags: HW
HStem: -100 100<22 398> 150 100<248 285> 200 100<360 398> 300 100<22 322> 700 100<435 472>
VStem: -52 75<0 300> 60 75<50 250> 248 38<150 250> 398 75<0 200 300 500 700 800> 398 38<500 700>
LayerCount: 2
Back
Fore
SplineSet
248 150 m 29xcf
 248 250 l 25
 285 250 l 25
 285 150 l 25
 248 150 l 29xcf
60 50 m 25
 60 250 l 25
 135 250 l 25
 135 50 l 25
 60 50 l 25
22 0 m 25
 398 0 l 25
 398 200 l 25
 322 200 l 25xaf80
 322 300 l 25
 22 300 l 25x9f80
 22 0 l 25
-52 -100 m 25
 -52 300 l 25
 -15 300 l 25
 -15 400 l 25
 360 400 l 25x9f80
 360 300 l 25
 398 300 l 25
 398 800 l 25
 472 800 l 25
 472 700 l 25xaf80
 435 700 l 25
 435 500 l 25xaf40
 472 500 l 25
 472 -100 l 25
 -52 -100 l 25
EndSplineSet
EndChar

StartChar: u1F4FC
Encoding: 128252 128252 295
Width: 420
Flags: HW
HStem: 0 100<-15 435> 150 100<98 172 248 322> 250 100<22 60 360 398> 350 100<98 172 248 322> 500 100<-15 435>
VStem: -90 75<100 500> 22 75<250 350> 172 75<250 350> 322 75<250 350> 435 75<100 500>
LayerCount: 2
Back
Fore
SplineSet
98 250 m 29xdfc0
 172 250 l 25
 172 350 l 25
 98 350 l 25
 98 250 l 29xdfc0
248 250 m 25
 322 250 l 25
 322 350 l 25
 248 350 l 25
 248 250 l 25
60 150 m 25
 60 250 l 25
 22 250 l 25
 22 350 l 25
 60 350 l 25xafc0
 60 450 l 25
 360 450 l 25x9fc0
 360 350 l 25
 398 350 l 25
 398 250 l 25
 360 250 l 25xafc0
 360 150 l 25
 60 150 l 25
-15 100 m 25
 435 100 l 25
 435 500 l 25
 -15 500 l 25
 -15 100 l 25
-90 0 m 25
 -90 600 l 25
 510 600 l 25
 510 0 l 25
 -90 0 l 25
EndSplineSet
EndChar

StartChar: u1F508
Encoding: 128264 128264 296
Width: 420
Flags: HW
HStem: -100 100<322 360> 0 100<248 285> 100 100<172 210> 200 100<60 98> 400 100<60 98> 500 100<172 210> 600 100<248 285> 700 100<322 360>
VStem: -15 188<200 300 400 500> -15 75<300 400> 135 112<100 200 500 600> 210 112<0 100 600 700> 285 150<-100 0 700 800> 360 75<0 700>
LayerCount: 2
Back
Fore
SplineSet
172 200 m 29x2480
 248 200 l 29
 248 100 l 29x5020
 322 100 l 29
 322 0 l 29
 360 0 l 29
 360 700 l 29
 322 700 l 29xa114
 322 600 l 29x0214
 248 600 l 29x0220
 248 500 l 29x0420
 172 500 l 29
 172 200 l 29x2480
60 300 m 29x1840
 98 300 l 29
 98 400 l 29
 60 400 l 29
 60 300 l 29x1840
-15 200 m 29x1080
 -15 500 l 29x1480
 135 500 l 29x1420
 135 600 l 29x0220
 210 600 l 29
 210 700 l 29x0510
 285 700 l 29x0208
 285 800 l 29
 435 800 l 29
 435 -100 l 29
 285 -100 l 29x8108
 285 0 l 29x4008
 210 0 l 29x4010
 210 100 l 29x2010
 135 100 l 29x2020
 135 200 l 29x1020
 -15 200 l 29x1080
EndSplineSet
EndChar

StartChar: u1F507
Encoding: 128263 128263 297
Width: 420
Flags: HW
HStem: -100 100<322 360> 0 100<210 285> 200 100<60 98 135 172 285 322> 400 100<60 98 135 172 285 322> 600 100<210 285> 700 100<322 360>
VStem: -15 112<200 300 400 500> -15 75<300 400> 135 75<200 300 400 500> 210 112<0 100 600 700> 248 75<200 300 400 500> 285 150<-100 0 700 800> 360 75<0 700>
LayerCount: 2
Back
Fore
SplineSet
210 600 m 29x3848
 210 700 l 25x3848
 285 700 l 25x3810
 285 800 l 25
 435 800 l 25
 435 -100 l 25
 285 -100 l 25xb410
 285 0 l 25x7010
 210 0 l 25
 210 100 l 25
 322 100 l 25x7040
 322 0 l 25
 360 0 l 25
 360 700 l 25
 322 700 l 25xb448
 322 600 l 25
 210 600 l 29x3848
135 200 m 25x30a0
 135 300 l 25
 172 300 l 25
 172 400 l 25
 135 400 l 25
 135 500 l 25
 210 500 l 25
 210 400 l 25
 248 400 l 25
 248 500 l 25
 322 500 l 25
 322 400 l 25x30a0
 285 400 l 25
 285 300 l 25x3010
 322 300 l 25
 322 200 l 25
 248 200 l 25
 248 300 l 25
 210 300 l 25
 210 200 l 25
 135 200 l 25x30a0
-15 200 m 25x32
 -15 500 l 25
 98 500 l 25
 98 400 l 25x32
 60 400 l 25
 60 300 l 25x31
 98 300 l 25
 98 200 l 25
 -15 200 l 25x32
EndSplineSet
EndChar

StartChar: u1F509
Encoding: 128265 128265 298
Width: 420
Flags: HW
HStem: -100 100<248 285> 0 100<172 210> 100 100<98 135> 150 100<398 435> 200 100<-15 22> 400 100<-15 22> 450 100<398 435> 500 100<98 135> 600 100<172 210> 700 100<248 285>
VStem: -90 188<200 300 400 500> -90 75<300 400> 60 112<100 200 500 600> 135 112<0 100 600 700> 210 150<-100 0 700 800> 285 75<0 700> 398 75<150 250 450 550> 435 75<250 450>
LayerCount: 2
Back
Fore
SplineSet
398 550 m 29x120080
 472 550 l 29
 472 450 l 29x120080
 510 450 l 29
 510 250 l 29x120040
 472 250 l 29
 472 150 l 29
 398 150 l 29
 398 250 l 29x120080
 435 250 l 29
 435 450 l 29x120040
 398 450 l 29
 398 550 l 29x120080
98 200 m 25x2120
 172 200 l 25
 172 100 l 25x4808
 248 100 l 25
 248 0 l 25
 285 0 l 25
 285 700 l 25
 248 700 l 25xa045
 248 600 l 25x0085
 172 600 l 25x0088
 172 500 l 25x0108
 98 500 l 25
 98 200 l 25x2120
-15 300 m 25x0c10
 22 300 l 25
 22 400 l 25
 -15 400 l 25
 -15 300 l 25x0c10
-90 200 m 25x0820
 -90 500 l 25x0920
 60 500 l 25x0908
 60 600 l 25x0088
 135 600 l 25
 135 700 l 25x0144
 210 700 l 25x0082
 210 800 l 25
 360 800 l 25
 360 -100 l 25
 210 -100 l 25x8042
 210 0 l 25x4002
 135 0 l 25x4004
 135 100 l 25x2004
 60 100 l 25x2008
 60 200 l 25x0808
 -90 200 l 25x0820
EndSplineSet
EndChar

StartChar: u1F50A
Encoding: 128266 128266 299
Width: 420
Flags: HW
HStem: -100 100<172 210> 0 100<98 135> 50 100<435 472> 100 100<22 60> 150 100<322 360> 200 100<-90 -52> 400 100<-90 -52> 450 100<322 360> 500 100<22 60> 550 100<435 472> 600 100<98 135> 700 100<172 210>
VStem: -165 188<200 300 400 500> -165 75<300 400> -15 112<100 200 500 600> 60 112<0 100 600 700> 135 150<-100 0 700 800> 210 75<0 700> 322 75<150 250 450 550> 360 75<250 450> 435 75<50 150 550 650> 472 75<150 250 450 550> 510 75<250 450>
LayerCount: 2
Back
Fore
SplineSet
435 550 m 29x004008
 435 650 l 25
 510 650 l 25
 510 550 l 25x004008
 548 550 l 25x004004
 548 450 l 25x010004
 585 450 l 25
 585 250 l 25x090002
 548 250 l 25
 548 150 l 25x090004
 510 150 l 25x090008
 510 50 l 25
 435 50 l 25
 435 150 l 25x200008
 472 150 l 25x200004
 472 250 l 25x080004
 510 250 l 25
 510 450 l 25x090002
 472 450 l 25x090004
 472 550 l 25x004004
 435 550 l 29x004008
322 550 m 25x090020
 398 550 l 25x004020
 398 450 l 25x010020
 435 450 l 25
 435 250 l 25x090010
 398 250 l 25
 398 150 l 25
 322 150 l 25
 322 250 l 25x090020
 360 250 l 25
 360 450 l 25x090010
 322 450 l 25
 322 550 l 25x090020
22 200 m 25x1088
 98 200 l 25
 98 100 l 25x4402
 172 100 l 25
 172 0 l 25
 210 0 l 25
 210 700 l 25
 172 700 l 25x901140
 172 600 l 25x002140
 98 600 l 25x0022
 98 500 l 25x0082
 22 500 l 25
 22 200 l 25x1088
-90 300 m 25x0604
 -52 300 l 25
 -52 400 l 25
 -90 400 l 25
 -90 300 l 25x0604
-165 200 m 25x0408
 -165 500 l 25x0488
 -15 500 l 25x0482
 -15 600 l 25x0022
 60 600 l 25
 60 700 l 25x0091
 135 700 l 25x002080
 135 800 l 25
 285 800 l 25
 285 -100 l 25
 135 -100 l 25x801080
 135 0 l 25x400080
 60 0 l 25x4001
 60 100 l 25x1001
 -15 100 l 25x1002
 -15 200 l 25x0402
 -165 200 l 25x0408
EndSplineSet
EndChar

StartChar: u1F50B
Encoding: 128267 128267 300
Width: 420
Flags: HW
HStem: -100 100<98 322> 100 300<98 172 248 322>
VStem: 22 150<300 400 500 600> 22 75<0 100 400 500> 248 150<300 400 500 600> 322 75<0 100 400 500>
LayerCount: 2
Back
Fore
SplineSet
172 300 m 25xe0
 248 300 l 25
 248 400 l 25xe8
 322 400 l 25
 322 500 l 25xc4
 248 500 l 25
 248 600 l 25
 172 600 l 25
 172 500 l 25xe8
 98 500 l 25
 98 400 l 25xd0
 172 400 l 25
 172 300 l 25xe0
98 0 m 1xd4
 322 0 l 25
 322 100 l 1
 98 100 l 29
 98 0 l 1xd4
22 -100 m 25
 22 700 l 25
 135 700 l 25
 135 800 l 25
 285 800 l 25
 285 700 l 25
 398 700 l 25
 398 -100 l 25
 22 -100 l 25
EndSplineSet
EndChar

StartChar: u1F50D
Encoding: 128269 128269 301
Width: 420
Flags: HW
HStem: 200 100<116 266> 700 100<116 266>
VStem: 4 75<400 600> 41 75<300 400 600 700> 266 75<300 400 600 700> 304 75<400 600> 341 75<-100 0>
LayerCount: 2
Back
Fore
SplineSet
116 300 m 29xd0
 266 300 l 25
 266 400 l 25xd8
 304 400 l 25
 304 600 l 25xc4
 266 600 l 25
 266 700 l 25
 116 700 l 25
 116 600 l 25xd8
 79 600 l 25
 79 400 l 25xe0
 116 400 l 25
 116 300 l 29xd0
4 400 m 25xe0
 4 600 l 25xe0
 41 600 l 25
 41 700 l 25xd0
 79 700 l 25
 79 800 l 25
 304 800 l 25
 304 700 l 25xe4
 341 700 l 25
 341 600 l 25xc8
 379 600 l 25
 379 400 l 25xc4
 341 400 l 25xc8
 341 200 l 25xc2
 379 200 l 25
 379 100 l 25xc4
 416 100 l 25
 416 -100 l 25
 341 -100 l 25
 341 0 l 25xc2
 304 0 l 25
 304 100 l 25xc4
 266 100 l 25
 266 200 l 25
 79 200 l 25
 79 300 l 25xe8
 41 300 l 25
 41 400 l 25xd0
 4 400 l 25xe0
EndSplineSet
EndChar

StartChar: u1F50E
Encoding: 128270 128270 302
Width: 420
Flags: HW
HStem: 200 100<172 285> 700 100<135 285>
VStem: 22 75<-100 0 400 600> 60 112<100 200> 60 75<300 400 600 700> 98 225<200 300 700 800> 285 75<300 400 600 700> 322 75<400 600>
LayerCount: 2
Back
Fore
SplineSet
135 300 m 29xc8
 285 300 l 25
 285 400 l 25xca
 322 400 l 25
 322 600 l 25xc1
 285 600 l 25
 285 700 l 25
 135 700 l 25
 135 600 l 25xca
 98 600 l 25
 98 400 l 25xe0
 135 400 l 25
 135 300 l 29xc8
22 400 m 25xe0
 22 600 l 25xe0
 60 600 l 25
 60 700 l 25xc8
 98 700 l 25
 98 800 l 25
 322 800 l 25
 322 700 l 25xc4
 360 700 l 25
 360 600 l 25xc2
 398 600 l 25
 398 400 l 25xc1
 360 400 l 25
 360 300 l 25xc2
 322 300 l 25
 322 200 l 25xc4
 172 200 l 25
 172 100 l 25xd0
 135 100 l 25
 135 0 l 25xc8
 98 0 l 25
 98 -100 l 25
 22 -100 l 25
 22 100 l 25xe0
 60 100 l 25
 60 200 l 25xd0
 98 200 l 25
 98 300 l 25xc4
 60 300 l 25
 60 400 l 25xc8
 22 400 l 25xe0
EndSplineSet
EndChar

StartChar: u1F512
Encoding: 128274 128274 303
Width: 420
Flags: HW
HStem: 0 100<172 248> 400 100<135 285> 700 100<135 285>
VStem: 22 150<100 300> 22 75<500 600> 60 75<600 700> 248 150<100 300> 285 75<600 700> 322 75<500 600>
LayerCount: 2
Back
Fore
SplineSet
322 500 m 25xe880
 322 600 l 25xe880
 285 600 l 25
 285 700 l 25
 135 700 l 25
 135 600 l 25xe5
 98 600 l 25
 98 500 l 25
 322 500 l 25xe880
172 100 m 29xf0
 248 100 l 29
 248 300 l 29xf2
 285 300 l 29
 285 400 l 29
 135 400 l 29
 135 300 l 29xe5
 172 300 l 29
 172 100 l 29xf0
22 0 m 25xe880
 22 600 l 25xe880
 60 600 l 25
 60 700 l 25xe4
 98 700 l 25
 98 800 l 25
 322 800 l 25
 322 700 l 25xe880
 360 700 l 25
 360 600 l 25xe1
 398 600 l 25
 398 0 l 25
 22 0 l 25xe880
EndSplineSet
EndChar

StartChar: u1F513
Encoding: 128275 128275 304
Width: 420
Flags: HW
HStem: 0 100<172 248> 400 100<135 285> 600 100<322 360> 700 100<135 285>
VStem: 22 150<100 300> 22 75<500 600> 60 75<600 700> 248 150<100 300> 285 112<300 400> 285 75<600 700>
LayerCount: 2
Back
Fore
SplineSet
172 100 m 29xc8
 248 100 l 29
 248 300 l 29xc9
 285 300 l 29
 285 400 l 29
 135 400 l 29
 135 300 l 29xc280
 172 300 l 29
 172 100 l 29xc8
285 600 m 25xe440
 285 700 l 25
 135 700 l 25xd240
 135 600 l 25xe240
 98 600 l 25
 98 500 l 25
 398 500 l 25
 398 0 l 25
 22 0 l 25
 22 600 l 25xe480
 60 600 l 25xe2
 60 700 l 25xd2
 98 700 l 25
 98 800 l 25
 322 800 l 25xd4
 322 700 l 25
 360 700 l 25
 360 600 l 25
 285 600 l 25xe440
EndSplineSet
EndChar

StartChar: u1F514
Encoding: 128276 128276 305
Width: 420
Flags: HW
HStem: -100 100<191 229>
VStem: 116 75<0 100> 154 112<-100 0 700 800> 229 75<0 100>
LayerCount: 2
Back
Fore
SplineSet
191 0 m 29xd0
 229 0 l 25
 229 100 l 25
 191 100 l 25
 191 0 l 29xd0
-34 100 m 25
 -34 300 l 25
 4 300 l 25
 4 500 l 25
 41 500 l 25
 41 600 l 25
 79 600 l 25
 79 700 l 25
 154 700 l 25
 154 800 l 25
 266 800 l 25
 266 700 l 25xa0
 341 700 l 25
 341 600 l 25
 379 600 l 25
 379 500 l 25
 416 500 l 25
 416 300 l 25
 454 300 l 25
 454 100 l 25
 304 100 l 25
 304 0 l 25x90
 266 0 l 25
 266 -100 l 25
 154 -100 l 25
 154 0 l 25xa0
 116 0 l 25
 116 100 l 25
 -34 100 l 25
EndSplineSet
EndChar

StartChar: u1F515
Encoding: 128277 128277 306
Width: 420
Flags: HW
HStem: 0 100<116 154 266 304> 100 100<41 79 191 229 341 379> 200 100<116 154 266 304> 600 200<154 266> 600 100<116 154 266 304>
VStem: -34 75<200 300> 4 75<300 500> 41 75<500 600> 116 75<0 100 200 300> 154 112<100 200 700 800> 229 75<0 100 200 300> 304 75<500 600> 341 75<300 500> 379 75<200 300>
LayerCount: 2
Back
Fore
SplineSet
116 0 m 29x80a0
 116 100 l 25x80a0
 154 100 l 25
 154 200 l 25xa040
 116 200 l 25
 116 300 l 25
 191 300 l 25xa080
 191 200 l 25
 229 200 l 25x40a0
 229 300 l 25
 304 300 l 25
 304 200 l 25x20a0
 266 200 l 25
 266 100 l 25xa040
 304 100 l 25
 304 0 l 25
 229 0 l 25xa020
 229 100 l 25
 191 100 l 25x40a0
 191 0 l 25
 116 0 l 29x80a0
154 700 m 25x2a40
 154 800 l 25
 266 800 l 25x1240
 266 700 l 25
 341 700 l 25
 341 600 l 25x0a48
 379 600 l 25
 379 500 l 25x0810
 416 500 l 25
 416 300 l 25x2808
 454 300 l 25x2804
 454 100 l 25x4004
 341 100 l 25
 341 200 l 25x4008
 379 200 l 25x4004
 379 300 l 25x2004
 341 300 l 25
 341 500 l 25x2008
 304 500 l 25
 304 600 l 25
 116 600 l 25
 116 500 l 25x2910
 79 500 l 25
 79 300 l 25x2a
 41 300 l 25x2c
 41 200 l 25x44
 79 200 l 25
 79 100 l 25x42
 -34 100 l 25x44
 -34 300 l 25x24
 4 300 l 25
 4 500 l 25x22
 41 500 l 25
 41 600 l 25x29
 79 600 l 25
 79 700 l 25
 154 700 l 25x2a40
EndSplineSet
EndChar

StartChar: u1F517
Encoding: 128279 128279 307
Width: 420
Flags: HW
HStem: -100 100<172 435> 200 100<-15 98> 400 100<322 435> 700 100<-15 248>
VStem: -90 75<300 700> 98 75<0 200> 248 75<500 700> 435 75<0 400>
LayerCount: 2
Back
Fore
SplineSet
322 400 m 29
 322 300 l 25
 285 300 l 25
 285 200 l 25
 172 200 l 25
 172 0 l 25
 435 0 l 25
 435 400 l 25
 322 400 l 29
-15 700 m 25
 -15 300 l 25
 98 300 l 25
 98 400 l 25
 135 400 l 25
 135 500 l 25
 248 500 l 25
 248 700 l 25
 -15 700 l 25
-52 700 m 25
 -52 800 l 25
 285 800 l 25
 285 700 l 25
 322 700 l 25
 322 500 l 25
 472 500 l 25
 472 400 l 25
 510 400 l 25
 510 0 l 25
 472 0 l 25
 472 -100 l 25
 135 -100 l 25
 135 0 l 25
 98 0 l 25
 98 200 l 25
 -52 200 l 25
 -52 300 l 25
 -90 300 l 25
 -90 700 l 25
 -52 700 l 25
EndSplineSet
EndChar

StartChar: u1F51E
Encoding: 128286 128286 308
Width: 420
Flags: HW
HStem: 0 100<172 210> 100 100<98 135 248 285> 200 100<172 210 322 360 398 435> 300 100<98 135 248 285> 400 100<172 210>
VStem: -15 75<0 400> 22 38<400 500> 98 75<100 200 300 400> 135 112<0 100 200 300 400 500> 210 75<100 200 300 400> 322 112<200 300> 360 38<100 200 300 400>
LayerCount: 2
Back
Fore
SplineSet
360 100 m 29x4010
 360 200 l 25x2010
 322 200 l 25
 322 300 l 25x2020
 360 300 l 25
 360 400 l 25
 398 400 l 25
 398 300 l 25x2810
 435 300 l 25
 435 200 l 25x2820
 398 200 l 25x2810
 398 100 l 25
 360 100 l 29x4010
172 300 m 25x2940
 210 300 l 25
 210 400 l 25
 172 400 l 25
 172 300 l 25x2940
172 100 m 25xa140
 210 100 l 25
 210 200 l 25
 172 200 l 25
 172 100 l 25xa140
135 0 m 25x8080
 135 100 l 25x4080
 98 100 l 25
 98 200 l 25x41
 135 200 l 25
 135 300 l 25x5080
 98 300 l 25
 98 400 l 25x51
 135 400 l 25x5080
 135 500 l 25
 248 500 l 25x0880
 248 400 l 25x1080
 285 400 l 25
 285 300 l 25x1040
 248 300 l 25
 248 200 l 25x5080
 285 200 l 25
 285 100 l 25x5040
 248 100 l 25x5080
 248 0 l 25
 135 0 l 25x8080
-15 0 m 25x8c
 -15 400 l 25x8c
 22 400 l 25
 22 500 l 25
 60 500 l 25x8a
 60 0 l 25
 -15 0 l 25x8c
EndSplineSet
EndChar

StartChar: u1F520
Encoding: 128288 128288 309
Width: 420
Flags: HW
HStem: -100 100<79 191 304 341> 200 100<79 191 304 341> 400 100<379 416> 600 100<379 416>
VStem: 4 75<0 200 400 500> 41 112<700 800> 116 75<400 500> 229 150<-100 0 200 300 500 600> 229 112<700 800> 229 75<0 200> 341 75<0 200>
LayerCount: 2
Back
Fore
SplineSet
304 0 m 29xf060
 341 0 l 25
 341 200 l 25
 304 200 l 25
 304 0 l 29xf060
229 -100 m 25xf1
 229 300 l 25
 379 300 l 25
 379 200 l 25xf1
 416 200 l 25
 416 0 l 25xf020
 379 0 l 25
 379 -100 l 25
 229 -100 l 25xf1
191 300 m 25xf2
 191 200 l 25
 79 200 l 25
 79 0 l 25
 191 0 l 25
 191 -100 l 25xfa
 41 -100 l 25
 41 0 l 25xf4
 4 0 l 25
 4 200 l 25xf8
 41 200 l 25
 41 300 l 25xf4
 191 300 l 25xf2
229 400 m 25xf060
 229 800 l 25
 341 800 l 25
 341 700 l 25xf080
 416 700 l 25
 416 600 l 25xf020
 379 600 l 25
 379 500 l 25xf1
 416 500 l 25
 416 400 l 25
 229 400 l 25xf060
4 400 m 25xfa
 4 700 l 25xfa
 41 700 l 25
 41 800 l 25
 154 800 l 25
 154 700 l 25xf4
 191 700 l 25
 191 400 l 25
 116 400 l 25
 116 500 l 25
 79 500 l 25
 79 400 l 25
 4 400 l 25xfa
EndSplineSet
EndChar

StartChar: u1F521
Encoding: 128289 128289 310
Width: 420
Flags: HW
HStem: -100 100<60 172 285 322 398 435> 0 100<-15 22 210 248> 100 100<60 172 285 322> 400 100<60 98 172 210 322 360> 500 100<-15 22 398 435> 600 100<60 98 322 360>
VStem: -15 75<0 100 500 600> 22 150<-100 0 100 200 600 700> 98 75<500 600> 210 75<0 100> 248 75<500 600 700 800> 322 75<0 100 200 300> 360 75<500 600>
LayerCount: 2
Back
Fore
SplineSet
285 0 m 29xa050
 322 0 l 25
 322 100 l 25
 285 100 l 25
 285 0 l 29xa050
210 0 m 25x4040
 210 100 l 25x4040
 248 100 l 25x4020
 248 200 l 25x2020
 322 200 l 25
 322 300 l 25
 398 300 l 25
 398 0 l 25xa010
 435 0 l 25
 435 -100 l 25
 248 -100 l 25xa028
 248 0 l 25x4028
 210 0 l 25x4040
60 100 m 25x22
 60 0 l 25xa2
 172 0 l 25
 172 -100 l 25
 22 -100 l 25xa1
 22 0 l 25x41
 -15 0 l 25
 -15 100 l 25x42
 22 100 l 25x41
 22 200 l 25
 172 200 l 25
 172 100 l 25x21
 60 100 l 25x22
322 500 m 25x1428
 360 500 l 25
 360 600 l 25
 322 600 l 25
 322 500 l 25x1428
248 400 m 25
 248 800 l 25
 322 800 l 25
 322 700 l 25x1420
 398 700 l 25x1410
 398 600 l 25x0810
 435 600 l 25
 435 500 l 25x0808
 398 500 l 25x0810
 398 400 l 25x1010
 248 400 l 25
60 500 m 25x1680
 98 500 l 25
 98 600 l 25
 60 600 l 25
 60 500 l 25x1680
-15 500 m 25x0a
 -15 600 l 25x0a
 22 600 l 25x09
 22 700 l 25
 172 700 l 25x05
 172 500 l 25x1480
 210 500 l 25
 210 400 l 25
 22 400 l 25x1540
 22 500 l 25x0940
 -15 500 l 25x0a
EndSplineSet
EndChar

StartChar: u1F522
Encoding: 128290 128290 311
Width: 420
Flags: HW
HStem: -100 100<-15 60> 0 100<285 360> 200 100<-15 98 285 322> 400 100<248 285 360 435> 600 100<22 60 398 435> 700 100<248 360>
VStem: 22 112<600 700> 60 75<400 600 700 800> 98 75<100 200> 210 75<100 200> 248 75<200 300> 285 75<500 600> 360 75<-100 0 100 200 600 700>
LayerCount: 2
Back
Fore
SplineSet
322 300 m 29x7020
 322 200 l 25x7020
 285 200 l 25
 285 100 l 25
 360 100 l 25x7048
 360 200 l 25
 435 200 l 25
 435 -100 l 25
 360 -100 l 25xb048
 360 0 l 25
 210 0 l 25
 210 200 l 25x7048
 248 200 l 25
 248 300 l 25
 322 300 l 29x7020
-15 200 m 25
 -15 300 l 25
 172 300 l 25
 172 0 l 25x7080
 135 0 l 25x71
 135 -100 l 25
 -15 -100 l 25
 -15 0 l 25
 60 0 l 25xb1
 60 100 l 25x71
 98 100 l 25
 98 200 l 25x7080
 -15 200 l 25
248 400 m 25x3828
 248 500 l 25x3828
 285 500 l 25
 285 600 l 25
 360 600 l 25x3810
 360 700 l 25
 248 700 l 25
 248 800 l 25
 398 800 l 25x3428
 398 700 l 25
 435 700 l 25
 435 600 l 25x3828
 360 600 l 25
 360 500 l 25x3810
 435 500 l 25
 435 400 l 25
 248 400 l 25x3828
60 400 m 25x35
 60 600 l 25x39
 22 600 l 25
 22 700 l 25x3a
 60 700 l 25x39
 60 800 l 25
 135 800 l 25
 135 400 l 25
 60 400 l 25x35
EndSplineSet
EndChar

StartChar: u1F523
Encoding: 128291 128291 312
Width: 420
Flags: HW
HStem: 400 100<-15 60> 500 100<172 210 398 435> 600 200<-15 60 248 285 322 360> 700 100<285 322>
VStem: -15 75<400 500 600 800> 172 75<500 600> 210 75<600 700> 322 75<600 700> 360 75<500 600>
LayerCount: 2
Back
Fore
SplineSet
172 500 m 29x4c
 172 600 l 25x4c
 210 600 l 25
 210 700 l 25x5a
 248 700 l 25x5c
 248 800 l 25
 360 800 l 25x2c80
 360 700 l 25x1c80
 398 700 l 25
 398 600 l 25x59
 435 600 l 25
 435 500 l 25
 360 500 l 25x5880
 360 600 l 25x2880
 322 600 l 25x29
 322 700 l 25
 285 700 l 25x1b
 285 600 l 25x2b
 248 600 l 25x2c
 248 500 l 25
 172 500 l 29x4c
-15 400 m 25x88
 -15 500 l 25
 60 500 l 25
 60 400 l 25
 -15 400 l 25x88
-15 600 m 25x28
 -15 800 l 25
 60 800 l 25
 60 600 l 25
 -15 600 l 25x28
EndSplineSet
EndChar

StartChar: u1F524
Encoding: 128292 128292 313
Width: 420
Flags: HW
HStem: 0 100<-128 -52 172 285 510 622> 100 100<-202 -165> 200 100<-128 -52> 300 100<172 210> 400 100<-165 -52 210 285 510 622>
VStem: -202 75<100 200> -165 188<0 100 200 300> -52 75<100 200 300 400> 98 112<300 400> 98 75<100 300 400 650> 210 112<400 500> 285 75<100 400> 435 75<100 400> 472 150<0 100 400 500>
LayerCount: 2
Back
Fore
SplineSet
472 0 m 29x8804
 472 100 l 25x4004
 435 100 l 25
 435 400 l 25x4808
 472 400 l 25
 472 500 l 25
 622 500 l 25
 622 400 l 25x4804
 510 400 l 25
 510 100 l 25x8808
 622 100 l 25
 622 0 l 25
 472 0 l 29x8804
172 100 m 25x9040
 285 100 l 25
 285 400 l 25x8850
 210 400 l 25
 210 300 l 25x1090
 172 300 l 25
 172 100 l 25x9040
98 0 m 25
 98 650 l 25
 172 650 l 25
 172 400 l 25x9060
 210 400 l 25x9080
 210 500 l 25
 322 500 l 25
 322 400 l 25x0820
 360 400 l 25
 360 100 l 25x4810
 322 100 l 25x4820
 322 0 l 25x8020
 98 0 l 25
-128 100 m 25xa5
 -52 100 l 25
 -52 200 l 25
 -128 200 l 25
 -128 100 l 25xa5
-202 100 m 25x44
 -202 200 l 25x44
 -165 200 l 25
 -165 300 l 25x52
 -52 300 l 25
 -52 400 l 25x29
 -165 400 l 25
 -165 500 l 25x2a
 -15 500 l 25
 -15 400 l 25
 22 400 l 25x29
 22 0 l 25
 -165 0 l 25xaa
 -165 100 l 25x42
 -202 100 l 25x44
EndSplineSet
EndChar

